SplineFontDB: 3.0
FontName: RoutedGothicWide-Italic
FullName: Routed Gothic Wide Italic
FamilyName: Routed Gothic Wide
Weight: Regular

StartChar: exclam
Encoding: 33 33 0
Width: 360
VWidth: 32
Flags: HW
HStem: 48 48<152.382 207.618>
VStem: 150 60<49.9059 94.0941>
LayerCount: 2
Fore
SplineSet
134.975552075 60.7606959671 m 0
 117.543174969 20.9152625817 75.8700715587 0 37 0 c 0
 6.55478884282 0 -24.8943347448 25.7837283305 -24.8943347448 59.8097216839 c 0
 -24.8943347448 66.5467251764 -23.6614557127 73.6068446913 -20.9438005233 80.8539251962 c 0
 -20.6566495202 81.6196612047 -20.2183734887 82.6842836596 -19.9755520753 83.2393040329 c 0
 -2.95930338431 122.133586755 37.4131660707 144 77 144 c 0
 104.255963774 144 140.136258318 121.065530022 140.136258318 85.036743439 c 0
 140.136258318 78.1901987585 138.840572749 70.8708007397 135.943800523 63.1460748038 c 0
 135.65664952 62.3803387953 135.218373489 61.3157163404 134.975552075 60.7606959671 c 0
331.398560466 732.333880642 m 0
 349.69538116 724.740700054 360.908749082 706.503027789 360.908749082 687.60574123 c 0
 360.908749082 681.562927377 359.762139395 675.452665445 357.333880642 669.601439534 c 2
 191.333880642 269.601439534 l 2
 183.740700054 251.30461884 165.503027789 240.091250918 146.60574123 240.091250918 c 0
 140.562927377 240.091250918 134.452665445 241.237860605 128.601439534 243.666119358 c 0
 110.303533881 251.259750204 99.0913204448 269.497763351 99.0913204448 288.394339845 c 0
 99.0913204448 294.437254818 100.237936619 300.547517722 102.666119358 306.398560466 c 2
 268.666119358 706.398560466 l 2
 276.259750204 724.696466119 294.497763351 735.908679555 313.394339845 735.908679555 c 0
 319.437254818 735.908679555 325.547517722 734.762063381 331.398560466 732.333880642 c 0
EndSplineSet
EndChar

StartChar: quotedbl
Encoding: 34 34 1
Width: 480
VWidth: 32
Flags: HW
LayerCount: 2
Fore
SplineSet
491.521988893 732.282456204 m 0
 509.754677044 724.656283756 520.907650289 706.455226274 520.907650289 687.605380726 c 0
 520.907650289 681.51918965 519.74495414 675.365362496 517.282456204 669.478011107 c 2
 430.282456204 461.478011107 l 2
 422.656283756 443.245322956 404.455226274 432.092349711 385.605380726 432.092349711 c 0
 379.51918965 432.092349711 373.365362496 433.25504586 367.478011107 435.717543796 c 0
 349.244244604 443.344167285 338.092419458 461.545557485 338.092419458 480.394696442 c 0
 338.092419458 486.480991336 339.255122748 492.634821329 341.717543796 498.521988893 c 2
 428.717543796 706.521988893 l 2
 436.344167285 724.755755396 454.545557485 735.907580542 473.394696442 735.907580542 c 0
 479.480991336 735.907580542 485.634821329 734.744877252 491.521988893 732.282456204 c 0
291.521988893 732.282456204 m 0
 309.754677044 724.656283756 320.907650289 706.455226274 320.907650289 687.605380726 c 0
 320.907650289 681.51918965 319.74495414 675.365362496 317.282456204 669.478011107 c 2
 230.282456204 461.478011107 l 2
 222.656283756 443.245322956 204.455226274 432.092349711 185.605380726 432.092349711 c 0
 179.51918965 432.092349711 173.365362496 433.25504586 167.478011107 435.717543796 c 0
 149.244244604 443.344167285 138.092419458 461.545557485 138.092419458 480.394696442 c 0
 138.092419458 486.480991336 139.255122748 492.634821329 141.717543796 498.521988893 c 2
 228.717543796 706.521988893 l 2
 236.344167285 724.755755396 254.545557485 735.907580542 273.394696442 735.907580542 c 0
 279.480991336 735.907580542 285.634821329 734.744877252 291.521988893 732.282456204 c 0
EndSplineSet
EndChar

StartChar: numbersign
Encoding: 35 35 2
Width: 840
VWidth: 32
Flags: HW
LayerCount: 2
Fore
SplineSet
257.971149999 9.77270781743 m 0
 245.673820024 19.1109927668 239.17804311 33.6154145812 239.17804311 48.2161343607 c 0
 239.17804311 58.3369595589 242.299191504 68.5040548558 248.772707817 77.0288500011 c 2
 372.528924848 240 l 1
 273.071075152 240 l 1
 105.227292183 18.9711499989 l 2
 95.8885985498 6.6732818405 81.3843374719 0.178085882498 66.7841358256 0.178085882498 c 0
 56.6629604948 0.178085882498 46.4956803286 3.29939259825 37.9711499989 9.77270781743 c 0
 25.6738200243 19.1109927668 19.1780431101 33.6154145812 19.1780431101 48.2161343607 c 0
 19.1780431101 58.3369595589 22.2991915039 68.5040548558 28.7727078174 77.0288500011 c 2
 152.528924848 240 l 1
 107 240 l 2
 80.8536339246 240 59 261.855528292 59 288 c 0
 59 314.144471708 80.8536339246 336 107 336 c 2
 225.428924848 336 l 1
 274.028924848 400 l 1
 173 400 l 2
 146.853633925 400 125 421.855528292 125 448 c 0
 125 474.144471708 146.853633925 496 173 496 c 2
 346.928924848 496 l 1
 514.772707817 717.028850001 l 2
 524.110992767 729.326179976 538.615414581 735.82195689 553.216134361 735.82195689 c 0
 563.336959559 735.82195689 573.504054856 732.700808496 582.028850001 726.227292183 c 0
 594.326718159 716.88859855 600.821914118 702.384337472 600.821914118 687.784135826 c 0
 600.821914118 677.662960495 597.700607402 667.495680329 591.227292183 658.971149999 c 2
 467.471075152 496 l 1
 566.928924848 496 l 1
 734.772707817 717.028850001 l 2
 744.110992767 729.326179976 758.615414581 735.82195689 773.216134361 735.82195689 c 0
 783.336959559 735.82195689 793.504054856 732.700808496 802.028850001 726.227292183 c 0
 814.326718159 716.88859855 820.821914118 702.384337472 820.821914118 687.784135826 c 0
 820.821914118 677.662960495 817.700607402 667.495680329 811.227292183 658.971149999 c 2
 687.471075152 496 l 1
 733 496 l 2
 759.144471708 496 781 474.146366075 781 448 c 0
 781 421.853633925 759.144471708 400 733 400 c 2
 614.571075152 400 l 1
 565.971075152 336 l 1
 667 336 l 2
 693.144471708 336 715 314.146366075 715 288 c 0
 715 261.853633925 693.144471708 240 667 240 c 2
 493.071075152 240 l 1
 325.227292183 18.9711499989 l 2
 315.88859855 6.6732818405 301.384337472 0.178085882498 286.784135826 0.178085882498 c 0
 276.662960495 0.178085882498 266.495680329 3.29939259825 257.971149999 9.77270781743 c 0
394.571075152 400 m 1
 345.971075152 336 l 1
 445.428924848 336 l 1
 494.028924848 400 l 1
 394.571075152 400 l 1
EndSplineSet
EndChar

StartChar: dollar
Encoding: 36 36 3
Width: 630
VWidth: 32
Flags: HW
LayerCount: 2
Fore
SplineSet
573.999838674 494.430687477 m 0
 566.653000939 490.18902675 558.691057989 488.276048921 550.84871226 488.276048921 c 0
 533.967940068 488.276048921 517.641300529 497.139494576 509.196203016 510.720433631 c 0
 507.979223835 512.355408871 493.166997198 533.943201684 444.070601008 541.449170014 c 1
 392.647392941 417.724158123 l 1
 405.881686253 414.529265962 417.946734595 410.653522508 429.043294206 406.011619982 c 0
 484.369380715 382.867662784 502.657669772 340.744934429 502.657669772 300.895735725 c 0
 502.657669772 280.903651649 498.054573791 261.483806734 491.215965387 245.319823233 c 0
 458.220632928 167.108664812 370.611272914 108.701156281 259.68989419 97.8264167685 c 1
 231.324066879 29.5778097035 l 2
 223.724549288 11.2932561016 205.493874636 0.0914610993227 186.605668165 0.0914610993227 c 0
 180.554555413 0.0914610993227 174.435957882 1.24114028437 168.577809703 3.67593312117 c 0
 150.292172407 11.2759011224 139.091530669 29.5069150905 139.091530669 48.3944121631 c 0
 139.091530669 54.4456265521 140.241216465 60.5642254105 142.675933121 66.4221902965 c 2
 158.265604621 103.931174357 l 1
 74.0233588297 126.074421996 38.0389753909 187.330805158 34.7300105449 193.243345202 c 0
 30.9031011884 200.639262416 29.1065901555 208.435685758 29.1065901555 216.048137546 c 0
 29.1065901555 233.113970397 38.1355090902 249.255197594 53.5581358008 257.88650144 c 0
 60.9674456604 262.033136503 69.0329179187 264.094095158 77.0466162442 264.094095158 c 0
 93.1632783219 264.094095158 109.070531383 255.758175874 119.009727429 239.287401762 c 0
 119.837971796 237.956349092 141.460830755 203.057508811 195.736408224 194.086491295 c 1
 257.165425633 341.885630927 l 1
 185.408495614 361.193629858 146.00322454 404.466229349 146.00322454 459.12521082 c 0
 146.00322454 462.129997668 146.122309959 465.16919494 146.361652636 468.240712976 c 0
 147.588148755 483.980509116 151.464010655 497.551206664 156.586207716 510.20604646 c 0
 187.84702287 585.516192059 283.928150926 631.561910175 380.632509295 638.949290866 c 1
 408.675933121 706.422190297 l 2
 416.275901122 724.707827593 434.506915091 735.908469331 453.394412163 735.908469331 c 0
 459.445626552 735.908469331 465.56422541 734.758783535 471.422190297 732.324066879 c 0
 489.706743898 724.724549288 500.908538901 706.493874636 500.908538901 687.605668165 c 0
 500.908538901 681.554555413 499.758859716 675.435957882 497.324066879 669.577809703 c 2
 481.474200873 631.442793749 l 1
 555.505849601 612.783562395 586.196296286 569.306279772 591.961895785 559.319879001 c 0
 595.758252715 552.217328437 597.632772716 544.272139562 597.632772716 536.325019958 c 0
 597.632772716 519.889830707 589.615622907 503.446383903 573.999838674 494.430687477 c 0
336.487064733 532.734687407 m 1
 287.84326065 517.415874578 252.338057129 490.061792361 245.404988281 473.771182643 c 0
 243.388783842 468.719951198 242.337706989 464.198759652 242.071515659 460.782689095 c 0
 242.051243826 460.522537825 241.435693863 459.175589401 241.435693863 457.150716891 c 0
 241.435693863 450.917814468 247.268111262 438.261491577 294.248044372 431.106969246 c 1
 336.487064733 532.734687407 l 1
304.069758914 204.605038659 m 1
 356.707487376 221.973616398 390.825996594 254.335197758 402.774520274 282.657624259 c 0
 407.669366746 294.227261374 410.850630562 300.394543696 410.850630562 304.521364735 c 0
 410.850630562 309.821988205 405.602286184 311.756325785 391.99555956 317.448279047 c 0
 383.623726937 320.950376306 371.442882275 324.497453358 355.103239137 327.392359497 c 1
 304.069758914 204.605038659 l 1
EndSplineSet
EndChar

StartChar: percent
Encoding: 37 37 5
Width: 1080
VWidth: 32
Flags: HW
HStem: 48 240<687.378 872.622> 448 240<207.377 392.623>
VStem: 140 320<500.907 635.093> 620 320<100.907 235.093>
LayerCount: 2
Fore
SplineSet
901.426253898 149.825623405 m 0
 864.221644023 58.8810214893 750.807563642 0 647 0 c 0
 618.182361455 0 591.345622774 4.68038865488 567.446354669 14.2964656473 c 0
 515.818863467 35.0692327527 482.064701409 81.3081128789 482.064701409 134.501171454 c 0
 482.064701409 151.229717644 485.403066308 168.646048209 492.573746102 186.174376595 c 0
 529.778355977 277.118978511 643.192436358 336 747 336 c 0
 775.817638545 336 802.654377226 331.319611345 826.553645331 321.703534353 c 0
 878.181136533 300.930767247 911.935298591 254.691887121 911.935298591 201.498828546 c 0
 911.935298591 184.770282356 908.596933692 167.353951791 901.426253898 149.825623405 c 0
812.573746102 186.174376595 m 0
 815.505670434 193.341302739 817.073367889 199.481892046 817.073367889 204.858928083 c 0
 817.073367889 217.007506464 809.070838471 225.258421117 790.719125101 232.642391535 c 0
 780.079350774 236.923396655 765.350361455 240 747 240 c 0
 674.807563642 240 598.221644023 190.881021489 581.426253898 149.825623405 c 0
 578.494329566 142.658697261 576.926632111 136.518107954 576.926632111 131.141071917 c 0
 576.926632111 118.992493536 584.929161529 110.741578883 603.280874899 103.357608465 c 0
 613.920649226 99.0766033451 628.649638545 96 647 96 c 0
 719.192436358 96 795.778355977 145.118978511 812.573746102 186.174376595 c 0
587.426253898 549.825623405 m 0
 550.221644023 458.881021489 436.807563642 400 333 400 c 0
 304.182361455 400 277.345622774 404.680388655 253.446354669 414.296465647 c 0
 201.818863467 435.069232753 168.064701409 481.308112879 168.064701409 534.501171454 c 0
 168.064701409 551.229717644 171.403066308 568.646048209 178.573746102 586.174376595 c 0
 215.778355977 677.118978511 329.192436358 736 433 736 c 0
 461.817638545 736 488.654377226 731.319611345 512.553645331 721.703534353 c 0
 564.181136533 700.930767247 597.935298591 654.691887121 597.935298591 601.498828546 c 0
 597.935298591 584.770282356 594.596933692 567.353951791 587.426253898 549.825623405 c 0
498.573746102 586.174376595 m 0
 501.505670434 593.341302739 503.073367889 599.481892046 503.073367889 604.858928083 c 0
 503.073367889 617.007506464 495.070838471 625.258421117 476.719125101 632.642391535 c 0
 466.079350774 636.923396655 451.350361455 640 433 640 c 0
 360.807563642 640 284.221644023 590.881021489 267.426253898 549.825623405 c 0
 264.494329566 542.658697261 262.926632111 536.518107954 262.926632111 531.141071917 c 0
 262.926632111 518.992493536 270.929161529 510.741578883 289.280874899 503.357608465 c 0
 299.920649226 499.076603345 314.649638545 496 333 496 c 0
 405.192436358 496 481.778355977 545.118978511 498.573746102 586.174376595 c 0
151.437326301 15.7618821989 m 0
 143.231981156 24.8134035615 139.19116857 36.376059524 139.19116857 47.9183398901 c 0
 139.19116857 61.0764077929 144.442503473 74.2079961006 154.761882199 83.5626736993 c 2
 860.761882199 723.562673699 l 2
 869.813403562 731.768018844 881.376059524 735.80883143 892.91833989 735.80883143 c 0
 906.076407793 735.80883143 919.207996101 730.557496527 928.562673699 720.238117801 c 0
 936.76829802 711.186288473 940.808847815 699.623852652 940.808847815 688.08198852 c 0
 940.808847815 674.923445852 935.557096725 661.791641472 925.238117801 652.437326301 c 2
 219.238117801 12.4373263007 l 2
 210.186288473 4.23170198045 198.623852652 0.191152185002 187.08198852 0.191152185002 c 0
 173.923445852 0.191152185002 160.791641472 5.44290327548 151.437326301 15.7618821989 c 0
EndSplineSet
EndChar

StartChar: ampersand
Encoding: 38 38 6
Width: 980
VWidth: 32
Flags: HW
LayerCount: 2
Fore
SplineSet
500.348835154 455.050117921 m 1
 622.178634687 463.216982322 701.950213462 523.080512308 721.692307692 570.461538462 c 0
 724.565446333 577.357071199 726.62697312 583.851149502 726.62697312 590.115308888 c 0
 726.62697312 603.642106922 717.014095909 616.096795519 685.20265017 629.206606673 c 0
 659.346567353 639.862153915 618.316565726 648 561 648 c 0
 383.472639311 648 302.062197518 572.741958797 285.312845598 533.548611879 c 0
 279.906391472 520.154928113 277.126341547 510.426539503 277.126341547 502.909315318 c 0
 277.126341547 489.063082538 286.558277597 482.718715554 306.382308021 474.789103385 c 0
 324.870328051 467.393895373 354.667174817 462 394 462 c 0
 431.133714547 462 466.907739422 459.677876144 500.348835154 455.050117921 c 1
881.137594104 390.864590818 m 0
 883.693289776 384.885014621 884.869868409 378.720948841 884.869868409 372.667581243 c 0
 884.869868409 353.821124266 873.465104568 336.047682378 856.767887175 328.255586944 c 0
 854.434898173 327.238968351 819.553796062 311.778417558 773.062888033 278.475475032 c 1
 784.225861555 249.47230103 789.919708727 217.643658658 789.919708727 183.53495272 c 0
 789.919708727 136.165890192 778.938126952 84.3993256356 756.373052853 29.6961156983 c 0
 748.804911582 11.349106556 730.538912857 0.090479018135 711.60596908 0.090479018135 c 0
 705.596280986 0.090479018135 699.519394693 1.22484456184 693.696115698 3.6269471473 c 0
 675.350196581 11.1946387832 664.090409667 29.4602903319 664.090409667 48.3939468691 c 0
 664.090409667 54.4035359028 665.224769213 60.4804226431 667.626947147 66.3038843017 c 0
 686.78667561 112.751710877 694.912297428 152.43873801 694.967175082 185.108966674 c 0
 694.982165874 194.033411758 694.441267427 202.607979475 693.331784309 210.840307853 c 1
 678.58397828 196.078787622 663.787583696 179.792508417 649.396041208 161.90787309 c 0
 534.037277726 18.5494097334 381.16075983 -8 259 -8 c 0
 205.642479329 -8 160.262283769 -0.246508545776 122.519143025 15.4605372802 c 0
 50.4017051311 45.4726634441 15.3231695413 104.51465305 15.3231695413 168.317949773 c 0
 15.3231695413 192.788487352 20.4830808463 217.959394031 30.6923076923 242.461538462 c 0
 65.521171571 326.05081177 140.911565455 383.523610257 219.919621769 418.684985914 c 1
 196.370546439 442.586369196 183.782221925 473.820159319 183.782221925 508.290536146 c 0
 183.782221925 528.183666034 187.974809128 549.15475288 196.672816077 570.416547645 c 0
 234.438158256 659.934395772 358.963169046 744 561 744 c 0
 626.891990424 744 679.787465648 735.270792409 721.780825645 717.964913771 c 0
 785.556919692 691.682155171 821.107873546 640.884823404 821.107873546 585.980425177 c 0
 821.107873546 568.694583422 817.584018368 551.001644083 810.307692308 533.538461538 c 0
 786.709427761 476.902626626 735.225484406 430.559350571 669.255987702 399.558767 c 1
 688.649810613 387.744551627 705.796227518 374.270446085 720.629223017 359.296671914 c 1
 774.814705616 397.640550051 815.333773036 414.940164851 818.857629914 416.446275899 c 0
 824.468383636 418.630102669 830.418519524 419.69123003 836.36160114 419.69123003 c 0
 854.80784944 419.69123003 873.186139068 409.46865694 881.137594104 390.864590818 c 0
646.223262764 298.875679908 m 1
 625.215969604 317.098826865 597.167666525 331.828312571 561.596395086 343.354100491 c 0
 516.871286719 357.845910675 460.590297678 365.898238617 395.242977752 365.999045178 c 0
 306.096833857 361.058481566 157.567926218 297.363019712 119.307692308 205.538461538 c 0
 112.843786331 190.025087193 109.436491729 176.227051073 109.436491729 163.945215741 c 0
 109.436491729 137.733449814 124.955919592 118.427622909 159.40367347 104.091973091 c 0
 182.011257564 94.6836845284 214.978879895 88 259 88 c 0
 368.83924017 88 483.962722274 109.450590267 574.603958792 222.09212691 c 0
 598.147964278 251.350696835 622.467581065 276.84471444 646.223262764 298.875679908 c 1
EndSplineSet
EndChar

StartChar: quotesingle
Encoding: 39 39 7
Width: 280
VWidth: 0
Flags: HW
LayerCount: 2
Fore
SplineSet
291.521988893 732.282456204 m 0
 309.754677044 724.656283756 320.907650289 706.455226274 320.907650289 687.605380726 c 0
 320.907650289 681.51918965 319.74495414 675.365362496 317.282456204 669.478011107 c 2
 230.282456204 461.478011107 l 2
 222.656283756 443.245322956 204.455226274 432.092349711 185.605380726 432.092349711 c 0
 179.51918965 432.092349711 173.365362496 433.25504586 167.478011107 435.717543796 c 0
 149.244244604 443.344167285 138.092419458 461.545557485 138.092419458 480.394696442 c 0
 138.092419458 486.480991336 139.255122748 492.634821329 141.717543796 498.521988893 c 2
 228.717543796 706.521988893 l 2
 236.344167285 724.755755396 254.545557485 735.907580542 273.394696442 735.907580542 c 0
 279.480991336 735.907580542 285.634821329 734.744877252 291.521988893 732.282456204 c 0
EndSplineSet
EndChar

StartChar: parenleft
Encoding: 40 40 8
Width: 430
VWidth: 32
Flags: HW
LayerCount: 2
Fore
SplineSet
494.136122743 797.148518695 m 0
 500.701614607 788.558634378 503.713978888 778.549853026 503.713978888 768.643172911 c 0
 503.713978888 754.038811039 497.167370231 739.656340273 485.806642165 730.368711759 c 0
 482.66296614 727.957144318 273.333008043 564.682597493 184.352807956 349.647113949 c 0
 150.942003489 268.904336486 140.598376924 197.124132693 140.598376924 139.185401555 c 0
 140.598376924 47.251360638 166.641170736 -9.83314118014 167.895547406 -12.5766634339 c 0
 170.615273909 -18.8254236068 171.898451297 -25.3464835108 171.898451297 -31.7664734516 c 0
 171.898451297 -49.9203158884 161.638267838 -67.2660110081 144.585652262 -75.361629593 c 0
 138.02229629 -78.477540249 131.049511798 -79.9777159917 124.146332433 -79.9777159917 c 0
 106.766614673 -79.9777159917 89.8280896413 -70.4688382858 80.9752153921 -53.2951855641 c 0
 78.674310937 -48.4485591156 44.6529463671 24.5685944393 44.6529463671 139.562790075 c 0
 44.6529463671 208.589573399 56.9113850888 292.741352576 95.6471920437 386.352886051 c 0
 197.873972406 633.400938593 422.941412739 803.147547157 427.475526806 806.613098952 c 0
 435.82526164 812.572580472 445.932185118 815.615627819 456.060478134 815.615627819 c 0
 470.327045237 815.615627819 484.636011921 809.577877325 494.136122743 797.148518695 c 0
EndSplineSet
EndChar

StartChar: parenright
Encoding: 41 41 9
Width: 430
VWidth: 32
Flags: HW
LayerCount: 2
Fore
SplineSet
245.414347738 811.361629593 m 0
 251.907653548 814.444284389 258.68674156 815.862763143 265.348847191 815.862763143 c 0
 283.480495532 815.862763143 300.74563702 805.3558684 309.024784608 789.295185564 c 0
 311.590777003 783.890177729 345.355691352 710.996098796 345.355691352 596.451461777 c 0
 345.355691352 527.424100012 333.093765615 443.271094958 294.352807956 349.647113949 c 0
 191.934518672 102.136248179 -33.8221039976 -67.8206844286 -37.4755268061 -70.6130989525 c 0
 -46.3078792745 -76.9170406171 -56.3027857468 -79.9046374444 -66.1065182151 -79.9046374444 c 0
 -80.6921974878 -79.9046374444 -94.854721979 -73.2917305844 -104.136122743 -61.1485186949 c 0
 -110.687450787 -52.5771654462 -113.93656693 -42.3779838038 -113.93656693 -32.1712652528 c 0
 -113.93656693 -18.1990203541 -107.847856284 -4.21265159739 -95.8066421648 5.63128824071 c 0
 -93.5184687958 7.38658501818 116.50478062 170.925391778 205.647192044 386.352886051 c 0
 239.060837634 467.102529561 249.406576223 538.881664783 249.406576223 596.819603669 c 0
 249.406576223 688.382737783 223.567515802 745.376710369 222.104452594 748.576663434 c 0
 219.568390609 754.403441644 218.325462148 760.775448506 218.325462148 767.204636551 c 0
 218.325462148 784.863001839 227.701835005 802.952729115 245.414347738 811.361629593 c 0
EndSplineSet
EndChar

StartChar: asterisk
Encoding: 42 42 10
Width: 640
VWidth: 32
Flags: HW
LayerCount: 2
Fore
SplineSet
576.97366295 716.778854196 m 0
 584.91382357 707.790592374 588.810015023 696.434155979 588.810015023 685.102656268 c 0
 588.810015023 671.731993617 583.38536945 658.396050173 572.778854196 649.02633705 c 2
 526.337040655 608 l 1
 580 608 l 2
 606.144471708 608 628 586.146366075 628 560 c 0
 628 533.853633925 606.144471708 512 580 512 c 2
 464.509159592 512 l 1
 483.873423175 449.129014338 l 2
 485.277610021 444.569966138 485.944433606 439.933219896 485.944433606 435.352160033 c 0
 485.944433606 414.826408177 472.557621539 395.418587842 452.129014338 389.126576825 c 0
 447.569806405 387.722340781 442.933008221 387.055510214 438.351966407 387.055510214 c 0
 417.825355926 387.055510214 398.418184514 400.44368797 392.126576825 420.870985662 c 2
 375.524611017 474.773472051 l 1
 289.778854196 399.02633705 l 2
 280.790592374 391.08617643 269.434155979 387.189984977 258.102656268 387.189984977 c 0
 244.731993617 387.189984977 231.396050173 392.61463055 222.02633705 403.221145804 c 0
 214.085910393 412.209708781 210.189964407 423.565928291 210.189964407 434.897020635 c 0
 210.189964407 448.268164752 215.615048929 461.60431942 226.221145804 470.97366295 c 2
 272.662959345 512 l 1
 220 512 l 2
 193.853633925 512 172 533.855528292 172 560 c 0
 172 586.144471708 193.853633925 608 220 608 c 2
 334.490840408 608 l 1
 315.126576825 670.870985662 l 2
 313.722340781 675.430193595 313.055510214 680.066991779 313.055510214 684.648033593 c 0
 313.055510214 705.174644074 326.44368797 724.581815486 346.870985662 730.873423175 c 0
 351.430033862 732.277610021 356.066780104 732.944433606 360.647839967 732.944433606 c 0
 381.173591823 732.944433606 400.581412158 719.557621539 406.873423175 699.129014338 c 2
 423.475388983 645.226527949 l 1
 509.221145804 720.97366295 l 2
 518.209708781 728.914089607 529.565928291 732.810035593 540.897020635 732.810035593 c 0
 554.268164752 732.810035593 567.60431942 727.384951071 576.97366295 716.778854196 c 0
EndSplineSet
EndChar

StartChar: plus
Encoding: 43 43 11
Width: 800
VWidth: 192
Flags: HW
LayerCount: 2
Fore
SplineSet
718 368 m 0
 718 341.855528292 696.146366075 320 670 320 c 2
 432.137157393 320 l 1
 355.380292346 133.713675839 l 2
 347.817345673 115.358659196 329.546514782 104.090253792 310.606114345 104.090253792 c 0
 304.602683177 104.090253792 298.53198278 105.222349702 292.713675839 107.619707654 c 0
 274.357568232 115.183103844 263.090323109 133.454283082 263.090323109 152.393970256 c 0
 263.090323109 158.397500103 264.222424927 164.46819979 266.619707654 170.286324161 c 2
 328.307287051 320 l 1
 130 320 l 2
 103.855528292 320 82 341.853633925 82 368 c 0
 82 394.146366075 103.855528292 416 130 416 c 2
 367.862842607 416 l 1
 444.619707654 602.286324161 l 2
 452.183103844 620.642431768 470.454283082 631.909676891 489.393970256 631.909676891 c 0
 495.397500103 631.909676891 501.46819979 630.777575073 507.286324161 628.380292346 c 0
 525.641340804 620.817345673 536.909746208 602.546514782 536.909746208 583.606114345 c 0
 536.909746208 577.602683177 535.777650298 571.53198278 533.380292346 565.713675839 c 2
 471.692712949 416 l 1
 670 416 l 2
 696.146366075 416 718 394.144471708 718 368 c 0
EndSplineSet
EndChar

StartChar: comma
Encoding: 44 44 12
Width: 370
VWidth: 32
Flags: HW
LayerCount: 2
Fore
SplineSet
-1.28583165189 12.5691587052 m 1
 -15.2972963696 24.5256085977 -24.2794294971 43.3554644507 -24.2794294971 62.0013227784 c 0
 -24.2794294971 68.4023853481 -23.2208612268 74.7817633202 -20.9438005233 80.8539251962 c 0
 -20.6566495202 81.6196612047 -20.2183734887 82.6842836596 -19.9755520753 83.2393040329 c 0
 -2.95930338431 122.133586755 37.4131660707 144 77 144 c 0
 85.7841971727 144 94.125197311 142.495890089 102.938741035 139.00921345 c 0
 126.460561019 129.703878072 144.058936379 103.511861424 144.058936379 74.1544087916 c 0
 144.058936379 64.7382086073 142.248483588 54.996360612 138.242342548 45.381622115 c 0
 113.711108826 -12.3389278199 39.0761748041 -86.6315838103 36.4956803027 -89.3866006601 c 0
 26.7323073588 -99.1494464143 14.2280505221 -103.926571771 1.84500488018 -103.926571771 c 0
 -9.98315599779 -103.926571771 -21.700725253 -99.5679805865 -30.8133763563 -91.0325895717 c 0
 -40.7713333029 -81.7054403937 -45.8077201429 -68.8338048704 -45.8077201429 -55.9453361885 c 0
 -45.8077201429 -44.1351434052 -41.5787909555 -32.3108162359 -33.0325895717 -23.1866236437 c 2
 -33.0325895717 -23.1866236437 -18.9369756392 -8.16670105305 -1.28583165189 12.5691587052 c 1
EndSplineSet
EndChar

StartChar: hyphen
Encoding: 45 45 13
Width: 520
VWidth: 32
Flags: HW
LayerCount: 2
Fore
SplineSet
9 264 m 0
 9 290.144471708 30.8536339246 312 57 312 c 2
 377 312 l 2
 403.144471708 312 425 290.146366075 425 264 c 0
 425 237.853633925 403.144471708 216 377 216 c 2
 57 216 l 2
 30.8536339246 216 9 237.855528292 9 264 c 0
EndSplineSet
EndChar

StartChar: period
Encoding: 46 46 14
Width: 360
VWidth: 32
Flags: HW
HStem: 48 48<152.382 207.618>
VStem: 150 60<49.9059 94.0941>
AnchorPoint: "above" 8 -48 mark 0
LayerCount: 2
Fore
SplineSet
134.975552075 60.7606959671 m 0
 117.543174969 20.9152625817 75.8700715587 0 37 0 c 0
 6.55478884282 0 -24.8943347448 25.7837283305 -24.8943347448 59.8097216839 c 0
 -24.8943347448 66.5467251764 -23.6614557127 73.6068446913 -20.9438005233 80.8539251962 c 0
 -20.6566495202 81.6196612047 -20.2183734887 82.6842836596 -19.9755520753 83.2393040329 c 0
 -2.95930338431 122.133586755 37.4131660707 144 77 144 c 0
 104.255963774 144 140.136258318 121.065530022 140.136258318 85.036743439 c 0
 140.136258318 78.1901987585 138.840572749 70.8708007397 135.943800523 63.1460748038 c 0
 135.65664952 62.3803387953 135.218373489 61.3157163404 134.975552075 60.7606959671 c 0
EndSplineSet
EndChar

StartChar: slash
Encoding: 47 47 15
Width: 720
VWidth: 32
Flags: HW
LayerCount: 2
Fore
SplineSet
-28.5626736993 15.7618821989 m 0
 -36.7680188439 24.8134035615 -40.8088314298 36.376059524 -40.8088314298 47.9183398901 c 0
 -40.8088314298 61.0764077929 -35.5574965272 74.2079961006 -25.2381178011 83.5626736993 c 2
 680.761882199 723.562673699 l 2
 689.813403562 731.768018844 701.376059524 735.80883143 712.91833989 735.80883143 c 0
 726.076407793 735.80883143 739.207996101 730.557496527 748.562673699 720.238117801 c 0
 756.76829802 711.186288473 760.808847815 699.623852652 760.808847815 688.08198852 c 0
 760.808847815 674.923445852 755.557096725 661.791641472 745.238117801 652.437326301 c 2
 39.2381178011 12.4373263007 l 2
 30.1862884728 4.23170198045 18.6238526525 0.191152185002 7.08198852037 0.191152185002 c 0
 -6.07655414803 0.191152185002 -19.2083585279 5.44290327548 -28.5626736993 15.7618821989 c 0
EndSplineSet
EndChar

StartChar: zero
Encoding: 48 48 16
Width: 840
VWidth: 32
Flags: HW
HStem: 40 656<313.411 526.589>
VStem: 110 620<233.016 502.984>
LayerCount: 2
Fore
SplineSet
774.343848595 349.625477101 m 0
 692.542339649 152.211168845 479.636338471 -8 284 -8 c 0
 244.45231431 -8 207.729261317 -1.20809942327 175.054273286 12.2318141636 c 0
 81.5494380107 50.6923303496 34.1372993917 136.40909334 34.1372993917 237.358355058 c 0
 34.1372993917 284.775874102 44.5980032116 335.554191926 65.6561514046 386.374522899 c 0
 147.457660351 583.788831155 360.363661529 744 556 744 c 0
 595.54768569 744 632.270738683 737.208099423 664.945726714 723.768185836 c 0
 758.450561989 685.30766965 805.862700608 599.59090666 805.862700608 498.641644942 c 0
 805.862700608 451.224125898 795.401996788 400.445808074 774.343848595 349.625477101 c 0
685.656151405 386.374522899 m 0
 703.34944679 429.074342429 711.1982744 467.174611302 711.1982744 500.176592892 c 0
 711.1982744 568.296327866 677.757936721 614.694545077 628.427419432 634.985230078 c 0
 608.666572275 643.113284415 584.615225922 648 556 648 c 0
 409.636338471 648 222.542339649 514.211168845 154.343848595 349.625477101 c 0
 136.65055321 306.925657571 128.8017256 268.825388698 128.8017256 235.823407108 c 0
 128.8017256 167.703672134 162.242063279 121.305454923 211.572580568 101.014769922 c 0
 231.333427725 92.8867155847 255.384774078 88 284 88 c 0
 430.363661529 88 617.457660351 221.788831155 685.656151405 386.374522899 c 0
EndSplineSet
EndChar

StartChar: one
Encoding: 49 49 17
Width: 440
VWidth: 0
Flags: HW
LayerCount: 2
Fore
SplineSet
371.422190297 732.324066879 m 0
 389.706743898 724.724549288 400.908538901 706.493874636 400.908538901 687.605668165 c 0
 400.908538901 681.554555413 399.758859716 675.435957882 397.324066879 669.577809703 c 2
 131.324066879 29.5778097035 l 2
 123.724549288 11.2932561016 105.493874636 0.0914610993227 86.6056681655 0.0914610993227 c 0
 80.5545554127 0.0914610993227 74.4359578823 1.24114028437 68.5778097035 3.67593312117 c 0
 50.2921724073 11.2759011224 39.0915306694 29.5069150905 39.0915306694 48.3944121631 c 0
 39.0915306694 54.4456265521 40.2412164654 60.5642254105 42.6759331212 66.4221902965 c 2
 308.675933121 706.422190297 l 2
 316.275901122 724.707827593 334.506915091 735.908469331 353.394412163 735.908469331 c 0
 359.445626552 735.908469331 365.56422541 734.758783535 371.422190297 732.324066879 c 0
EndSplineSet
EndChar

StartChar: two
Encoding: 50 50 18
Width: 840
VWidth: 32
Flags: HW
LayerCount: 2
Fore
SplineSet
211.744878572 491.6068638 m 0
 193.373703464 499.161365714 182.089976939 517.441391985 182.089976939 536.393774291 c 0
 182.089976939 542.386266993 183.218057104 548.44597787 185.6068638 554.255121428 c 0
 240.736277539 688.319832112 393.708479868 744 538 744 c 0
 585.50521671 744 627.978245798 736.722564988 664.174634065 721.735467318 c 0
 728.855293905 694.954470295 769.218419987 640.226355557 769.218419987 575.965054373 c 0
 769.218419987 554.632014339 764.770148746 532.24835699 755.286569294 509.487766305 c 0
 721.477275446 428.865604054 656.41229951 390.267917488 523.77102998 337.410870232 c 0
 284.947815285 242.227704955 181.31076031 202.363531273 114.84325386 96 c 1
 547 96 l 2
 573.144471708 96 595 74.1463660754 595 48 c 0
 595 21.8536339246 573.144471708 0 547 0 c 2
 37 0 l 2
 32.8691909341 0 26.9303097224 0.806878007977 22.212711138 2.33451973195 c 0
 1.96858746561 8.88992444345 -10.907248211 28.2265211213 -10.907248211 48.4288110769 c 0
 -10.907248211 54.4215337992 -9.77426729953 60.4904313022 -7.36454847152 66.3244874122 c 0
 76.8255400584 270.1531228 216.871427548 318.43938458 488.22897002 426.589129768 c 0
 621.58770049 479.732082512 648.522724554 503.134395946 666.713430706 546.512233695 c 0
 671.989970965 559.175930316 674.720742763 570.300200481 674.720742763 580.18395347 c 0
 674.720742763 603.322210475 659.754839833 619.661854845 627.449443247 633.037889226 c 0
 605.878010202 641.969531012 575.61478329 648 538 648 c 0
 412.291520132 648 307.263722461 597.680167888 274.3931362 517.744878572 c 0
 266.838184979 499.372610831 248.55780828 488.090046197 229.606140131 488.090046197 c 0
 223.613549427 488.090046197 217.553839725 489.218132111 211.744878572 491.6068638 c 0
EndSplineSet
EndChar

StartChar: three
Encoding: 51 51 19
Width: 840
VWidth: 32
Flags: HW
LayerCount: 2
Fore
SplineSet
69.8508152613 200.687211093 m 0
 73.4712818426 201.551800128 77.1100807876 201.965335686 80.7061313729 201.965335686 c 0
 102.368014209 201.965335686 122.478723907 186.959724833 127.687211093 165.149184739 c 0
 136.173217103 129.614034573 183.73905417 88 282 88 c 0
 418.888918635 88 562.276586256 173.771873381 597.716165897 258.518694261 c 0
 605.498506111 277.12863825 608.743075293 293.496464663 608.743075293 307.654126645 c 0
 608.743075293 350.308810683 578.029286642 396 461 396 c 0
 429.096040192 396 375.739670362 385.874349062 340.030087921 375.802415553 c 0
 335.814399829 374.613375322 331.548061934 374.047382787 327.332997076 374.047382787 c 0
 319.082189543 374.047382787 311.027841685 376.21606088 303.934401754 380.125488254 c 0
 293.216109493 386.026069059 284.683316935 395.902999968 280.991365054 408.317693529 c 0
 280.958457957 408.428348162 280.925983115 408.539044098 280.893938431 408.649779143 c 0
 280.863073757 408.756308008 280.832565937 408.863019401 280.802415553 408.969912079 c 0
 279.613332185 413.185753108 279.047331474 417.452152365 279.047331474 421.667216536 c 0
 279.047331474 429.918162403 281.216114327 437.972404187 285.125528606 445.065676281 c 0
 291.025881713 455.783682806 300.902469974 464.316525422 313.317693529 468.008634946 c 0
 473.914959842 515.767952706 575.614950904 587.896811856 632.299346262 640 c 1
 278 640 l 2
 251.855528292 640 230 661.853633925 230 688 c 0
 230 714.146366075 251.855528292 736 278 736 c 2
 738 736 l 2
 744.710723177 736 752.807907023 734.255606398 759.434842217 730.948195994 c 0
 776.204721943 722.578584241 785.842924881 705.257180602 785.842924881 687.59640017 c 0
 785.842924881 679.258348772 783.694572984 670.844650412 779.134092586 663.261640574 c 0
 776.156704388 658.310941957 717.996098405 564.054863511 570.706852069 475.663874634 c 1
 652.631155783 448.619730747 704.743144705 389.317344118 704.743144705 307.685514081 c 0
 704.743144705 278.715250185 698.195381158 249.965440001 686.283834103 221.481305739 c 0
 629.723413744 86.2281266191 449.111081365 -8 282 -8 c 0
 162.26094583 -8 57.8267828971 44.3859654268 34.3127889068 142.850815261 c 0
 33.4481664606 146.471421755 33.0346221734 150.110293598 33.0346221734 153.706368405 c 0
 33.0346221734 175.369251164 48.0417329841 195.479072042 69.8508152613 200.687211093 c 0
EndSplineSet
EndChar

StartChar: four
Encoding: 52 52 20
Width: 840
VWidth: 32
Flags: HW
LayerCount: 2
Fore
SplineSet
527.672948789 318 m 1
 656.951036733 630.218778429 l 1
 190.38681699 318 l 1
 527.672948789 318 l 1
747 270 m 0
 747 243.855528292 725.146366075 222 699 222 c 2
 591.827051211 222 l 1
 511.348585788 27.636913697 l 2
 503.764937112 9.3216867054 485.516770501 -1.90906445472 466.605854507 -1.90906445472 c 0
 460.575494487 -1.90906445472 454.477742105 -0.767053800996 448.636913697 1.65141421163 c 0
 430.320599848 9.23551291473 419.091005007 27.4840227632 419.091005007 46.3942276852 c 0
 419.091005007 52.4246880523 420.233021963 58.5224408735 422.651414212 64.363086303 c 2
 487.922948789 222 l 1
 99 222 l 2
 72.6451520917 222 51.0033362114 244.134417773 51.0033362114 270.089835167 c 0
 51.0033362114 276.135379756 54.5729018344 287.895508544 54.7346696722 288.56288046 c 2
 80.7346696722 350.56288046 l 2
 84.385559196 359.268847786 92.017198415 367.684350573 98.3048216916 371.891947246 c 2
 627.304821692 725.891947246 l 2
 635.231682495 731.1965006 646.298228735 734 654 734 c 2
 720 734 l 1
 732 734 l 2
 758.354847908 734 779.996663789 711.865582227 779.996663789 685.910164833 c 0
 779.996663789 678.898999408 778.72324507 673.371939886 776.348585788 667.636913697 c 2
 631.577051211 318 l 1
 699 318 l 2
 725.146366075 318 747 296.144471708 747 270 c 0
EndSplineSet
EndChar

StartChar: five
Encoding: 53 53 21
Width: 840
VWidth: 0
Flags: HW
LayerCount: 2
Fore
SplineSet
59.2569011717 202.277569429 m 0
 63.3823462565 203.413561554 67.5524368947 203.954667138 71.6724829384 203.954667138 c 0
 92.7257532338 203.954667138 112.472274555 189.825485477 118.277569429 168.743098828 c 0
 129.771923525 127.00044448 175.083539561 88 267 88 c 0
 402.323867845 88 551.030454588 181.167381644 592.608040731 282.257983248 c 0
 600.723883097 301.990619588 604.027372022 319.551520247 604.032008768 334.85313699 c 0
 604.032008768 389.335634079 559.21956073 440 452 440 c 0
 373.261424374 440 285.814441508 411.465210479 209.846462869 360.209706819 c 0
 201.766603026 354.758235118 192.527844382 352.176992482 183.358193728 352.176992482 c 0
 166.570810316 352.176992482 150.015053649 360.828449785 141.226065487 376.358122001 c 0
 137.235920107 383.408495571 135.694965959 391.595630965 135.694965959 399.364140911 c 0
 135.694965959 408.964007665 138.048089206 417.924609925 141.040450746 423.310860697 c 2
 301.040450746 711.310860697 l 2
 309.734896822 726.960863632 327.774486353 736 343 736 c 2
 743 736 l 2
 769.144471708 736 791 714.146366075 791 688 c 0
 791 661.853633925 769.144471708 640 743 640 c 2
 371.243360752 640 l 1
 299.235179353 510.385273483 l 1
 347.872807387 526.42876067 401.211924316 536 452 536 c 0
 589.629882329 536 700.032011112 458.612344621 700.032011112 334.860864646 c 0
 700.023134807 305.569397672 693.662487261 275.576241675 681.391959269 245.742016752 c 0
 620.969545412 98.8326183565 437.676132155 -8 267 -8 c 0
 148.916460439 -8 52.228076475 46.9995555204 25.722430571 143.256901172 c 0
 24.5863968479 147.382497324 24.0452828906 151.552651461 24.0452828906 155.672701019 c 0
 24.0452828906 176.726891431 38.1758941511 196.472654452 59.2569011717 202.277569429 c 0
EndSplineSet
EndChar

StartChar: six
Encoding: 54 54 22
Width: 840
VWidth: 0
Flags: HW
LayerCount: 2
Fore
SplineSet
162.249259474 185.395449733 m 1
 175.306676872 113.530195374 244.662066782 88 312 88 c 0
 459.560359749 88 569.982680913 173.061163552 597.648525634 240.356461521 c 0
 602.461052033 251.906524878 604.244272341 261.515144383 604.244272341 270.433868869 c 0
 604.244272341 305.721602636 565.362334793 356 452 356 c 0
 315.298218087 356 209.367143368 299.824596334 162.249259474 185.395449733 c 1
209.077002961 386.432366912 m 1
 278.956899323 431.403987096 363.437121428 452 452 452 c 0
 586.781851038 452 700.244632219 384.602440155 700.244632219 270.576208311 c 0
 700.244632219 247.883829554 695.372421095 225.293810629 686.351474366 203.643538479 c 0
 640.017319087 90.9388364484 492.439640251 -8 312 -8 c 0
 220.395340271 -8 63.8355282388 37.5531246737 63.8355282388 214.143945396 c 0
 63.841632686 237.290255489 66.5829707527 261.844328502 72.2173762441 288.139258019 c 0
 78.7168259719 318.471219883 89.0526968521 351.060746211 103.643130061 386.343066516 c 0
 218.405065369 664.58662665 466.094313336 744 583 744 c 0
 742.09996988 744 791.597925133 657.891478223 798.324836456 642.437087154 c 0
 800.587185607 636.736796356 801.687038182 630.67668632 801.687038182 624.623299761 c 0
 801.687038182 606.288269851 791.596811912 588.014922219 773.157080263 579.988566533 c 0
 767.154041088 577.375593171 760.942415588 576.184154912 754.837248085 576.184154912 c 0
 736.003946246 576.184154912 718.183706473 587.521968381 710.624752016 603.443031461 c 0
 709.374195281 605.566393293 687.42495096 648 583 648 c 0
 504.734058451 648 311.816764872 591.401737716 209.077002961 386.432366912 c 1
EndSplineSet
EndChar

StartChar: seven
Encoding: 55 55 23
Width: 840
VWidth: 0
Flags: HW
LayerCount: 2
Fore
SplineSet
215 688 m 0
 215 714.144471708 236.853633925 736 263 736 c 2
 823 736 l 2
 849.354847908 736 870.996663789 713.865582227 870.996663789 687.910164833 c 0
 870.996663789 680.907348394 869.717737394 675.362360091 867.352807956 669.647113949 c 2
 843.352807956 611.647113949 l 2
 838.191579216 599.174144493 826.333399267 589.155810217 816.234228395 585.199692654 c 0
 811.371017214 583.365438598 431.157393814 437.079784526 275.158718478 61.1793620297 c 1
 260.975552075 28.7606959671 l 2
 253.163015269 10.9034689802 235.177846979 0.0987750513938 216.604333092 0.0987750513938 c 0
 210.264619737 0.0987750513938 203.856360148 1.35759484544 197.760695967 4.02444792469 c 0
 179.902429075 11.8374396898 169.098845865 29.8228941605 169.098845865 48.3957208416 c 0
 169.098845865 54.7355539456 170.357676954 61.1438275277 173.024447925 67.2393040329 c 2
 186.827012233 98.7880224516 l 1
 316.187795013 408.988674487 576.371465639 573.640019462 705.741228208 640 c 1
 263 640 l 2
 236.853633925 640 215 661.855528292 215 688 c 0
EndSplineSet
EndChar

StartChar: eight
Encoding: 56 56 24
Width: 840
VWidth: 0
Flags: HW
LayerCount: 2
Fore
SplineSet
519.586821437 427.688227189 m 1
 556.594886469 443.681924708 682.364988684 510.827577369 703.62543815 562.300244497 c 0
 706.656548436 569.661512334 707.628527358 575.500481714 707.634812832 580.29000143 c 0
 707.634812832 601.240188563 669.504997168 648 556 648 c 0
 418.2183355 648 305.599594601 580.594477912 282.364030787 525.674615092 c 0
 278.583110191 516.283353801 277.536547236 509.88114633 277.536547236 503.754447548 c 0
 277.536547236 489.7641587 283.853455628 474.847386917 311.530635396 459.578742996 c 0
 337.692198182 445.14621808 381.435075556 434 440 434 c 0
 468.964530247 434 495.485898884 431.846856713 519.586821437 427.688227189 c 1
324.706987991 351.949176737 m 1
 291.008601021 341.547215152 165.108438031 291.719337665 131.391959269 209.742016752 c 0
 126.932261286 198.944853215 124.507999891 188.166321369 124.507999891 177.694268302 c 0
 124.507999891 149.00473696 142.703445027 122.61550121 187.089525937 104.445402381 c 0
 211.092291825 94.6195150885 243.361303139 88 284 88 c 0
 448.726441008 88 560.110689725 168.410859647 587.706721743 234.496094217 c 0
 592.385537743 245.642685275 595.139207652 256.19610914 595.139207652 266.091053428 c 0
 595.139207652 287.784671247 581.903439782 306.313246365 546.700966279 320.988520499 c 0
 523.221935534 330.77650351 488.144636385 338 440 338 c 0
 397.637759504 338 358.771700164 342.782761618 324.706987991 351.949176737 c 1
635.862245345 378.473158839 m 1
 673.304737233 346.982892229 689.749990223 305.089981277 689.749990223 263.205267057 c 0
 689.749990223 240.75438483 685.025050537 218.305857633 676.276197727 197.46300241 c 0
 627.904133265 81.6246375125 475.268135133 -8 284 -8 c 0
 233.105850146 -8 188.459735454 0.15207636551 150.719929241 15.6014243286 c 0
 74.198789542 46.9264848515 29.2278348093 110.838464881 29.2278348093 180.534617459 c 0
 29.2278348093 202.163461036 33.5587641498 224.349349548 42.6217212144 246.291245599 c 0
 78.3383641083 333.131710674 158.640483214 383.579053129 217.646705137 412.350554708 c 1
 194.101893733 438.355523998 181.995339173 470.809846197 181.995339173 504.671963653 c 0
 181.995339173 523.74102786 185.834630803 543.256539198 193.632562239 562.318149373 c 0
 240.724731412 675.339355389 397.539585245 744 556 744 c 0
 677.748791289 744 803.634948208 693.404646843 803.634948208 580.392862664 c 0
 803.610517479 561.799407653 799.679534929 543.44040441 792.384548727 525.724009348 c 0
 763.410781697 455.576994434 690.659348575 409.46276087 635.862245345 378.473158839 c 1
EndSplineSet
EndChar

StartChar: nine
Encoding: 57 57 25
Width: 840
VWidth: 0
Flags: HW
LayerCount: 2
Fore
SplineSet
677.750740526 550.604550267 m 1
 664.693323128 622.469804626 595.337933218 648 528 648 c 0
 380.439640251 648 270.017319087 562.938836448 242.351474366 495.643538479 c 0
 237.538947967 484.093475122 235.755727659 474.484855617 235.755727659 465.566131131 c 0
 235.755727659 430.278397364 274.637665207 380 388 380 c 0
 524.701781913 380 630.632856632 436.175403666 677.750740526 550.604550267 c 1
630.922997039 349.567633088 m 1
 561.043100677 304.596012904 476.562878572 284 388 284 c 0
 253.218148962 284 139.755367781 351.397559845 139.755367781 465.423791689 c 0
 139.755367781 488.116170446 144.627578905 510.706189371 153.648525634 532.356461521 c 0
 199.982680913 645.061163552 347.560359749 744 528 744 c 0
 619.604659729 744 776.164471761 698.446875326 776.164471761 521.856054604 c 0
 776.158367314 498.709744511 773.417029247 474.155671498 767.782623756 447.860741981 c 0
 761.283174028 417.528780117 750.947303148 384.939253789 736.356869939 349.656933484 c 0
 621.594934631 71.4133733502 373.905686664 -8 257 -8 c 0
 97.9000301203 -8 48.4020748669 78.1085217774 41.6751635444 93.5629128456 c 0
 39.4128143926 99.2632036439 38.3129618179 105.32331368 38.3129618179 111.376700239 c 0
 38.3129618179 129.711730149 48.4031880876 147.985077781 66.842919737 156.011433467 c 0
 72.8459589116 158.624406829 79.0575844116 159.815845088 85.1627519154 159.815845088 c 0
 103.996053754 159.815845088 121.816293527 148.478031619 129.375247984 132.556968539 c 0
 130.625804719 130.433606707 152.57504904 88 257 88 c 0
 335.265941549 88 528.183235128 144.598262284 630.922997039 349.567633088 c 1
EndSplineSet
EndChar

StartChar: colon
Encoding: 58 58 26
Width: 360
VWidth: 0
Flags: HW
HStem: 48 48<152.382 207.618> 432 48<152.382 207.618>
VStem: 150 60<49.9059 94.0941 433.906 478.094>
LayerCount: 2
Fore
SplineSet
293.975552075 444.760695967 m 0
 276.959303384 405.866413245 236.586833929 384 197 384 c 0
 169.744036226 384 133.863741682 406.934469978 133.863741682 442.963256561 c 0
 133.863741682 449.809801242 135.159427251 457.12919926 138.056199477 464.853925196 c 0
 138.34335048 465.619661205 138.781626511 466.68428366 139.024447925 467.239304033 c 0
 156.040696616 506.133586755 196.413166071 528 236 528 c 0
 263.255963774 528 299.136258318 505.065530022 299.136258318 469.036743439 c 0
 299.136258318 462.190198758 297.840572749 454.87080074 294.943800523 447.146074804 c 0
 294.65664952 446.380338795 294.218373489 445.31571634 293.975552075 444.760695967 c 0
134.975552075 60.7606959671 m 0
 117.543174969 20.9152625817 75.8700715587 0 37 0 c 0
 6.55478884282 0 -24.8943347448 25.7837283305 -24.8943347448 59.8097216839 c 0
 -24.8943347448 66.5467251764 -23.6614557127 73.6068446913 -20.9438005233 80.8539251962 c 0
 -20.6566495202 81.6196612047 -20.2183734887 82.6842836596 -19.9755520753 83.2393040329 c 0
 -2.95930338431 122.133586755 37.4131660707 144 77 144 c 0
 104.255963774 144 140.136258318 121.065530022 140.136258318 85.036743439 c 0
 140.136258318 78.1901987585 138.840572749 70.8708007397 135.943800523 63.1460748038 c 0
 135.65664952 62.3803387953 135.218373489 61.3157163404 134.975552075 60.7606959671 c 0
EndSplineSet
EndChar

StartChar: semicolon
Encoding: 59 59 27
Width: 370
VWidth: 0
Flags: HW
HStem: 432 48<152.382 207.618>
VStem: 150 60<433.906 478.094>
LayerCount: 2
Fore
SplineSet
-1.28583165189 12.5691587052 m 1
 -15.2972963696 24.5256085977 -24.2794294971 43.3554644507 -24.2794294971 62.0013227784 c 0
 -24.2794294971 68.4023853481 -23.2208612268 74.7817633202 -20.9438005233 80.8539251962 c 0
 -20.6566495202 81.6196612047 -20.2183734887 82.6842836596 -19.9755520753 83.2393040329 c 0
 -2.95930338431 122.133586755 37.4131660707 144 77 144 c 0
 85.7841971727 144 94.125197311 142.495890089 102.938741035 139.00921345 c 0
 126.460561019 129.703878072 144.058936379 103.511861424 144.058936379 74.1544087916 c 0
 144.058936379 64.7382086073 142.248483588 54.996360612 138.242342548 45.381622115 c 0
 113.711108826 -12.3389278199 39.0761748041 -86.6315838103 36.4956803027 -89.3866006601 c 0
 26.7323073588 -99.1494464143 14.2280505221 -103.926571771 1.84500488018 -103.926571771 c 0
 -9.98315599779 -103.926571771 -21.700725253 -99.5679805865 -30.8133763563 -91.0325895717 c 0
 -40.7713333029 -81.7054403937 -45.8077201429 -68.8338048704 -45.8077201429 -55.9453361885 c 0
 -45.8077201429 -44.1351434052 -41.5787909555 -32.3108162359 -33.0325895717 -23.1866236437 c 2
 -33.0325895717 -23.1866236437 -18.9369756392 -8.16670105305 -1.28583165189 12.5691587052 c 1
293.975552075 444.760695967 m 0
 276.959303384 405.866413245 236.586833929 384 197 384 c 0
 169.744036226 384 133.863741682 406.934469978 133.863741682 442.963256561 c 0
 133.863741682 449.809801242 135.159427251 457.12919926 138.056199477 464.853925196 c 0
 138.34335048 465.619661205 138.781626511 466.68428366 139.024447925 467.239304033 c 0
 156.040696616 506.133586755 196.413166071 528 236 528 c 0
 263.255963774 528 299.136258318 505.065530022 299.136258318 469.036743439 c 0
 299.136258318 462.190198758 297.840572749 454.87080074 294.943800523 447.146074804 c 0
 294.65664952 446.380338795 294.218373489 445.31571634 293.975552075 444.760695967 c 0
EndSplineSet
EndChar

StartChar: less
Encoding: 60 60 28
Width: 800
VWidth: 0
Flags: HW
LayerCount: 2
Fore
SplineSet
624.2910651 131.2663635 m 0
 616.12032706 114.206165093 598.601868249 104.112283422 580.608069433 104.112283422 c 0
 573.731873873 104.112283422 566.786263032 105.586322264 560.2663635 108.7089349 c 2
 109.2663635 324.7089349 l 2
 103.380045323 327.528102808 98.3230478889 331.460091024 94.2238371325 336.140466055 c 0
 90.0460854133 340.754554179 86.7229910189 346.234442623 84.6021917679 352.410291609 c 0
 82.525185177 358.458611728 81.7681412968 364.688691303 82.1714196129 370.774038892 c 0
 82.4743745026 376.865208104 83.9466047722 382.96599358 86.7089349001 388.7336365 c 0
 89.5295472101 394.622970536 93.4639635068 399.681989927 98.147224674 403.782180436 c 0
 102.760008782 407.957175425 108.237608124 411.278091815 114.410291609 413.397808232 c 2
 743.410291609 629.397808232 l 2
 748.419816488 631.118090226 753.554028189 631.932879005 758.627421076 631.932879005 c 0
 778.598215531 631.932879005 797.626617879 619.307665483 804.397808232 599.589708391 c 0
 806.118032496 594.580351622 806.932817136 589.44617652 806.932817136 584.37273971 c 0
 806.932817136 564.402746468 794.308899345 545.373805831 774.589708391 538.602191768 c 2
 256.435239712 360.666793939 l 1
 601.7336365 195.2910651 l 2
 618.79479466 187.1198674 628.887644781 169.601214108 628.887644781 151.608066282 c 0
 628.887644781 144.731716618 627.413583858 137.786067018 624.2910651 131.2663635 c 0
EndSplineSet
EndChar

StartChar: equal
Encoding: 61 61 29
Width: 800
VWidth: 0
Flags: HW
AnchorPoint: "middle" 400 368 basechar 0
LayerCount: 2
Fore
SplineSet
32 248 m 0
 32 274.144471708 53.8536339246 296 80 296 c 2
 620 296 l 2
 646.144471708 296 668 274.146366075 668 248 c 0
 668 221.853633925 646.144471708 200 620 200 c 2
 80 200 l 2
 53.8536339246 200 32 221.855528292 32 248 c 0
132 488 m 0
 132 514.144471708 153.853633925 536 180 536 c 2
 720 536 l 2
 746.144471708 536 768 514.146366075 768 488 c 0
 768 461.853633925 746.144471708 440 720 440 c 2
 180 440 l 2
 153.853633925 440 132 461.855528292 132 488 c 0
EndSplineSet
EndChar

StartChar: greater
Encoding: 62 62 30
Width: 800
VWidth: 0
Flags: HW
LayerCount: 2
Fore
SplineSet
-4.39780823205 136.410291609 m 0
 -6.11803249609 141.419648378 -6.93281713583 146.55382348 -6.93281713583 151.62726029 c 0
 -6.93281713583 171.597253532 5.69110065527 190.626194169 25.4102916087 197.397808232 c 2
 543.564760288 375.333206061 l 1
 198.2663635 540.7089349 l 2
 181.20520534 548.8801326 171.112355219 566.398785892 171.112355219 584.391933718 c 0
 171.112355219 591.268283382 172.586416142 598.213932982 175.7089349 604.7336365 c 0
 183.87967294 621.793834907 201.398131751 631.887716578 219.391930567 631.887716578 c 0
 226.268126127 631.887716578 233.213736968 630.413677736 239.7336365 627.2910651 c 2
 690.7336365 411.2910651 l 2
 696.619954677 408.471897192 701.676952111 404.539908976 705.776162868 399.859533945 c 0
 709.953914587 395.245445821 713.277008981 389.765557377 715.397808232 383.589708391 c 0
 717.474814823 377.541388272 718.231858703 371.311308697 717.828580387 365.225961108 c 0
 717.525625497 359.134791896 716.053395228 353.03400642 713.2910651 347.2663635 c 0
 710.47045279 341.377029464 706.536036493 336.318010073 701.852775326 332.217819564 c 0
 697.239991218 328.042824575 691.762391876 324.721908185 685.589708391 322.602191768 c 2
 56.5897083913 106.602191768 l 2
 51.5801835116 104.881909774 46.445971811 104.067120995 41.3725789244 104.067120995 c 0
 21.4017844691 104.067120995 2.37338212061 116.692334517 -4.39780823205 136.410291609 c 0
EndSplineSet
EndChar

StartChar: question
Encoding: 63 63 31
Width: 800
VWidth: 0
Flags: HW
HStem: 48 48<352.382 407.618>
VStem: 350 60<49.9059 94.0941>
LayerCount: 2
Fore
SplineSet
334.975552075 60.7606959671 m 0
 317.543174969 20.9152625817 275.870071559 0 237 0 c 0
 206.554788843 0 175.105665255 25.7837283305 175.105665255 59.8097216839 c 0
 175.105665255 66.5467251764 176.338544287 73.6068446913 179.056199477 80.8539251962 c 0
 179.34335048 81.6196612047 179.781626511 82.6842836596 180.024447925 83.2393040329 c 0
 197.040696616 122.133586755 237.413166071 144 277 144 c 0
 304.255963774 144 340.136258318 121.065530022 340.136258318 85.036743439 c 0
 340.136258318 78.1901987585 338.840572749 70.8708007397 335.943800523 63.1460748038 c 0
 335.65664952 62.3803387953 335.218373489 61.3157163404 334.975552075 60.7606959671 c 0
191.744878572 491.6068638 m 0
 173.373703464 499.161365714 162.089976939 517.441391985 162.089976939 536.393774291 c 0
 162.089976939 542.386266993 163.218057104 548.44597787 165.6068638 554.255121428 c 0
 220.601219879 687.991396439 371.503267666 744 516 744 c 0
 572.945325968 744 622.78446231 737.067913231 664.00722794 720.357677824 c 0
 718.386870994 698.314114687 755.782402069 652.782547367 755.782402069 596.636845326 c 0
 755.782402069 579.226242041 752.186446543 560.794983205 744.385889018 541.7269537 c 0
 707.392416323 452.432364434 631.769924972 414.40669135 540.391377722 379.261096254 c 0
 434.512645641 337.66588008 410.618108315 316.61434699 371.358002352 221.659672104 c 0
 363.78048056 203.332642653 345.52558813 192.090733322 326.605929445 192.090733322 c 0
 320.583556109 192.090733322 314.49382655 193.229799175 308.659672104 195.641997648 c 0
 290.331554578 203.219969317 279.090802741 221.475206497 279.090802741 240.394153462 c 0
 279.090802741 246.416626651 280.22987478 252.506356307 282.641997648 258.340327896 c 0
 329.381891685 371.38565301 387.487354359 422.33411992 505.608622278 468.738903746 c 0
 596.230075028 503.59330865 634.607583677 527.567635566 655.614110982 578.2730463 c 0
 659.532545495 587.851441776 661.834775381 595.282886992 661.834775381 601.47709358 c 0
 661.834775381 613.998862968 652.426528215 621.464557423 627.942682328 631.389433209 c 0
 603.674796471 641.226766521 564.850128577 648 516 648 c 0
 390.496732334 648 287.398780121 598.008603561 254.3931362 517.744878572 c 0
 246.838184979 499.372610831 228.55780828 488.090046197 209.606140131 488.090046197 c 0
 203.613549427 488.090046197 197.553839725 489.218132111 191.744878572 491.6068638 c 0
EndSplineSet
EndChar

StartChar: at
Encoding: 64 64 32
Width: 1100
VWidth: 0
Flags: HW
LayerCount: 2
Fore
SplineSet
645.611017967 84.9544321202 m 0
 647.189520899 80.1399981773 647.937964741 75.222923765 647.937964741 70.3645135228 c 0
 647.937964741 50.1527496754 634.984698769 30.9562825737 614.95443212 24.3889820333 c 0
 549.160501398 2.81720146857 481.157901802 -8 414 -8 c 0
 350.095392366 -8 292.238730838 2.72077494188 242.456827563 23.2529429973 c 0
 134.771193941 67.6670650227 70.5937858441 158.886979209 70.5937858441 266.794917434 c 0
 70.5937858441 305.007861055 78.6419415746 345.313563175 95.6561514046 386.374522899 c 0
 180.181131084 590.361473858 442.468808001 744 686 744 c 0
 749.904607634 744 807.761269162 733.279225058 857.543172437 712.747057003 c 0
 965.214857232 668.338688065 1029.40464082 577.172894169 1029.40464082 469.243157094 c 0
 1029.40464082 431.003598432 1021.34697196 390.659681485 1004.31065264 349.545364202 c 0
 985.614938547 304.883380529 961.119392403 253.349452785 911.685501171 209.944084874 c 0
 866.437378031 170.180582721 801.479145533 152 750 152 c 0
 722.884355626 152 697.092014109 156.773410274 674.144186492 166.452054288 c 0
 658.113227426 173.213389112 641.682958919 183.026605361 628.828803483 197.318682158 c 1
 583.780543011 166.555765462 470.176897516 141.204982246 462.806176589 141.204982246 c 0
 462.062350119 141.204982246 462.400412039 141.463157554 464 142 c 1
 368.52303182 142 299.984057921 208.994708908 299.984057921 299.172740472 c 0
 299.984057921 327.776888108 306.40990087 357.10372087 318.719090607 386.525686583 c 0
 366.919940869 501.737475013 492.272951342 594 612 594 c 0
 656.091951926 594 694.239538971 579.791504767 722.537357824 555.673293124 c 1
 723.653242195 558.367500434 l 2
 731.238078159 576.680437717 749.48493964 587.909025223 768.394159823 587.909025223 c 0
 774.426069185 587.909025223 780.525377883 586.766442891 786.367500434 584.346757805 c 0
 804.681524338 576.761471785 815.908955753 558.51426736 815.908955753 539.605758124 c 0
 815.908955753 533.573748318 814.766367096 527.474439115 812.346757805 521.632499566 c 2
 703.587063452 259.041525814 l 1
 710.684970506 254.32998275 728.520428993 248 750 248 c 0
 778.520854467 248 827.562621969 263.819417279 848.314498829 282.055915126 c 0
 880.880607597 310.650547215 898.385061453 345.116619471 915.689347358 386.454635798 c 0
 928.507455524 417.389003507 934.637218777 446.300606878 934.637218777 472.81276366 c 0
 934.637218777 541.49346088 893.501132207 594.071767431 820.939771824 623.999149627 c 0
 784.584862352 638.993456028 739.179729715 648 686 648 c 0
 477.531191999 648 249.818868916 507.638526142 184.343848595 349.625477101 c 0
 171.502829926 318.635818712 165.363257459 289.687364083 165.363257459 263.151271436 c 0
 165.363257459 194.452975505 206.511956503 141.92283423 279.060228176 112.000850373 c 0
 315.415137648 97.0065439723 360.820270285 88 414 88 c 0
 470.842098198 88 528.839498602 97.1827985314 585.04556788 115.611017967 c 0
 589.860166366 117.189574848 594.777284432 117.938024259 599.635662374 117.938024259 c 0
 619.848251506 117.938024259 639.044132822 104.983431813 645.611017967 84.9544321202 c 0
678.404167033 449.117481125 m 1
 674.530816412 479.46991355 656.081341453 498 612 498 c 0
 539.727048658 498 441.080059131 430.262524987 407.280909393 349.474313417 c 0
 399.180681516 330.112793127 395.998724868 313.189833432 395.983993155 299.110931508 c 0
 395.983993155 261.290116587 415.257115327 238 464 238 c 0
 514.458762868 238 579.401586708 270.443939207 625.177272666 320.60570013 c 1
 678.404167033 449.117481125 l 1
EndSplineSet
EndChar

StartChar: A
Encoding: 65 65 33
Width: 860
VWidth: 0
Flags: HW
AnchorPoint: "above" 602 784 basechar 0
LayerCount: 2
Fore
SplineSet
-43.9872505047 11.3422544861 m 0
 -55.0851970365 20.7234874138 -60.8126623709 34.4054611634 -60.8126623709 48.1378681623 c 0
 -60.8126623709 59.1118017216 -57.1550827474 70.1179421323 -49.6577455139 78.9872505047 c 2
 491.342254486 718.987250505 l 2
 500.483753039 729.801592601 514.662821173 736 528 736 c 2
 580 736 l 1
 598 736 l 2
 625.506877479 736 645.67445979 711.487009359 645.99525461 688.674933268 c 2
 654.99525461 48.674933268 l 2
 655.362874896 22.5330462624 633.818714454 0.372392312871 607.674933268 0.00474538994705 c 0
 607.454894197 0.00165109051303 607.235137413 0.000109103295269 607.015673532 0.000109103295269 c 0
 581.159696969 0.000109103295269 559.369271601 21.403202855 559.00474539 47.325066732 c 2
 557.645254141 144 l 1
 131.001655706 144 l 1
 23.6577455139 17.0127494953 l 2
 14.2761310081 5.91435155867 0.594357697008 0.187365119129 -13.1375567915 0.187365119129 c 0
 -24.111881955 0.187365119129 -35.1182320342 3.84516231033 -43.9872505047 11.3422544861 c 0
212.151655706 240 m 1
 556.295254141 240 l 1
 550.663813439 640.458005451 l 1
 212.151655706 240 l 1
EndSplineSet
EndChar

StartChar: B
Encoding: 66 66 34
Width: 870
VWidth: 0
Flags: HW
AnchorPoint: "above" 607 784 basechar 0
LayerCount: 2
Fore
SplineSet
260.243289721 436 m 1
 508 436 l 2
 532.293118336 436 556.239228945 439.406725585 578.952023164 445.570102515 c 0
 652.111015992 465.422633395 708.108508555 513.83494226 725.626947147 556.303884302 c 0
 730.223547378 567.447157589 731.93869928 576.945652263 731.944949188 584.751568306 c 0
 731.944949188 607.523699404 715.782031418 640 633 640 c 2
 345.030789721 640 l 1
 260.243289721 436 l 1
677.184941262 381.247272585 m 1
 705.755890567 350.807860573 717.765644285 313.073975129 717.765644285 275.221509777 c 0
 717.765644285 249.336946228 712.149639704 223.396932308 702.373052853 199.696115698 c 0
 661.650812011 100.975531839 538.414791307 0 387 0 c 2
 47 0 l 2
 42.6223896534 0 36.8727665911 0.814036806133 32.1121333558 2.36721105626 c 0
 11.9174764596 8.95579277033 -0.906302556971 28.2652015758 -0.906302556971 48.4295897637 c 0
 -0.906302556971 54.4563503854 0.239246811973 60.5594863947 2.67593312117 66.4221902965 c 2
 151.989064434 425.671829546 l 1
 268.675933121 706.422190297 l 2
 275.408664277 722.621242702 293.201132759 736 313 736 c 2
 633 736 l 2
 741.727129857 736 827.944964021 679.330800894 827.944964021 584.770044406 c 0
 827.927326196 562.744064822 823.113560492 540.885225127 814.373052853 519.696115698 c 0
 790.349603698 461.457451081 739.240909207 413.34518704 677.184941262 381.247272585 c 1
220.343289721 340 m 1
 118.930789721 96 l 1
 387 96 l 2
 495.585208693 96 588.349187989 175.024468161 613.626947147 236.303884302 c 0
 619.310369134 250.081876997 621.929120919 263.326800284 621.929120919 275.304349395 c 0
 621.929120919 307.130960015 607.379430165 340 528 340 c 0
 526.431737457 340 524.407831605 340.121546232 522.610893814 340.298529157 c 0
 517.762007235 340.101623618 512.865499741 340 508 340 c 2
 220.343289721 340 l 1
EndSplineSet
EndChar

StartChar: C
Encoding: 67 67 35
Width: 855
VWidth: 0
Flags: HW
AnchorPoint: "bottom" 324 40 basechar 0
AnchorPoint: "above" 632 784 basechar 0
LayerCount: 2
Fore
SplineSet
653.461538462 244.307692308 m 0
 671.725653666 236.697644306 682.90818872 218.478634754 682.90818872 199.605550749 c 0
 682.90818872 193.540613 681.753387544 187.408130106 679.307692308 181.538461538 c 0
 659.166303576 133.199128584 517.031302283 -8 324 -8 c 0
 284.549991114 -8 247.873427918 -1.1711954332 215.22969299 12.3175983558 c 0
 121.934501236 50.8683219737 74.2734071786 136.729768971 74.2734071786 237.898315407 c 0
 74.2734071786 285.138939527 84.6655292668 335.717154806 105.656151405 386.374522899 c 0
 187.457660351 583.788831155 400.363661529 744 596 744 c 0
 800.229041583 744 818.991192062 588.365350964 818.991192062 576.736605894 c 0
 818.991192062 550.031845304 798.466920213 529.170457351 773.125731924 528.047093271 c 0
 772.397208078 528.014798119 771.671237421 527.9987793 770.948217434 527.9987793 c 0
 746.32749401 527.9987793 725.128310394 546.573893724 723.045902383 573.555715112 c 0
 722.863418841 575.398581276 723.382794986 648 596 648 c 0
 449.636338471 648 262.542339649 514.211168845 194.343848595 349.625477101 c 0
 176.755870614 307.179823573 168.961227572 269.253789732 168.961227572 236.356826312 c 0
 168.961227572 168.047389507 202.569486688 121.421858032 251.89146528 101.041408309 c 0
 271.617427358 92.8903975455 295.568064441 88 324 88 c 0
 459.048274318 88 574.866152776 196.214956019 591.732955223 220.792063045 c 0
 599.725419841 236.914064064 617.186640719 247.869373 635.6676588 247.869373 c 0
 641.586870872 247.869373 647.610696951 246.745542937 653.461538462 244.307692308 c 0
EndSplineSet
EndChar

StartChar: D
Encoding: 68 68 36
Width: 870
VWidth: 0
Flags: HW
HStem: 48 21G<180 480> 668 20G<180 480>
VStem: 180 540<226.215 509.777>
AnchorPoint: "above" 607 784 basechar 0
LayerCount: 2
Fore
SplineSet
2.67593312117 66.4221902965 m 2
 268.675933121 706.422190297 l 2
 276.274651871 724.704821874 295.457509651 736 313 736 c 2
 573 736 l 2
 600.474391027 736 633.21098548 730.622354812 666.667656163 716.88224288 c 0
 737.680968444 687.718227469 800.145394357 619.887316702 800.145394357 509.1605441 c 0
 800.145394357 463.408994565 789.480929071 410.333893701 764.348585788 349.636913697 c 0
 649.481334185 72.2216645419 404.271446067 0 307 0 c 2
 47 0 l 2
 20.6451520917 0 -0.996663788571 22.1344177733 -0.996663788571 48.0898351674 c 0
 -0.996663788571 54.1772382522 2.53718634644 65.845794843 2.67593312117 66.4221902965 c 2
118.930789721 96 m 1
 307 96 l 2
 369.728553933 96 578.518665815 151.778335458 675.651414212 386.363086303 c 0
 697.952756077 440.222930809 706.778124243 482.071450507 706.778124243 514.79185811 c 0
 706.778124243 585.415385437 665.663698261 613.514104499 630.197764291 628.07938827 c 0
 609.520000814 636.571410305 587.492822087 640 573 640 c 2
 345.030789721 640 l 1
 118.930789721 96 l 1
EndSplineSet
EndChar

StartChar: E
Encoding: 69 69 37
Width: 870
VWidth: 0
Flags: HW
AnchorPoint: "bottom" 302 48 basechar 0
AnchorPoint: "above" 607 784 basechar 0
LayerCount: 2
Fore
SplineSet
881 688 m 0
 881 661.855528292 859.146366075 640 833 640 c 2
 345.030789721 640 l 1
 260.243289721 436 l 1
 548 436 l 2
 574.144471708 436 596 414.146366075 596 388 c 0
 596 361.853633925 574.144471708 340 548 340 c 2
 220.343289721 340 l 1
 118.930789721 96 l 1
 587 96 l 2
 613.144471708 96 635 74.1463660754 635 48 c 0
 635 21.8536339246 613.144471708 0 587 0 c 2
 47 0 l 2
 42.6223896534 0 36.8727665911 0.814036806133 32.1121333558 2.36721105626 c 0
 11.9174764596 8.95579277033 -0.906302556971 28.2652015758 -0.906302556971 48.4295897637 c 0
 -0.906302556971 54.4563503854 0.239246811973 60.5594863947 2.67593312117 66.4221902965 c 2
 268.675933121 706.422190297 l 2
 275.408664277 722.621242702 293.201132759 736 313 736 c 2
 833 736 l 2
 859.146366075 736 881 714.144471708 881 688 c 0
EndSplineSet
EndChar

StartChar: F
Encoding: 70 70 38
Width: 830
VWidth: 0
Flags: HW
AnchorPoint: "above" 587 784 basechar 0
LayerCount: 2
Fore
SplineSet
28.5778097035 3.67593312117 m 0
 10.2932561016 11.2754507119 -0.908538900677 29.5061253644 -0.908538900677 48.3943318345 c 0
 -0.908538900677 54.4454445873 0.24114028437 60.5640421177 2.67593312117 66.4221902965 c 2
 268.675933121 706.422190297 l 2
 276.274651871 724.704821874 295.457509651 736 313 736 c 2
 813 736 l 2
 839.144471708 736 861 714.146366075 861 688 c 0
 861 661.853633925 839.144471708 640 813 640 c 2
 345.030789721 640 l 1
 260.243289721 436 l 1
 558 436 l 2
 584.144471708 436 606 414.146366075 606 388 c 0
 606 361.853633925 584.144471708 340 558 340 c 2
 220.343289721 340 l 1
 91.3240668788 29.5778097035 l 2
 83.7240988776 11.2921724073 65.4930849095 0.091530669426 46.6055878369 0.091530669426 c 0
 40.5543734479 0.091530669426 34.4357745895 1.24121646542 28.5778097035 3.67593312117 c 0
EndSplineSet
EndChar

StartChar: G
Encoding: 71 71 39
Width: 840
VWidth: 0
Flags: HW
AnchorPoint: "above" 632 784 basechar 0
LayerCount: 2
Fore
SplineSet
773.125731924 528.047093271 m 0
 772.410908261 528.015405442 771.699906908 527.99973483 770.99299706 527.99973483 c 0
 745.267216108 527.99973483 724.960099232 548.753410669 723.045902383 573.555715112 c 0
 722.804274589 575.995867684 722.933415233 648 596 648 c 0
 449.636548226 648 262.542437556 514.211405126 194.343848595 349.625477101 c 0
 177.132782177 308.089436812 169.622385932 269.952569907 169.62023833 237.092876928 c 0
 169.62023833 145.880275434 222.268037538 88 324 88 c 0
 439.253611249 88 534.490097695 158.349468195 560.850080498 180.567752086 c 1
 608.345640838 296 l 1
 470 296 l 2
 443.855528292 296 422 317.853633925 422 344 c 0
 422 370.146366075 443.855528292 392 470 392 c 2
 680 392 l 2
 683.978887055 392 690.034548831 391.197436196 694.72540399 389.685473373 c 0
 714.999915047 383.150565361 727.907828865 363.797291503 727.907828865 343.571684151 c 0
 727.907828865 337.599886345 726.78254238 331.552040226 724.389335254 325.735638098 c 2
 645.389335254 133.735638098 l 2
 643.111086951 128.198629563 638.970401519 121.890116381 634.15432825 117.289907545 c 0
 631.637374789 114.885768133 505.947682607 -8 324 -8 c 0
 173.118535933 -8 73.6202386259 96.4139955392 73.6202386259 237.097409768 c 0
 73.6233360755 284.49149368 84.3131119652 334.866654385 105.656151405 386.374522899 c 0
 187.457562444 583.788594874 400.363451774 744 596 744 c 0
 799.308256513 744 818.990807922 589.651380542 818.990807922 576.802373134 c 0
 818.990807922 552.295315624 799.655666832 529.223153982 773.125731924 528.047093271 c 0
EndSplineSet
EndChar

StartChar: H
Encoding: 72 72 40
Width: 890
VWidth: 0
Flags: HW
AnchorPoint: "above" 617 784 basechar 0
LayerCount: 2
Fore
SplineSet
861.422190297 732.324066879 m 0
 879.706743898 724.724549288 890.908538901 706.493874636 890.908538901 687.605668165 c 0
 890.908538901 681.554555413 889.758859716 675.435957882 887.324066879 669.577809703 c 2
 621.324066879 29.5778097035 l 2
 613.724549288 11.2932561016 595.493874636 0.0914610993229 576.605668165 0.0914610993229 c 0
 570.554555413 0.0914610993229 564.435957882 1.24114028437 558.577809703 3.67593312117 c 0
 540.292172407 11.2759011224 529.091530669 29.5069150905 529.091530669 48.3944121631 c 0
 529.091530669 54.4456265521 530.241216465 60.5642254105 532.675933121 66.4221902965 c 2
 646.381710279 340 l 1
 220.343289721 340 l 1
 91.3240668788 29.5778097035 l 2
 83.7240988776 11.2921724073 65.4930849095 0.091530669426 46.6055878369 0.091530669426 c 0
 40.5543734479 0.091530669426 34.4357745895 1.24121646542 28.5778097035 3.67593312117 c 0
 10.2932561016 11.2754507119 -0.908538900677 29.5061253644 -0.908538900677 48.3943318345 c 0
 -0.908538900677 54.4454445873 0.24114028437 60.5640421177 2.67593312117 66.4221902965 c 2
 268.675933121 706.422190297 l 2
 276.275450712 724.706743898 294.506125364 735.908538901 313.394331835 735.908538901 c 0
 319.445444587 735.908538901 325.564042118 734.758859716 331.422190297 732.324066879 c 0
 349.707827593 724.724098878 360.908469331 706.493084909 360.908469331 687.605587837 c 0
 360.908469331 681.554373448 359.758783535 675.43577459 357.324066879 669.577809703 c 2
 260.243289721 436 l 1
 686.281710279 436 l 1
 798.675933121 706.422190297 l 2
 806.275901122 724.707827593 824.506915091 735.908469331 843.394412163 735.908469331 c 0
 849.445626552 735.908469331 855.56422541 734.758783535 861.422190297 732.324066879 c 0
EndSplineSet
EndChar

StartChar: I
Encoding: 73 73 41
Width: 420
VWidth: 0
Flags: HW
AnchorPoint: "above" 382 784 basechar 0
LayerCount: 2
Fore
SplineSet
361.422190297 732.324066879 m 0
 379.706743898 724.724549288 390.908538901 706.493874636 390.908538901 687.605668165 c 0
 390.908538901 681.554555413 389.758859716 675.435957882 387.324066879 669.577809703 c 2
 121.324066879 29.5778097035 l 2
 113.724549288 11.2932561016 95.4938746356 0.0914610993227 76.6056681655 0.0914610993227 c 0
 70.5545554127 0.0914610993227 64.4359578823 1.24114028437 58.5778097035 3.67593312117 c 0
 40.2921724073 11.2759011224 29.0915306694 29.5069150905 29.0915306694 48.3944121631 c 0
 29.0915306694 54.4456265521 30.2412164654 60.5642254105 32.6759331212 66.4221902965 c 2
 298.675933121 706.422190297 l 2
 306.275901122 724.707827593 324.506915091 735.908469331 343.394412163 735.908469331 c 0
 349.445626552 735.908469331 355.56422541 734.758783535 361.422190297 732.324066879 c 0
EndSplineSet
EndChar

StartChar: J
Encoding: 74 74 42
Width: 680
VWidth: 0
Flags: HW
AnchorPoint: "above" 512 784 basechar 0
LayerCount: 2
Fore
SplineSet
102.657624259 324.225479726 m 0
 120.8196765 316.563363937 131.906440279 298.402723059 131.906440279 279.605045087 c 0
 131.906440279 273.471104686 130.725914466 267.269332161 128.225479726 261.342375741 c 2
 101.300999882 197.521386481 l 2
 94.3968574393 180.778841057 91.5252674712 165.490120277 91.5252674712 153.045163341 c 0
 91.5252674712 116.408951795 113.14152161 88 174 88 c 0
 254.363956066 88 363.544660483 164.847703053 402.692471639 258.462034078 c 2
 588.668922448 706.405313448 l 2
 596.263915045 724.698628949 614.499588104 735.908689025 633.394279846 735.908689025 c 0
 639.439465111 735.908689025 645.552108978 734.761202622 651.405313448 732.331077552 c 0
 669.699713547 724.735634653 680.908619485 706.49962116 680.908619485 687.605639293 c 0
 680.908619485 681.56035276 679.76112656 675.447707819 677.331077552 669.594686552 c 2
 491.307528361 221.537965922 l 2
 438.455339517 95.1522969468 303.636043934 -8 174 -8 c 0
 72.847196004 -8 -4.47469968751 57.6375888343 -4.47469968751 153.073793921 c 0
 -4.47469968751 180.006427164 1.32315154512 206.89218073 12.6990001178 234.478613519 c 2
 39.774520274 298.657624259 l 2
 47.4370879282 316.820747588 65.5980526037 327.906370301 84.3950277553 327.906370301 c 0
 90.5290749552 327.906370301 96.7308523868 326.72583661 102.657624259 324.225479726 c 0
EndSplineSet
EndChar

StartChar: K
Encoding: 75 75 43
Width: 840
VWidth: 0
Flags: HW
AnchorPoint: "above" 592 784 basechar 0
LayerCount: 2
Fore
SplineSet
607.47075236 4.58400873151 m 0
 601.024659923 1.544659448 594.174300945 0.109974698689 587.393193273 0.109974698689 c 0
 569.297618306 0.109974698689 551.695184745 10.3264237866 543.584008732 27.5292476402 c 2
 383.815272045 366.379425448 l 1
 181.554765643 246.674227782 l 1
 91.3240668788 29.5778097035 l 2
 83.7245492881 11.2932561016 65.4938746356 0.0914610993227 46.6056681655 0.0914610993227 c 0
 40.5545554127 0.0914610993227 34.4359578823 1.24114028437 28.5778097035 3.67593312117 c 0
 10.2921724073 11.2759011224 -0.908469330574 29.5069150905 -0.908469330574 48.3944121631 c 0
 -0.908469330574 54.4456265521 0.241216465419 60.5642254105 2.67593312117 66.4221902965 c 2
 268.675933121 706.422190297 l 2
 276.275901122 724.707827593 294.506915091 735.908469331 313.394412163 735.908469331 c 0
 319.445626552 735.908469331 325.56422541 734.758783535 331.422190297 732.324066879 c 0
 349.706743898 724.724549288 360.908538901 706.493874636 360.908538901 687.605668165 c 0
 360.908538901 681.554555413 359.758859716 675.435957882 357.324066879 669.577809703 c 2
 243.044368726 394.619137457 l 1
 808.552597092 729.307680776 l 2
 816.056668037 733.748865621 824.387927574 735.854966721 832.653943526 735.854966721 c 0
 849.173572282 735.854966721 865.432618145 727.443198387 874.307680776 712.447402908 c 0
 878.748735037 704.943552604 880.854900464 696.612187132 880.854900464 688.345927992 c 0
 880.854900464 671.826880297 872.443961878 655.567833717 857.447402908 646.692319224 c 2
 466.795449657 415.490142811 l 1
 630.415991268 68.4707523598 l 2
 633.455432262 62.0244654184 634.890097051 55.1741407078 634.890097051 48.3931809999 c 0
 634.890097051 30.2969490573 624.672602371 12.6947255764 607.47075236 4.58400873151 c 0
EndSplineSet
EndChar

StartChar: L
Encoding: 76 76 44
Width: 820
VWidth: 0
Flags: HW
AnchorPoint: "above" 582 784 basechar 0
LayerCount: 2
Fore
SplineSet
331.422190297 732.324066879 m 0
 349.706743898 724.724549288 360.908538901 706.493874636 360.908538901 687.605668165 c 0
 360.908538901 681.554555413 359.758859716 675.435957882 357.324066879 669.577809703 c 2
 118.930789721 96 l 1
 567 96 l 2
 593.144471708 96 615 74.1463660754 615 48 c 0
 615 21.8536339246 593.144471708 0 567 0 c 2
 47 0 l 2
 42.6223896534 0 36.8727665911 0.814036806133 32.1121333558 2.36721105626 c 0
 11.9174764596 8.95579277033 -0.906302556971 28.2652015758 -0.906302556971 48.4295897637 c 0
 -0.906302556971 54.4563503854 0.239246811973 60.5594863947 2.67593312117 66.4221902965 c 2
 268.675933121 706.422190297 l 2
 276.275901122 724.707827593 294.506915091 735.908469331 313.394412163 735.908469331 c 0
 319.445626552 735.908469331 325.56422541 734.758783535 331.422190297 732.324066879 c 0
EndSplineSet
EndChar

StartChar: M
Encoding: 77 77 45
Width: 1037
VWidth: 0
Flags: HW
AnchorPoint: "above" 691 784 basechar 0
LayerCount: 2
Fore
SplineSet
28.5778097035 3.67593312117 m 0
 10.2932561016 11.2754507119 -0.908538900677 29.5061253644 -0.908538900677 48.3943318345 c 0
 -0.908538900677 54.4454445873 0.24114028437 60.5640421177 2.67593312117 66.4221902965 c 2
 268.675933121 706.422190297 l 2
 276.274651871 724.704821874 295.457509651 736 313 736 c 2
 345 736 l 1
 363 736 l 2
 389.055865451 736 410.054512971 714.11267125 410.966285554 689.798735708 c 2
 430.415084523 171.164096525 l 1
 906.76431195 719.479753994 l 2
 915.934061818 730.034861756 930.134077345 736 943 736 c 2
 993 736 l 2
 1019.35484791 736 1040.99666379 713.865582227 1040.99666379 687.910164833 c 0
 1040.99666379 681.822761748 1037.46281365 670.154205157 1037.32406688 669.577809703 c 2
 771.324066879 29.5778097035 l 2
 763.724549288 11.2932561016 745.493874636 0.0914610993229 726.605668165 0.0914610993229 c 0
 720.554555413 0.0914610993229 714.435957882 1.24114028437 708.577809703 3.67593312117 c 0
 690.292172407 11.2759011224 679.091530669 29.5069150905 679.091530669 48.3944121631 c 0
 679.091530669 54.4456265521 680.241216465 60.5642254105 682.675933121 66.4221902965 c 2
 880.880724975 543.30590002 l 1
 423.23568805 16.5202460062 l 2
 416.060281039 8.26078469793 404.49445825 1.71398903303 392.556486055 0.322694468752 c 0
 390.738726417 0.110846169734 388.931184525 0.00763922024274 387.140200248 0.00763922024274 c 0
 361.929181233 0.00763922024274 339.999077638 20.4582458501 339.033714446 46.2012642917 c 2
 319.105395197 577.623110921 l 1
 91.3240668788 29.5778097035 l 2
 83.7240988776 11.2921724073 65.4930849095 0.091530669426 46.6055878369 0.091530669426 c 0
 40.5543734479 0.091530669426 34.4357745895 1.24121646542 28.5778097035 3.67593312117 c 0
EndSplineSet
EndChar

StartChar: N
Encoding: 78 78 46
Width: 900
VWidth: 0
Flags: HW
AnchorPoint: "above" 622 784 basechar 0
LayerCount: 2
Fore
SplineSet
28.5778097035 3.67593312117 m 0
 10.2932561016 11.2754507119 -0.908538900677 29.5061253644 -0.908538900677 48.3943318345 c 0
 -0.908538900677 54.4454445873 0.24114028437 60.5640421177 2.67593312117 66.4221902965 c 2
 268.675933121 706.422190297 l 2
 276.274651871 724.704821874 295.457509651 736 313 736 c 2
 339 736 l 1
 363 736 l 2
 384.362544031 736 403.419736993 721.129154987 409.131326589 701.262756394 c 2
 571.623859687 136.071336921 l 1
 808.675933121 706.422190297 l 2
 816.275450712 724.706743898 834.506125364 735.908538901 853.394331835 735.908538901 c 0
 859.445444587 735.908538901 865.564042118 734.758859716 871.422190297 732.324066879 c 0
 889.707827593 724.724098878 900.908469331 706.493084909 900.908469331 687.605587837 c 0
 900.908469331 681.554373448 899.758783535 675.43577459 897.324066879 669.577809703 c 2
 631.324066879 29.5778097035 l 2
 624.591335723 13.3787572983 606.798867241 0 587 0 c 2
 565 0 l 1
 547 0 l 2
 526.328859519 0 506.771302942 14.2063582834 500.868673411 34.7372436058 c 2
 334.287251424 614.150885301 l 1
 91.3240668788 29.5778097035 l 2
 83.7240988776 11.2921724073 65.4930849095 0.091530669426 46.6055878369 0.091530669426 c 0
 40.5543734479 0.091530669426 34.4357745895 1.24121646542 28.5778097035 3.67593312117 c 0
EndSplineSet
EndChar

StartChar: O
Encoding: 79 79 47
Width: 920
VWidth: 0
Flags: HW
HStem: 40 656<353.411 566.589>
VStem: 150 620<233.016 502.984>
AnchorPoint: "middle" 460 368 basechar 0
AnchorPoint: "above" 632 784 basechar 0
LayerCount: 2
Fore
SplineSet
814.343848595 349.625477101 m 0
 732.542339649 152.211168845 519.636338471 -8 324 -8 c 0
 284.45231431 -8 247.729261317 -1.20809942327 215.054273286 12.2318141636 c 0
 121.549438011 50.6923303496 74.1372993917 136.40909334 74.1372993917 237.358355058 c 0
 74.1372993917 284.775874102 84.5980032116 335.554191926 105.656151405 386.374522899 c 0
 187.457660351 583.788831155 400.363661529 744 596 744 c 0
 635.54768569 744 672.270738683 737.208099423 704.945726714 723.768185836 c 0
 798.450561989 685.30766965 845.862700608 599.59090666 845.862700608 498.641644942 c 0
 845.862700608 451.224125898 835.401996788 400.445808074 814.343848595 349.625477101 c 0
725.656151405 386.374522899 m 0
 743.34944679 429.074342429 751.1982744 467.174611302 751.1982744 500.176592892 c 0
 751.1982744 568.296327866 717.757936721 614.694545077 668.427419432 634.985230078 c 0
 648.666572275 643.113284415 624.615225922 648 596 648 c 0
 449.636338471 648 262.542339649 514.211168845 194.343848595 349.625477101 c 0
 176.65055321 306.925657571 168.8017256 268.825388698 168.8017256 235.823407108 c 0
 168.8017256 167.703672134 202.242063279 121.305454923 251.572580568 101.014769922 c 0
 271.333427725 92.8867155847 295.384774078 88 324 88 c 0
 470.363661529 88 657.457660351 221.788831155 725.656151405 386.374522899 c 0
EndSplineSet
EndChar

StartChar: P
Encoding: 80 80 48
Width: 850
VWidth: 0
Flags: HW
AnchorPoint: "above" 597 784 basechar 0
LayerCount: 2
Fore
SplineSet
245.280789721 400 m 1
 473 400 l 2
 580.403275006 400 682.595407284 450.575064978 718.599048718 538.236104991 c 0
 726.367158361 557.149763253 729.923746812 571.713775781 729.923746812 583.260433462 c 0
 729.923746812 606.647344423 715.333361639 617.655997388 691.594439415 627.356421687 c 0
 672.855082065 635.01387621 645.719277291 640 613 640 c 2
 345.030789721 640 l 1
 245.280789721 400 l 1
205.380789721 304 m 1
 91.3240668788 29.5778097035 l 2
 83.7240988776 11.2921724073 65.4930849095 0.091530669426 46.6055878369 0.091530669426 c 0
 40.5543734479 0.091530669426 34.4357745895 1.24121646542 28.5778097035 3.67593312117 c 0
 10.2932561016 11.2754507119 -0.908538900677 29.5061253644 -0.908538900677 48.3943318345 c 0
 -0.908538900677 54.4454445873 0.24114028437 60.5640421177 2.67593312117 66.4221902965 c 2
 136.635529081 388.730992605 l 1
 268.675933121 706.422190297 l 2
 276.274651871 724.704821874 295.457509651 736 313 736 c 2
 613 736 l 2
 654.831131428 736 693.754707895 730.179361545 727.908065447 716.223291579 c 0
 787.400256776 691.913026231 823.459279453 641.074071269 823.459279453 577.834543942 c 0
 823.459279453 553.988367339 818.332150587 528.378988969 807.400951282 501.763895009 c 0
 751.404592716 365.424935022 605.596724994 304 473 304 c 2
 205.380789721 304 l 1
EndSplineSet
EndChar

StartChar: Q
Encoding: 81 81 49
Width: 920
VWidth: 0
Flags: HW
HStem: 40 656<353.411 566.589>
VStem: 150 620<233.016 502.984>
AnchorPoint: "above" 632 784 basechar 0
LayerCount: 2
Fore
SplineSet
401.610445466 192.519450846 m 0
 410.154027974 208.601488509 427.084665827 217.871661095 444.376527179 217.871661095 c 0
 451.910174487 217.871661095 459.512386888 216.112057262 466.519450846 212.389554534 c 0
 474.8481026 207.96495829 482.490284039 202.402123579 489.013733 196.052174457 c 0
 504.998323247 180.492715737 515.635451757 166.497313369 522.544822496 153.919151417 c 1
 609.181608836 208.645579322 686.758159385 292.500702157 725.656151405 386.374522899 c 0
 743.34944679 429.074342429 751.1982744 467.174611302 751.1982744 500.176592892 c 0
 751.1982744 568.296327866 717.757936721 614.694545077 668.427419432 634.985230078 c 0
 648.666572275 643.113284415 624.615225922 648 596 648 c 0
 449.636338471 648 262.542339649 514.211168845 194.343848595 349.625477101 c 0
 176.65055321 306.925657571 168.8017256 268.825388698 168.8017256 235.823407108 c 0
 168.8017256 167.703672134 202.242063279 121.305454923 251.572580568 101.014769922 c 0
 271.333427725 92.8867155847 295.384774078 88 324 88 c 0
 355.166368809 88 388.179554716 94.0663259218 421.498346972 105.20457531 c 1
 421.052303681 118.623194837 422.051052992 127.261275012 422.051052992 127.261275012 c 1
 422.032708296 127.275520722 421.904952848 127.384981003 421.480549154 127.610445466 c 0
 405.397646964 136.154487254 396.128409517 153.085220003 396.128409517 170.376467117 c 0
 396.128409517 177.910311021 397.888052686 185.512593848 401.610445466 192.519450846 c 0
545.271966736 54.0484944657 m 1
 550.583633376 52.7142690083 557.344442274 51.6250081491 565.887845085 50.7504865988 c 0
 590.300688258 48.251534148 608.993705673 26.9831747538 608.993705673 2.87213492549 c 0
 608.993705673 -24.7627460333 585.994149632 -44.9936943664 560.871940275 -44.9936943664 c 0
 559.295995723 -44.9936943664 557.707917507 -44.9138323759 556.112154915 -44.7504865988 c 0
 501.648079848 -39.1754237967 468.998037502 -15.5501799438 449.523670933 12.4881493907 c 1
 407.850650631 -0.77820635559 317.396349658 -9.0778570585 324 -8 c 1
 284.45231431 -8 247.729261317 -1.20809942327 215.054273286 12.2318141636 c 0
 121.549438011 50.6923303496 74.1372993917 136.40909334 74.1372993917 237.358355058 c 0
 74.1372993917 284.775874102 84.5980032116 335.554191926 105.656151405 386.374522899 c 0
 187.457660351 583.788831155 400.363661529 744 596 744 c 0
 635.54768569 744 672.270738683 737.208099423 704.945726714 723.768185836 c 0
 798.450561989 685.30766965 845.862700608 599.59090666 845.862700608 498.641644942 c 0
 845.862700608 451.224125898 835.401996788 400.445808074 814.343848595 349.625477101 c 0
 763.467875766 226.844796007 661.878775215 118.454831268 545.271966736 54.0484944657 c 1
EndSplineSet
EndChar

StartChar: R
Encoding: 82 82 50
Width: 880
VWidth: 0
Flags: HW
AnchorPoint: "above" 612 784 basechar 0
LayerCount: 2
Fore
SplineSet
258.580789721 432 m 1
 517 432 l 2
 628.957113992 432 720.43689857 468.623913326 755.599048718 554.236104991 c 0
 763.137268889 572.590032365 766.550542901 585.49298231 766.550542901 595.022208621 c 0
 766.550542901 612.580697872 754.961964485 618.684888189 736.236944292 626.329833203 c 0
 715.76992745 634.685990726 682.694659349 640 643 640 c 2
 345.030789721 640 l 1
 258.580789721 432 l 1
218.680789721 336 m 1
 91.3240668788 29.5778097035 l 2
 83.7240988776 11.2921724073 65.4930849095 0.091530669426 46.6055878369 0.091530669426 c 0
 40.5543734479 0.091530669426 34.4357745895 1.24121646542 28.5778097035 3.67593312117 c 0
 10.2932561016 11.2754507119 -0.908538900677 29.5061253644 -0.908538900677 48.3943318345 c 0
 -0.908538900677 54.4454445873 0.24114028437 60.5640421177 2.67593312117 66.4221902965 c 2
 149.686034131 420.130704005 l 1
 268.675933121 706.422190297 l 2
 276.274651871 724.704821874 295.457509651 736 313 736 c 2
 643 736 l 2
 690.15616938 736 734.240984915 730.837528092 772.523517168 715.207753008 c 0
 826.563815408 693.144486624 859.538152374 647.18366483 859.538152374 589.089166626 c 0
 859.538152374 566.869652502 854.714509151 542.875166342 844.400951282 517.763895009 c 0
 798.8820978 406.935382183 698.4093092 357.04435577 594.428870081 341.568554758 c 1
 629.644496729 53.8311175101 l 2
 629.87745407 51.9276855823 629.990914078 50.0328919066 629.990914078 48.1544551124 c 0
 629.990914078 24.4209752133 611.878660923 3.29863544969 587.83111751 0.355503270757 c 0
 585.927774801 0.122556849689 584.033051795 0.00910128378589 582.154669665 0.00910128378589 c 0
 558.422535591 0.00910128378589 537.298842743 18.1196453404 534.355503271 42.1688824899 c 2
 498.394082919 336 l 1
 218.680789721 336 l 1
EndSplineSet
EndChar

StartChar: S
Encoding: 83 83 51
Width: 840
VWidth: 0
Flags: HW
AnchorPoint: "bottom" 284 40 basechar 0
AnchorPoint: "above" 592 784 basechar 0
LayerCount: 2
Fore
SplineSet
756.002005501 528.000002845 m 0
 729.31964176 528.000002845 708.874382531 550.586985001 708.009434529 574.880795547 c 1
 708.009434529 574.880795547 713.016549906 648 556 648 c 0
 424.621121657 648 315.350841973 592.842020734 287.307692308 525.538461538 c 0
 284.831737264 519.596169434 283.383571995 514.185861971 282.827362799 509.721688957 c 0
 282.701163665 508.708806085 282.550068669 507.345089382 282.550068669 505.688768682 c 0
 282.550068669 490.607895487 295.076120332 451.269615466 452.970492411 431.62725339 c 0
 503.168144875 425.286497289 543.550084114 415.488831148 576.73807402 401.88349224 c 0
 654.365986663 370.060110853 684.052655132 314.595789612 684.052655132 260.093697891 c 0
 684.052655132 238.622060145 679.445153849 217.299764644 671.346314604 197.63115505 c 0
 620.821043627 76.3705047043 466.870303898 -8 284 -8 c 0
 54.9111398163 -8 21.2021613774 148.499318671 19.3285592496 162.338651624 c 0
 19.1484663598 164.100935814 19.0604993885 165.846371367 19.0604993885 167.570549889 c 0
 19.0604993885 192.121426643 36.8961596168 212.362353952 60.5603906303 215.566074372 c 0
 62.7400895788 215.86116725 64.9102318669 216.005469615 67.0592381051 216.005469615 c 0
 89.8823494637 216.005469615 110.321505165 199.729465296 114.506043238 174.949445942 c 0
 114.747402506 173.721351199 124.223038485 88 284 88 c 0
 441.129696102 88 553.178956373 163.629495296 582.653685396 234.36884495 c 0
 587.494788775 246.125810301 591.259102049 256.374702969 591.259102049 265.841694206 c 0
 591.259102049 282.692571208 579.332771938 297.066179739 540.324138914 313.057677692 c 0
 517.721864155 322.323427413 485.112225561 330.804403288 440.984641753 336.378413874 c 0
 273.210670131 357.249817042 186.471789893 417.45273678 186.471789893 504.376397872 c 0
 186.471789893 510.003729935 186.835322087 515.743051566 187.56393407 521.590941116 c 0
 189.406880658 536.382556343 193.506972413 550.016733792 198.692307692 562.461538462 c 0
 250.649158027 687.157979266 407.378878343 744 556 744 c 0
 784.485886106 744 803.950015303 593.524791945 804.002056189 575.352114564 c 0
 803.262707901 550.600012958 782.847646272 528.038446763 756.002005501 528.000002845 c 0
EndSplineSet
EndChar

StartChar: T
Encoding: 84 84 52
Width: 860
VWidth: 0
Flags: HW
AnchorPoint: "bottom" 297 48 basechar 0
AnchorPoint: "above" 602 784 basechar 0
LayerCount: 2
Fore
SplineSet
205 688 m 0
 205 714.144471708 226.853633925 736 253 736 c 2
 873 736 l 2
 899.144471708 736 921 714.146366075 921 688 c 0
 921 661.853633925 899.144471708 640 873 640 c 2
 594.86933533 640 l 1
 341.328221046 29.5878078729 l 2
 333.731383541 11.2980632382 315.497747383 0.0913721576052 296.605698847 0.0913721576052 c 0
 290.558097811 0.0913721576052 284.443027484 1.23975200001 278.587807873 3.67177895433 c 0
 260.296979009 11.2690668054 249.09144171 29.5030429419 249.09144171 48.3943817976 c 0
 249.09144171 54.4420842516 250.23982811 60.5571557559 252.671778954 66.4121921271 c 2
 490.917498525 640 l 1
 253 640 l 2
 226.853633925 640 205 661.855528292 205 688 c 0
EndSplineSet
EndChar

StartChar: U
Encoding: 85 85 53
Width: 890
VWidth: 0
Flags: HW
AnchorPoint: "above" 617 784 basechar 0
LayerCount: 2
Fore
SplineSet
861.408174494 732.329889598 m 0
 879.700004819 724.734129548 890.908663578 706.499303637 890.908663578 687.605711272 c 0
 890.908663578 681.559521243 889.760805617 675.445868162 887.329889598 669.591825506 c 2
 691.352546201 197.646386305 l 2
 640.054690734 73.2490867975 467.896825414 -8 309 -8 c 0
 259.174017398 -8 214.09295502 0.121247534483 175.622417426 15.9846701729 c 0
 107.282616988 44.1647582399 59.5276325461 102.011503809 59.5276325461 170.988663578 c 0
 59.5276325461 191.302764466 63.6695677689 212.582240073 72.6474537988 234.353613695 c 2
 268.670110402 706.408174494 l 2
 276.265870452 724.700004819 294.500696363 735.908663578 313.394288728 735.908663578 c 0
 319.440478757 735.908663578 325.554131838 734.760805617 331.408174494 732.329889598 c 0
 349.701089264 724.733679228 360.908594034 706.498513073 360.908594034 687.605630501 c 0
 360.908594034 681.559339141 359.760729535 675.445684944 357.329889598 669.591825506 c 2
 161.352546201 197.646386305 l 2
 157.045969593 187.202938029 154.752346176 177.321747498 154.752346176 168.015902988 c 0
 154.752346176 142.510658837 171.981720276 121.327332476 212.218999136 104.735389647 c 0
 236.774593492 94.6098287431 269.665677258 88 309 88 c 0
 442.103174586 88 573.945309266 164.750913202 602.647453799 234.353613695 c 2
 798.670110402 706.408174494 l 2
 806.266320772 724.701089264 824.501486927 735.908594034 843.394369499 735.908594034 c 0
 849.440660859 735.908594034 855.554315056 734.760729535 861.408174494 732.329889598 c 0
EndSplineSet
EndChar

StartChar: V
Encoding: 86 86 54
Width: 860
VWidth: 0
Flags: HW
AnchorPoint: "above" 602 784 basechar 0
LayerCount: 2
Fore
SplineSet
250.45359079 735.932408662 m 0
 251.284636313 735.976557955 252.112516904 735.998364833 252.936636738 735.998364833 c 0
 278.002599684 735.998364833 299.589491417 715.824851466 300.932408662 690.54640921 c 2
 329.846092251 146.288835769 l 1
 837.043875956 719.798697202 l 2
 846.412695289 730.392415176 859.740078017 735.809979023 873.102083327 735.809979023 c 0
 884.442226978 735.809979023 895.807308149 731.907883738 904.798697202 723.956124044 c 0
 915.392832743 714.586935425 920.809958632 701.259764151 920.809958632 687.898240023 c 0
 920.809958632 676.557688618 916.907617148 665.192390407 908.956124044 656.201302798 c 2
 342.956124044 16.2013027984 l 2
 334.63351274 6.79057623534 320.862125854 0 307 0 c 2
 287 0 l 2
 263.961690404 0 240.461929854 19.2072187204 239.067591338 45.4535907898 c 2
 205.067591338 685.45359079 l 2
 203.680521601 711.563138785 224.345934495 734.545439421 250.45359079 735.932408662 c 0
EndSplineSet
EndChar

StartChar: W
Encoding: 87 87 55
Width: 1090
VWidth: 0
Flags: HW
AnchorPoint: "above" 717 784 basechar 0
LayerCount: 2
Fore
SplineSet
257.184013613 735.81729844 m 0
 283.228972076 733.538364574 303.096397432 709.862832006 300.81729844 683.815986387 c 2
 257.380338755 187.393589993 l 1
 633.907803676 715.853189881 l 2
 643.106751086 728.763993263 659.441725382 736 673 736 c 2
 683 736 l 2
 712.934178616 736 733.676590818 707.699689294 730.665100323 682.339769337 c 2
 672.087222204 189.052374651 l 1
 1064.48476334 716.645707268 l 2
 1073.80315705 729.174639991 1088.46320257 735.824184414 1103.22996928 735.824184414 c 0
 1113.18855785 735.824184414 1123.1956837 732.799941691 1131.64570727 726.515236662 c 0
 1144.17519593 717.196429473 1150.82413899 702.536534792 1150.82413899 687.770291107 c 0
 1150.82413899 677.811360896 1147.79974804 667.804055933 1141.51523666 659.354292732 c 2
 665.515236662 19.3542927325 l 2
 657.887075985 9.09794224179 642.595098038 0 627 0 c 2
 607 0 l 2
 583.056168468 0 559.007924004 21.0398092186 559.007924004 48.1653452724 c 0
 559.007924004 49.9714647547 559.114539339 51.8045646597 559.334899677 53.6602306634 c 2
 615.20777792 524.168679025 l 1
 256.092196324 20.146810119 l 2
 248.224671379 9.1046698446 232.85274353 0 217 0 c 2
 197 0 l 2
 174.249021049 0 146.520572217 21.7596782581 149.18270156 52.1840136135 c 2
 205.18270156 692.184013613 l 2
 207.34226663 716.864757273 228.714272937 735.995434831 253.108289341 735.995434831 c 0
 254.458520682 735.995434831 255.818010631 735.936823701 257.184013613 735.81729844 c 0
EndSplineSet
EndChar

StartChar: X
Encoding: 88 88 56
Width: 790
VWidth: 0
Flags: HW
AnchorPoint: "above" 567 784 basechar 0
LayerCount: 2
Fore
SplineSet
-50.7689640331 18.3772831113 m 0
 -57.5422034169 27.0131633257 -60.8187146989 37.43102027 -60.8187146989 47.8065830133 c 0
 -60.8187146989 62.1470527479 -54.5595684364 76.4067275251 -42.6227168887 85.7689640331 c 2
 335.963470119 382.699306785 l 1
 209.125745248 668.530799454 l 2
 206.391439884 674.692614357 205.100845866 681.182883381 205.100845866 687.604381218 c 0
 205.100845866 706.089087615 215.794892667 724.003946116 233.530799454 731.874254752 c 0
 239.692425431 734.60847628 246.18271213 735.899083058 252.604334907 735.899083058 c 0
 271.088360026 735.899083058 289.003490131 725.206134905 296.874254752 707.469200546 c 2
 413.874723566 443.806172233 l 1
 773.377283111 725.768964033 l 2
 782.013163326 732.542203417 792.43102027 735.818714699 802.806583013 735.818714699 c 0
 817.147052748 735.818714699 831.406727525 729.559568436 840.768964033 717.622716889 c 0
 847.542416754 708.986564669 850.818753136 698.568900995 850.818753136 688.193701312 c 0
 850.818753136 673.852721062 844.559057287 659.592871574 832.622716889 650.231035967 c 2
 454.036529881 353.300693215 l 1
 580.874254752 67.4692005464 l 2
 583.60847628 61.3075745692 584.899083058 54.81728787 584.899083058 48.3956650933 c 0
 584.899083058 29.9116399736 574.206134905 11.996509869 556.469200546 4.12574524754 c 0
 550.307385643 1.39143988423 543.817116619 0.100845865518 537.395618782 0.100845865518 c 0
 518.910912385 0.100845865518 500.996053884 10.7948926667 493.125745248 28.5307994536 c 2
 376.125276434 292.193827767 l 1
 16.6227168887 10.2310359669 l 2
 7.98656466892 3.45758324553 -2.4310990048 0.181246863767 -12.806298688 0.181246863767 c 0
 -27.1472789378 0.181246863767 -41.4071284263 6.44094271263 -50.7689640331 18.3772831113 c 0
EndSplineSet
EndChar

StartChar: Y
Encoding: 89 89 57
Width: 820
VWidth: 0
Flags: HW
AnchorPoint: "middle" 410 368 basechar 0
AnchorPoint: "above" 582 784 basechar 0
LayerCount: 2
Fore
SplineSet
230.210068357 730.244751339 m 0
 237.288588482 734.06342667 244.991827845 735.86919496 252.626942973 735.86919496 c 0
 269.810841056 735.86919496 286.649663871 726.722288901 295.244751339 710.789931643 c 2
 433.114412532 455.226657237 l 1
 804.679203712 726.754773868 l 2
 813.063843497 732.882010635 822.936493349 735.826118663 832.758953102 735.826118663 c 0
 847.665102415 735.826118663 862.455664864 729.04589282 871.754773868 716.320796288 c 0
 877.882198232 707.935899791 880.826166239 698.063423995 880.826166239 688.241298603 c 0
 880.826166239 673.334622105 874.04532165 658.543917742 861.320796288 649.245226132 c 2
 456.149326036 353.158382485 l 1
 321.307692308 29.5384615385 l 2
 313.697644306 11.2743463342 295.478634754 0.0918112799092 276.605550749 0.0918112799092 c 0
 270.540613 0.0918112799092 264.408130106 1.24661245603 258.538461538 3.69230769231 c 0
 240.273264746 11.3028063558 229.091880921 29.5221526184 229.091880921 48.3945283358 c 0
 229.091880921 54.4595685807 230.246688915 60.5920533967 232.692307692 66.4615384615 c 2
 363.893415716 381.344197718 l 1
 210.755248661 665.210068357 l 2
 206.936460717 672.288797229 205.130734843 679.991961233 205.130734843 687.626873247 c 0
 205.130734843 704.811380546 214.278561312 721.650122539 230.210068357 730.244751339 c 0
EndSplineSet
EndChar

StartChar: Z
Encoding: 90 90 58
Width: 790
VWidth: 0
Flags: HW
AnchorPoint: "above" 567 784 basechar 0
LayerCount: 2
Fore
SplineSet
215 688 m 0
 215 714.144471708 236.853633925 736 263 736 c 2
 793 736 l 2
 819.354847908 736 840.996663789 713.865582227 840.996663789 687.910164833 c 0
 840.996663789 671.916146793 831.538668034 657.309597485 822.848660412 650.409343294 c 2
 124.639393701 96 l 1
 537 96 l 2
 563.144471708 96 585 74.1463660754 585 48 c 0
 585 21.8536339246 563.144471708 0 537 0 c 2
 -13 0 l 2
 -24.8765227421 0 -38.953269682 5.43321519397 -48.1329443039 15.2940949592 c 0
 -56.6324926175 24.4243776142 -60.783153312 36.1605798197 -60.783153312 47.865698807 c 0
 -60.783153312 62.0507629627 -54.6873888816 76.1901775244 -42.848660412 85.5906567063 c 2
 655.360606299 640 l 1
 263 640 l 2
 236.853633925 640 215 661.855528292 215 688 c 0
EndSplineSet
EndChar

StartChar: bracketleft
Encoding: 91 91 59
Width: 390
VWidth: 0
Flags: HW
LayerCount: 2
Fore
SplineSet
504 768 m 0
 504 741.855528292 482.146366075 720 456 720 c 2
 338.049283235 720 l 1
 45.8892832354 16 l 1
 124 16 l 2
 150.144471708 16 172 -5.85363392464 172 -32 c 0
 172 -58.1463660754 150.144471708 -80 124 -80 c 2
 -26 -80 l 2
 -30.3179284992 -80 -36.1132663226 -79.1877116319 -40.863539694 -77.6407185281 c 0
 -61.070170291 -71.0601460559 -73.9065315031 -51.7441517962 -73.9065315031 -31.5705955997 c 0
 -73.9065315031 -25.5520711991 -72.7640292745 -19.4572193714 -70.3338806418 -13.6014395336 c 2
 261.666119358 786.398560466 l 2
 268.400787401 802.626676232 286.198331795 816 306 816 c 2
 456 816 l 2
 482.146366075 816 504 794.144471708 504 768 c 0
EndSplineSet
EndChar

StartChar: backslash
Encoding: 92 92 60
Width: 720
VWidth: 0
Flags: HW
LayerCount: 2
Fore
SplineSet
459.592888327 1.68133029131 m 0
 455.514764845 0.57259046969 451.394974469 0.0442750203392 447.324574246 0.0442750203392 c 0
 426.214062611 0.0442750203392 406.432057386 14.2550120143 400.681330291 35.407111673 c 2
 226.681330291 675.407111673 l 2
 225.57259047 679.485235155 225.04427502 683.605025531 225.04427502 687.675425754 c 0
 225.04427502 708.785937389 239.255012014 728.567942614 260.407111673 734.318669709 c 0
 264.48538523 735.427450332 268.605240172 735.95577424 272.675646056 735.95577424 c 0
 293.787084904 735.95577424 313.568319736 721.74360087 319.318669709 700.592888327 c 2
 493.318669709 60.592888327 l 2
 494.427450332 56.5146147697 494.95577424 52.3947598277 494.95577424 48.3243539436 c 0
 494.95577424 27.2129150957 480.74360087 7.43168026398 459.592888327 1.68133029131 c 0
EndSplineSet
EndChar

StartChar: bracketright
Encoding: 93 93 61
Width: 390
VWidth: 0
Flags: HW
LayerCount: 2
Fore
SplineSet
218 768 m 0
 218 794.144471708 239.853633925 816 266 816 c 2
 416 816 l 2
 442.354847908 816 463.996663789 793.865582227 463.996663789 767.910164833 c 0
 463.996663789 761.815903652 460.468759459 750.162423431 460.333880642 749.601439534 c 2
 128.333880642 -50.3985604664 l 2
 120.743835021 -68.687827023 101.570073846 -80 84 -80 c 2
 -66 -80 l 2
 -92.1444717079 -80 -114 -58.1463660754 -114 -32 c 0
 -114 -5.85363392464 -92.1444717079 16 -66 16 c 2
 51.9507167646 16 l 1
 344.110716765 720 l 1
 266 720 l 2
 239.853633925 720 218 741.855528292 218 768 c 0
EndSplineSet
EndChar

StartChar: asciicircum
Encoding: 94 94 62
Width: 640
VWidth: 0
Flags: HW
LayerCount: 2
Fore
SplineSet
136.555683086 416.762014074 m 0
 128.920138731 425.670149156 125.188271523 436.786670043 125.188271523 447.873312194 c 0
 125.188271523 461.491489456 130.818993548 475.064585034 141.762014074 484.444316914 c 2
 421.762014074 724.444316914 l 2
 430.686107829 732.093540132 441.763566548 735.790085796 452.797049028 735.790085796 c 0
 467.664013893 735.790085796 482.451135639 729.078649285 491.782818344 716.282379697 c 0
 494.692858509 712.291924851 497.115069392 707.444119511 498.536798306 703.178932769 c 2
 578.536798306 463.178932769 l 2
 580.164627306 458.29544577 580.93616158 453.30178884 580.93616158 448.36755147 c 0
 580.93616158 428.241208289 568.099712724 409.103461679 548.178932769 402.463201694 c 0
 543.295279954 400.835317422 538.301581798 400.063778049 533.367380773 400.063778049 c 0
 513.240220968 400.063778049 494.103043248 412.901542568 487.463201694 432.821067231 c 2
 430.037512598 605.098134519 l 1
 204.237985926 411.555683086 l 2
 195.329557446 403.919887247 184.213248718 400.188246183 173.127003228 400.188246183 c 0
 159.508336894 400.188246183 145.93503713 405.819434357 136.555683086 416.762014074 c 0
EndSplineSet
EndChar

StartChar: underscore
Encoding: 95 95 63
Width: 720
VWidth: 0
Flags: HW
LayerCount: 2
Fore
SplineSet
-180 -96 m 0
 -180 -69.8555282921 -158.146366075 -48 -132 -48 c 2
 468 -48 l 2
 494.144471708 -48 516 -69.8536339246 516 -96 c 0
 516 -122.146366075 494.144471708 -144 468 -144 c 2
 -132 -144 l 2
 -158.146366075 -144 -180 -122.144471708 -180 -96 c 0
EndSplineSet
EndChar

StartChar: grave
Encoding: 96 96 64
Width: 480
VWidth: 0
Flags: HW
LayerCount: 2
Fore
SplineSet
250.086167015 730.177674876 m 0
 257.197314027 734.040942243 264.946938801 735.868102355 272.628599945 735.868102355 c 0
 289.763223128 735.868102355 306.559691637 726.777023372 315.177674876 710.913832985 c 2
 428.177674876 502.913832985 l 2
 432.040942243 495.802685973 433.868102355 488.053061199 433.868102355 480.371400055 c 0
 433.868102355 463.236776872 424.777023372 446.440308363 408.913832985 437.822325124 c 0
 401.802476394 433.958943899 394.052929246 432.131827659 386.371474206 432.131827659 c 0
 369.236244065 432.131827659 352.439850023 441.223820298 343.822325124 457.086167015 c 2
 230.822325124 665.086167015 l 2
 226.958943899 672.197523606 225.131827659 679.947070754 225.131827659 687.628525794 c 0
 225.131827659 704.763755935 234.223820298 721.560149977 250.086167015 730.177674876 c 0
EndSplineSet
EndChar

StartChar: a
Encoding: 97 97 65
Width: 735
VWidth: 0
Flags: HW
AnchorPoint: "above" 454 576 basechar 0
LayerCount: 2
Fore
SplineSet
619.374038884 524.344049151 m 0
 637.683584198 516.757455144 648.908967105 498.512527261 648.908967105 479.605819073 c 0
 648.908967105 473.571614577 647.765537665 467.470000435 645.344049151 461.625961116 c 2
 466.344049151 29.6259611158 l 2
 458.757455144 11.3164158024 440.512527261 0.0910328950784 421.605819073 0.0910328950784 c 0
 415.571614577 0.0910328950784 409.470000435 1.23446233525 403.625961116 3.65595084928 c 0
 390.294160888 9.18000696208 380.718977318 20.3541597913 376.497496389 33.3196490661 c 1
 326.637467972 7.30965115828 272.656043919 -8 219 -8 c 0
 104.43014936 -8 25.1718915687 70.1291326264 25.1718915687 176.616695365 c 0
 25.1718915687 176.81884948 25.1727487753 177.021105795 25.1727487753 177.223463969 c 0
 25.2684500768 211.105396196 32.9036164339 246.506049662 47.6080407311 282.257983248 c 0
 105.777345828 423.689234855 259.48284643 536 405 536 c 0
 464.198995219 536 514.44063661 515.106338582 548.985503224 479.862120593 c 1
 556.655950849 498.374038884 l 2
 564.242994955 516.684670469 582.488265348 527.908897623 601.394262774 527.908897623 c 0
 607.428567857 527.908897623 613.530182602 526.765461823 619.374038884 524.344049151 c 0
431.133227596 195.436516842 m 1
 502.218489607 366.994244154 l 1
 496.504976789 411.732972915 467.052807445 440 405 440 c 0
 306.51715357 440 180.222654172 352.310765145 136.391959269 245.742016752 c 0
 125.723249238 219.802408049 121.227527746 196.481742736 121.172365829 176.952307996 c 0
 121.172365829 176.810717161 121.17176585 176.669261681 121.17176585 176.527941809 c 0
 121.17176585 122.268651763 150.661854096 88 219 88 c 0
 287.281410882 88 371.581099442 130.133003004 431.133227596 195.436516842 c 1
EndSplineSet
EndChar

StartChar: b
Encoding: 98 98 66
Width: 735
VWidth: 0
Flags: HW
LayerCount: 2
Fore
SplineSet
331.415241976 732.326954136 m 0
 349.703403231 724.729298909 360.908600713 706.496566021 360.908600713 687.605689451 c 0
 360.908600713 681.557017248 359.75982461 675.440871023 357.326954136 669.584758024 c 2
 287.817263115 502.269395568 l 1
 333.324262125 523.642231351 381.793452441 536 430 536 c 0
 460.583980551 536 489.25431502 530.816802326 514.943801183 520.305008042 c 0
 587.264519568 490.712336967 623.122997937 425.2632709 623.122997937 350.308796644 c 0
 623.122997937 316.577705052 615.860976547 280.921588174 601.391959269 245.742016752 c 0
 543.220455376 104.305419053 389.512134872 -8 244 -8 c 0
 182.454349538 -8 130.590430777 14.5829817924 95.9810461282 52.3962350922 c 1
 84.7161031382 32.2417690898 77.0440483807 21.4759781616 75.5703608948 19.4177587431 c 0
 65.7403186104 6.59667250548 51.2962411478 0.051629003005 36.8274587269 0.051629003005 c 0
 27.1194225779 0.051629003005 17.4002644281 2.99816217966 9.05625325604 8.97248383628 c 0
 -3.82407193604 18.1948115816 -10.8807393601 32.9204337152 -10.8807393601 48.0299976163 c 0
 -10.8807393601 57.2941577419 -8.22791866788 66.7026535155 -2.63807415938 75.0754974159 c 0
 -1.18772542793 77.1407653252 18.3652337549 104.798574733 42.7234513493 162.536571993 c 2
 268.673045864 706.415241976 l 2
 276.271151457 724.704487297 294.504224121 735.908531156 313.394391097 735.908531156 c 0
 319.443164785 735.908531156 325.559312233 734.759748478 331.415241976 732.326954136 c 0
216.848505571 331.441943779 m 1
 146.61387627 162.381597144 l 1
 151.896884682 116.846833434 181.313787075 88 244 88 c 0
 342.487865128 88 468.779544624 175.694580947 512.608040731 282.257983248 c 0
 523.719558297 309.274222036 528.548771116 332.603452859 528.548771116 352.394535417 c 0
 528.548771116 393.730868535 507.481846527 419.632408139 478.587762583 431.455480991 c 0
 465.874889702 436.657418609 449.794128902 440 430 440 c 0
 361.328485967 440 276.455139478 397.384196299 216.848505571 331.441943779 c 1
EndSplineSet
EndChar

StartChar: c
Encoding: 99 99 67
Width: 660
VWidth: 0
Flags: HW
AnchorPoint: "middle" 307 264 basechar 0
AnchorPoint: "bottom" 214 40 basechar 0
AnchorPoint: "above" 436 576 basechar 0
LayerCount: 2
Fore
SplineSet
463.593717398 166.203839551 m 0
 471.779059332 157.156882676 475.80891087 145.609699619 475.80891087 134.083244948 c 0
 475.80891087 120.909230146 470.544693093 107.76229295 460.203839551 98.4062826021 c 0
 390.598795263 35.4302901518 302.077224156 -8 214 -8 c 0
 184.616561456 -8 156.998747676 -3.01595615579 132.16698341 7.11949238953 c 0
 60.5163903354 36.3647321377 25.4947388905 101.443619475 25.4947388905 175.94435454 c 0
 25.4947388905 210.24428474 32.918123777 246.541322418 47.6080407311 282.257983248 c 0
 105.572855677 423.192043116 256.895679404 536 400 536 c 0
 481.768121224 536 548.929318603 494.531083705 575.75334283 425.353337016 c 0
 577.902295279 419.811301751 578.917879989 414.067577962 578.917879989 408.389257519 c 0
 578.917879989 389.092047218 567.188760287 370.550188643 548.353337016 363.24665717 c 0
 542.811124127 361.097635846 537.067386193 360.082052764 531.389144591 360.082052764 c 0
 512.091193077 360.082052764 493.549746311 371.812380463 486.24665717 390.646662984 c 0
 475.070681397 419.468916295 450.231878776 440 400 440 c 0
 305.104320596 440 180.427144323 352.807956884 136.391959269 245.742016752 c 0
 125.000053911 218.044050785 120.102898525 194.240457382 120.102898525 174.160752793 c 0
 120.102898525 132.814811952 140.866132778 107.257623907 168.445201196 96.0008229053 c 0
 180.360743216 91.1373197835 195.423740811 88 214 88 c 0
 269.922775844 88 339.401204737 118.569709848 395.796160449 169.593717398 c 0
 404.843424775 177.779337502 416.390387906 181.808927571 427.916426999 181.808927571 c 0
 441.090917075 181.808927571 454.238070017 176.544291919 463.593717398 166.203839551 c 0
EndSplineSet
EndChar

StartChar: d
Encoding: 100 100 68
Width: 740
VWidth: 0
Flags: HW
AnchorPoint: "above" 542 784 basechar 0
LayerCount: 2
Fore
SplineSet
711.415241976 732.326954136 m 0
 729.703403231 724.729298909 740.908600713 706.496566021 740.908600713 687.605689451 c 0
 740.908600713 681.557017248 739.75982461 675.440871023 737.326954136 669.584758024 c 2
 511.276548651 125.463428007 l 2
 488.267843708 70.9242755489 484.974895502 44.7637851897 484.667518481 42.3899679057 c 0
 481.439038071 17.583867697 460.58143359 0.000719180129366 436.976802781 0.000719180129366 c 0
 435.449956086 0.000719180129366 433.911615707 0.0742878809517 432.365809359 0.22422918356 c 0
 411.465695226 2.25151438798 394.570272395 17.6130203813 390.164786822 37.9712956997 c 1
 342.23018409 11.5200624159 230.071435446 -8.49410439167 223.185300068 -8.49410439167 c 0
 222.566870953 -8.49410439167 222.797513109 -8.33268107827 224 -8 c 1
 109.43014936 -8 30.1718915687 70.1291326264 30.1718915687 176.616695365 c 0
 30.1718915687 210.905210038 37.8140563525 246.288295739 52.6080407311 282.257983248 c 0
 110.777345828 423.689234855 264.48284643 536 410 536 c 0
 469.42706148 536 519.827619129 514.945041312 554.38405995 479.454143137 c 1
 648.673045864 706.415241976 l 2
 656.271151457 724.704487297 674.504224121 735.908531156 693.394391097 735.908531156 c 0
 699.443164785 735.908531156 705.559312233 734.759748478 711.415241976 732.326954136 c 0
436.608324463 195.958567452 m 1
 507.320915794 366.169406764 l 1
 501.864938641 411.385256555 472.433300705 440 410 440 c 0
 311.51715357 440 185.222654172 352.310765145 141.391959269 245.742016752 c 0
 130.646282295 219.615272739 126.17176585 196.394354816 126.17176585 176.527941809 c 0
 126.17176585 122.268651763 155.661854096 88 224 88 c 0
 292.463191489 88 377.030062763 130.357636845 436.608324463 195.958567452 c 1
EndSplineSet
EndChar

StartChar: e
Encoding: 101 101 69
Width: 680
VWidth: 0
Flags: HW
AnchorPoint: "bottom" 204 40 basechar 0
AnchorPoint: "above" 426 576 basechar 0
LayerCount: 2
Fore
SplineSet
193.927603509 336 m 1
 478.365626831 336 l 1
 482.299293871 349.644547341 484.245813962 360.762916042 484.245813962 371.008881403 c 0
 484.245813962 380.824601809 482.459336742 389.839647874 478.922103098 399.508086499 c 0
 470.176328008 423.316029801 448.693615961 440 395 440 c 0
 331.583464909 440 251.750904402 400.534211345 193.927603509 336 c 1
134.085820875 240 m 1
 123.398741218 212.463780285 118.825156359 189.269670422 118.825156359 169.963190643 c 0
 118.825156359 128.9272037 139.487535123 105.45461347 166.025271725 95.1812674254 c 0
 177.330389453 90.8048057761 191.577031251 88 209 88 c 0
 325.174003752 88 410.100717438 160.325541471 414.648540851 164.349316737 c 0
 423.308219569 171.683392675 434.697161038 175.589163774 446.197395712 175.589163774 c 0
 459.084498326 175.589163774 472.111355446 170.68455969 481.59404579 160.203476587 c 0
 489.844827629 151.084004478 493.671557184 139.760189868 493.671557184 128.518176634 c 0
 493.671557184 115.306590749 488.386502432 102.207979857 478.785879099 92.9328755998 c 0
 473.677895615 88.311461459 368.688051466 -8 209 -8 c 0
 179.879391553 -8 152.409470242 -3.06708271681 127.688191891 7.12603669197 c 0
 58.1854029277 35.7835444902 24.3273121565 98.7359395196 24.3273121565 172.0308672 c 0
 24.3273121565 207.302892381 32.16838368 244.970106906 47.6514142116 282.363086303 c 0
 56.0577072177 302.665076959 66.178410922 322.113602172 77.6912588607 340.573032296 c 0
 148.374917203 453.905550802 273.567675228 536 395 536 c 0
 469.303010097 536 541.832993491 506.658715616 569.067042203 432.521583012 c 0
 576.632289254 411.84324107 579.868963336 391.483773355 579.868963336 371.424118774 c 0
 579.868963336 336.591483515 570.109527035 302.662864884 556.307692308 269.538461538 c 0
 548.694553796 251.266929112 529.496591343 240 512 240 c 2
 134.085820875 240 l 1
EndSplineSet
EndChar

StartChar: f
Encoding: 102 102 70
Width: 470
VWidth: 0
Flags: HW
AnchorPoint: "above" 407 784 basechar 0
LayerCount: 2
Fore
SplineSet
103 480 m 0
 103 506.144471708 124.853633925 528 151 528 c 2
 239.198661018 528 l 1
 286.631895144 642.316078897 l 2
 321.981126644 728.383772985 423.865373139 752 474 752 c 0
 500.523656467 752 520.327633458 747.502377009 523.527053207 746.838016624 c 0
 546.355694109 741.312751319 560.999918304 721.503302113 560.999918304 699.968220878 c 0
 560.999918304 696.750364974 560.672949344 693.493980015 559.99745981 690.24096463 c 0
 555.341015918 667.816511149 534.935136603 652.026427749 512.739315248 652.026427749 c 0
 509.595881807 652.026427749 506.416547488 652.343129541 503.24096463 653.00254019 c 0
 503.133318016 653.024250431 487.150929383 656 474 656 c 0
 444.134626861 656 386.018873356 631.616227015 375.368104856 605.683921103 c 2
 343.134672315 528 l 1
 411 528 l 2
 437.144471708 528 459 506.146366075 459 480 c 0
 459 453.853633925 437.144471708 432 411 432 c 2
 303.301338982 432 l 1
 136.33497055 29.604066039 l 2
 128.742044702 11.3047970485 110.503253936 0.0912970831655 91.6056683119 0.0912970831655 c 0
 85.5636756769 0.0912970831655 79.454339192 1.23757236009 73.604066039 3.66502944963 c 0
 55.3058821481 11.2575050571 44.0912275609 29.4959547664 44.0912275609 48.394250531 c 0
 44.0912275609 54.4361421026 45.2374963643 60.5454776549 47.6650294496 66.395933961 c 2
 199.365327685 432 l 1
 151 432 l 2
 124.853633925 432 103 453.855528292 103 480 c 0
EndSplineSet
EndChar

StartChar: g
Encoding: 103 103 71
Width: 735
VWidth: 0
Flags: HW
LayerCount: 2
Fore
SplineSet
638.127210284 519.599425023 m 0
 651.853335364 510.196473309 658.599706528 494.916447943 658.599706528 479.788798404 c 0
 658.599706528 470.596337495 656.108608 461.460141381 651.178776988 453.733088179 c 0
 649.244293987 450.857572802 630.562411551 423.029917844 606.287522475 365.489440035 c 2
 447.328193713 -18.4123350882 l 2
 410.702311456 -106.314452505 315.055325686 -192 183 -192 c 0
 99.6535221593 -192 52.3716839832 -158.915633194 46.0411768618 -154.288434034 c 0
 33.4548015392 -144.440921691 27.0532853236 -130.139412913 27.0532853236 -115.827846851 c 0
 27.0532853236 -105.963242732 30.0946454853 -96.0938603964 36.2483154897 -87.6749766529 c 0
 45.4266625553 -75.118008722 59.5503651016 -68.027327585 74.5252338536 -68.027327585 c 0
 84.1645121047 -68.027327585 94.1564675337 -70.965321828 103.409125901 -77.2745576942 c 0
 103.703031557 -77.4683684895 132.325583951 -96 183 -96 c 0
 270.944674314 -96 335.297688544 -37.6855474948 358.671806287 18.4123350882 c 2
 361.827750833 26.0342388975 l 1
 316.133884605 4.47485269452 267.434376603 -8 219 -8 c 0
 104.43014936 -8 25.1718915687 70.1291326264 25.1718915687 176.616695365 c 0
 25.1718915687 210.905210038 32.8140563525 246.288295739 47.6080407311 282.257983248 c 0
 105.777345828 423.689234855 259.48284643 536 405 536 c 0
 466.375697236 536 518.123220336 513.541602764 552.732068559 475.916531747 c 1
 563.180452798 495.039511906 570.210634885 505.390184039 571.844381841 507.775075054 c 0
 581.057816963 520.32328154 596.212593737 527.754606754 611.68419253 527.754606754 c 0
 620.768861196 527.754606754 629.962765199 525.192400642 638.127210284 519.599425023 c 0
432.676149422 197.139805302 m 1
 502.39718772 365.522690247 l 1
 497.144340117 411.11223512 467.730440586 440 405 440 c 0
 306.51715357 440 180.222654172 352.310765145 136.391959269 245.742016752 c 0
 125.646282295 219.615272739 121.17176585 196.394354816 121.17176585 176.527941809 c 0
 121.17176585 122.268651763 150.661854096 88 219 88 c 0
 287.873248358 88 373.043658569 130.866554267 432.676149422 197.139805302 c 1
EndSplineSet
EndChar

StartChar: h
Encoding: 104 104 72
Width: 730
VWidth: 0
Flags: HW
AnchorPoint: "above" 537 784 basechar 0
LayerCount: 2
Fore
SplineSet
331.422190297 732.324066879 m 0
 349.706743898 724.724549288 360.908538901 706.493874636 360.908538901 687.605668165 c 0
 360.908538901 681.554555413 359.758859716 675.435957882 357.324066879 669.577809703 c 2
 286.083673302 498.172351474 l 1
 332.951232389 519.298552575 389.218324016 536 450 536 c 0
 529.488327022 536 601.790287855 486.212876791 601.790287855 401.597734896 c 0
 601.790287855 378.811170171 596.73816586 356.399419959 587.373052853 333.696115698 c 2
 461.342138456 29.6213505083 l 2
 453.753855085 11.3131112633 435.509948745 0.0911433716504 416.605722578 0.0911433716504 c 0
 410.569798855 0.0911433716504 404.466558246 1.23517675769 398.621350508 3.65786154388 c 0
 380.314197288 11.2456947866 369.091073881 29.4892589225 369.091073881 48.3941957204 c 0
 369.091073881 54.4300187566 370.235100884 60.5332586925 372.657861544 66.3786494917 c 2
 498.642372841 370.341279923 l 2
 503.972686483 383.263252388 505.790440752 393.497358001 505.790440752 401.637164054 c 0
 505.790440752 422.222494577 494.750143611 440 450 440 c 0
 349.848581219 440 249.243723305 366.691583885 222.779109284 345.860618497 c 1
 91.3240668788 29.5778097035 l 2
 83.7245492881 11.2932561016 65.4938746356 0.0914610993227 46.6056681655 0.0914610993227 c 0
 40.5545554127 0.0914610993227 34.4359578823 1.24114028437 28.5778097035 3.67593312117 c 0
 10.2921724073 11.2759011224 -0.908469330574 29.5069150905 -0.908469330574 48.3944121631 c 0
 -0.908469330574 54.4456265521 0.241216465419 60.5642254105 2.67593312117 66.4221902965 c 2
 268.675933121 706.422190297 l 2
 276.275901122 724.707827593 294.506915091 735.908469331 313.394412163 735.908469331 c 0
 319.445626552 735.908469331 325.56422541 734.758783535 331.422190297 732.324066879 c 0
EndSplineSet
EndChar

StartChar: i
Encoding: 105 105 73
Width: 360
VWidth: 0
Flags: HW
LayerCount: 2
Fore
SplineSet
28.6259611158 3.65595084928 m 0
 10.3164158024 11.2425448565 -0.908967104922 29.4874727392 -0.908967104922 48.394180927 c 0
 -0.908967104922 54.4283854234 0.234462335255 60.5299995654 2.65595084928 66.3740388842 c 2
 181.655950849 498.374038884 l 2
 189.242544856 516.683584198 207.487472739 527.908967105 226.394180927 527.908967105 c 0
 232.428385423 527.908967105 238.529999565 526.765537665 244.374038884 524.344049151 c 0
 262.684670469 516.757005045 273.908897623 498.511734652 273.908897623 479.605737226 c 0
 273.908897623 473.571432143 272.765461823 467.469817398 270.344049151 461.625961116 c 2
 91.3440491507 29.6259611158 l 2
 83.757005045 11.315329531 65.5117346524 0.0911023771115 46.6057372261 0.0911023771115 c 0
 40.5714321434 0.0911023771115 34.469817398 1.2345381768 28.6259611158 3.65595084928 c 0
280.538461538 611.692307692 m 0
 262.274346334 619.302355694 251.09181128 637.521365246 251.09181128 656.394449251 c 0
 251.09181128 662.459387 252.246612456 668.591869894 254.692307692 674.461538462 c 2
 274.692307692 722.461538462 l 2
 282.302355694 740.725653666 300.521365246 751.90818872 319.394449251 751.90818872 c 0
 325.459387 751.90818872 331.591869894 750.753387544 337.461538462 748.307692308 c 0
 355.726735254 740.697193644 366.908119079 722.477847382 366.908119079 703.605471664 c 0
 366.908119079 697.540431419 365.753311085 691.407946603 363.307692308 685.538461538 c 2
 343.307692308 637.538461538 l 2
 335.697193644 619.273264746 317.477847382 608.091880921 298.605471664 608.091880921 c 0
 292.540431419 608.091880921 286.407946603 609.246688915 280.538461538 611.692307692 c 0
EndSplineSet
EndChar

StartChar: j
Encoding: 106 106 74
Width: 360
VWidth: 0
Flags: HW
LayerCount: 2
Fore
SplineSet
244.345684119 524.355787381 m 0
 262.669936272 516.776822796 273.909219092 498.523512817 273.909219092 479.605911649 c 0
 273.909219092 473.58165885 272.769460577 467.490041296 270.355787381 461.654315881 c 2
 45.2668754641 -82.5606533763 l 2
 20.7211930036 -140.315200342 -42.5858775374 -192 -132 -192 c 0
 -148.464227813 -192 -158.927293915 -189.39390242 -161.877976071 -188.757827225 c 0
 -184.54264151 -183.090069427 -198.999805936 -163.361128787 -198.999805936 -141.965577743 c 0
 -198.999805936 -138.630250044 -198.648477593 -135.254421493 -197.922145265 -131.88504653 c 0
 -193.122427775 -109.619690395 -172.811290715 -94.0305395381 -150.732119332 -94.0305395381 c 0
 -147.465777808 -94.0305395381 -144.160741866 -94.371716818 -140.861508447 -95.0829288124 c 0
 -140.54279937 -95.1446144402 -135.14725461 -96 -132 -96 c 0
 -81.4141224626 -96 -52.7211930036 -67.6847996577 -43.2668754641 -45.4393466237 c 2
 181.644212619 498.345684119 l 2
 189.223627117 516.671024061 207.477281489 527.909149662 226.39417109 527.909149662 c 0
 232.418523858 527.909149662 238.51014159 526.769384934 244.345684119 524.355787381 c 0
280.538461538 611.692307692 m 0
 262.274346334 619.302355694 251.09181128 637.521365246 251.09181128 656.394449251 c 0
 251.09181128 662.459387 252.246612456 668.591869894 254.692307692 674.461538462 c 2
 274.692307692 722.461538462 l 2
 282.302355694 740.725653666 300.521365246 751.90818872 319.394449251 751.90818872 c 0
 325.459387 751.90818872 331.591869894 750.753387544 337.461538462 748.307692308 c 0
 355.726735254 740.697193644 366.908119079 722.477847382 366.908119079 703.605471664 c 0
 366.908119079 697.540431419 365.753311085 691.407946603 363.307692308 685.538461538 c 2
 343.307692308 637.538461538 l 2
 335.697193644 619.273264746 317.477847382 608.091880921 298.605471664 608.091880921 c 0
 292.540431419 608.091880921 286.407946603 609.246688915 280.538461538 611.692307692 c 0
EndSplineSet
EndChar

StartChar: k
Encoding: 107 107 75
Width: 660
VWidth: 0
Flags: HW
AnchorPoint: "above" 502 784 basechar 0
LayerCount: 2
Fore
SplineSet
404.161250808 1.56613327775 m 0
 400.219433044 0.533752434741 396.24390372 0.041294439266 392.315842556 0.041294439266 c 0
 371.0407329 0.041294439266 351.158105038 14.4875842873 345.566133278 35.8387491918 c 2
 285.14238441 266.547608507 l 1
 155.160362488 183.168896884 l 1
 91.3240668788 29.5778097035 l 2
 83.7240988776 11.2921724073 65.4930849095 0.091530669426 46.6055878369 0.091530669426 c 0
 40.5543734479 0.091530669426 34.4357745895 1.24121646542 28.5778097035 3.67593312117 c 0
 10.2932561016 11.2754507119 -0.908538900677 29.5061253644 -0.908538900677 48.3943318345 c 0
 -0.908538900677 54.4454445873 0.24114028437 60.5640421177 2.67593312117 66.4221902965 c 2
 268.675933121 706.422190297 l 2
 276.275450712 724.706743898 294.506125364 735.908538901 313.394331835 735.908538901 c 0
 319.445444587 735.908538901 325.564042118 734.758859716 331.422190297 732.324066879 c 0
 349.707827593 724.724098878 360.908469331 706.493084909 360.908469331 687.605587837 c 0
 360.908469331 681.554373448 359.758783535 675.43577459 357.324066879 669.577809703 c 2
 219.796218952 338.683739503 l 1
 503.083491893 520.402160927 l 2
 510.942293586 525.443294696 519.845084832 527.843093994 528.686919244 527.843093994 c 0
 544.605660722 527.843093994 560.326816683 520.064383163 569.402160927 505.916508107 c 0
 574.443145363 498.057939214 576.843033268 489.155015085 576.843033268 480.312902202 c 0
 576.843033268 464.394719914 569.065071672 448.67362497 554.916508107 439.597839073 c 2
 370.106181566 321.048775951 l 1
 438.433866722 60.1612508082 l 2
 439.466286107 56.2192858838 439.958752743 52.2436891334 439.958752743 48.315616362 c 0
 439.958752743 27.0395586168 425.511007214 7.15773614591 404.161250808 1.56613327775 c 0
EndSplineSet
EndChar

StartChar: l
Encoding: 108 108 76
Width: 360
VWidth: 0
Flags: HW
AnchorPoint: "above" 352 784 basechar 0
LayerCount: 2
Fore
SplineSet
331.415241976 732.326954136 m 0
 349.703403231 724.729298909 360.908600713 706.496566021 360.908600713 687.605689451 c 0
 360.908600713 681.557017248 359.75982461 675.440871023 357.326954136 669.584758024 c 2
 131.276548651 125.463428007 l 2
 108.267843708 70.9242755489 104.974895502 44.7637851897 104.667518481 42.3899679057 c 0
 101.439038071 17.583867697 80.5814335896 0.000719180129359 56.9768027812 0.000719180129359 c 0
 55.4499560863 0.000719180129359 53.911615707 0.0742878809517 52.3658093592 0.22422918356 c 0
 27.9774790917 2.58986703593 9.04215342667 23.1121022017 9.04215342667 48.5434462681 c 0
 9.04215342667 59.9935550686 12.8072363423 91.6240623473 42.7234513493 162.536571993 c 2
 268.673045864 706.415241976 l 2
 276.271151457 724.704487297 294.504224121 735.908531156 313.394391097 735.908531156 c 0
 319.443164785 735.908531156 325.559312233 734.759748478 331.415241976 732.326954136 c 0
EndSplineSet
EndChar

StartChar: m
Encoding: 109 109 77
Width: 1080
VWidth: 0
Flags: HW
AnchorPoint: "above" 626 576 basechar 0
LayerCount: 2
Fore
SplineSet
28.6259611158 3.65595084928 m 0
 10.3164158024 11.2425448565 -0.908967104922 29.4874727392 -0.908967104922 48.394180927 c 0
 -0.908967104922 54.4283854234 0.234462335255 60.5299995654 2.65595084928 66.3740388842 c 2
 181.655950849 498.374038884 l 2
 189.242544856 516.683584198 207.487472739 527.908967105 226.394180927 527.908967105 c 0
 232.428385423 527.908967105 238.529999565 526.765537665 244.374038884 524.344049151 c 0
 257.778887633 518.789725248 267.385839914 507.523218199 271.571413046 494.467066014 c 1
 318.20853802 517.355786336 375.872346523 536 440 536 c 0
 497.695274405 536 551.604526954 509.770452039 576.827968411 463.031622541 c 1
 628.740705256 497.351561041 707.670753427 536 800 536 c 0
 879.488327022 536 951.790287855 486.212876791 951.790287855 401.597734896 c 0
 951.790287855 378.811170171 946.73816586 356.399419959 937.373052853 333.696115698 c 2
 811.342138456 29.6213505083 l 2
 803.753855085 11.3131112632 785.509948745 0.0911433716505 766.605722578 0.0911433716505 c 0
 760.569798855 0.0911433716505 754.466558246 1.23517675769 748.621350508 3.65786154388 c 0
 730.314197288 11.2456947866 719.091073881 29.4892589225 719.091073881 48.3941957204 c 0
 719.091073881 54.4300187566 720.235100884 60.5332586925 722.657861544 66.3786494917 c 2
 848.642372841 370.341279923 l 2
 853.972686483 383.263252388 855.790440752 393.497358001 855.790440752 401.637164054 c 0
 855.790440752 422.222494577 844.750143611 440 800 440 c 0
 697.778503544 440 603.028314934 363.848123266 581.86858522 345.561874738 c 0
 580.503231991 341.604635042 579.00338122 337.648426892 577.373052853 333.696115698 c 2
 451.342138456 29.6213505083 l 2
 443.753855085 11.3131112633 425.509948745 0.0911433716504 406.605722578 0.0911433716504 c 0
 400.569798855 0.0911433716504 394.466558246 1.23517675769 388.621350508 3.65786154388 c 0
 370.314197288 11.2456947866 359.091073881 29.4892589225 359.091073881 48.3941957204 c 0
 359.091073881 54.4300187566 360.235100884 60.5332586925 362.657861544 66.3786494917 c 2
 488.642372841 370.341279923 l 2
 493.972686483 383.263252388 495.790440752 393.497358001 495.790440752 401.637164054 c 0
 495.790440752 422.222494577 484.750143611 440 440 440 c 0
 338.710994 440 244.757607239 365.231139774 222.465979921 346.076654371 c 1
 91.3440491507 29.6259611158 l 2
 83.757005045 11.315329531 65.5117346524 0.0911023771115 46.6057372261 0.0911023771115 c 0
 40.5714321434 0.0911023771115 34.469817398 1.2345381768 28.6259611158 3.65595084928 c 0
EndSplineSet
EndChar

StartChar: n
Encoding: 110 110 78
Width: 725
VWidth: 0
Flags: HW
AnchorPoint: "above" 449 576 basechar 0
LayerCount: 2
Fore
SplineSet
28.6259611158 3.65595084928 m 0
 10.3164158024 11.2425448565 -0.908967104922 29.4874727392 -0.908967104922 48.394180927 c 0
 -0.908967104922 54.4283854234 0.234462335255 60.5299995654 2.65595084928 66.3740388842 c 2
 181.655950849 498.374038884 l 2
 189.242544856 516.683584198 207.487472739 527.908967105 226.394180927 527.908967105 c 0
 232.428385423 527.908967105 238.529999565 526.765537665 244.374038884 524.344049151 c 0
 258.245973762 518.596187245 268.050728877 506.731129703 271.989130792 493.095905455 c 1
 320.010700001 516.582347136 379.509274917 536 445 536 c 0
 524.488327022 536 596.790287855 486.212876791 596.790287855 401.597734896 c 0
 596.790287855 378.811170171 591.73816586 356.399419959 582.373052853 333.696115698 c 2
 456.342138456 29.6213505083 l 2
 448.753855085 11.3131112633 430.509948745 0.0911433716504 411.605722578 0.0911433716504 c 0
 405.569798855 0.0911433716504 399.466558246 1.23517675769 393.621350508 3.65786154388 c 0
 375.314197288 11.2456947866 364.091073881 29.4892589225 364.091073881 48.3941957204 c 0
 364.091073881 54.4300187566 365.235100884 60.5332586925 367.657861544 66.3786494917 c 2
 493.642372841 370.341279923 l 2
 498.972686483 383.263252388 500.790440752 393.497358001 500.790440752 401.637164054 c 0
 500.790440752 422.222494577 489.750143611 440 445 440 c 0
 343.898112732 440 246.1885616 365.368799728 222.320690833 345.726012551 c 1
 91.3440491507 29.6259611158 l 2
 83.757005045 11.315329531 65.5117346524 0.0911023771115 46.6057372261 0.0911023771115 c 0
 40.5714321434 0.0911023771115 34.469817398 1.2345381768 28.6259611158 3.65595084928 c 0
EndSplineSet
EndChar

StartChar: o
Encoding: 111 111 79
Width: 710
VWidth: 0
Flags: HW
HStem: 40 448<259.621 450.379>
VStem: 135 440<157.228 370.772>
AnchorPoint: "middle" 312 264 basechar 0
AnchorPoint: "above" 441 576 basechar 0
LayerCount: 2
Fore
SplineSet
576.391959269 245.742016752 m 0
 518.220455376 104.305419053 364.512134872 -8 219 -8 c 0
 188.416019449 -8 159.74568498 -2.8168023259 134.056198817 7.69499195789 c 0
 61.7354804321 37.287663033 25.8770020625 102.7367291 25.8770020625 177.691203356 c 0
 25.8770020625 211.422294948 33.1390234531 247.078411826 47.6080407311 282.257983248 c 0
 105.779544624 423.694580947 259.487865128 536 405 536 c 0
 435.583980551 536 464.25431502 530.816802326 489.943801183 520.305008042 c 0
 562.264519568 490.712336967 598.122997937 425.2632709 598.122997937 350.308796644 c 0
 598.122997937 316.577705052 590.860976547 280.921588174 576.391959269 245.742016752 c 0
487.608040731 282.257983248 m 0
 498.719558297 309.274222036 503.548771116 332.603452859 503.548771116 352.394535417 c 0
 503.548771116 393.730868535 482.481846527 419.632408139 453.587762583 431.455480991 c 0
 440.874889702 436.657418609 424.794128902 440 405 440 c 0
 306.512134872 440 180.220455376 352.305419053 136.391959269 245.742016752 c 0
 125.280441703 218.725777964 120.451228884 195.396547141 120.451228884 175.605464583 c 0
 120.451228884 134.269131465 141.518153473 108.367591861 170.412237417 96.5445190093 c 0
 183.125110298 91.3425813908 199.205871098 88 219 88 c 0
 317.487865128 88 443.779544624 175.694580947 487.608040731 282.257983248 c 0
EndSplineSet
EndChar

StartChar: p
Encoding: 112 112 80
Width: 735
VWidth: 0
Flags: HW
AnchorPoint: "above" 454 576 basechar 0
LayerCount: 2
Fore
SplineSet
99.5706211456 48.592517558 m 1
 12.3580023522 -162.340327896 l 2
 4.78048055983 -180.667357347 -13.4744118698 -191.909266678 -32.3940705545 -191.909266678 c 0
 -38.4164438913 -191.909266678 -44.5061734501 -190.770200825 -50.3403278956 -188.358002352 c 0
 -68.6684454221 -180.780030683 -79.9091972587 -162.524793503 -79.9091972587 -143.605846538 c 0
 -79.9091972587 -137.583373349 -78.7701252204 -131.493643693 -76.3580023522 -125.659672104 c 2
 181.641997648 498.340327896 l 2
 189.219969317 516.668445422 207.475206497 527.909197259 226.394153462 527.909197259 c 0
 232.416626651 527.909197259 238.506356307 526.77012522 244.340327896 524.358002352 c 0
 257.840886142 518.77604077 267.496708462 507.400010802 271.646154813 494.232363269 c 1
 321.744138318 520.514466973 376.036628118 536 430 536 c 0
 460.583980551 536 489.25431502 530.816802326 514.943801183 520.305008042 c 0
 587.264519568 490.712336967 623.122997937 425.2632709 623.122997937 350.308796644 c 0
 623.122997937 316.577705052 615.860976547 280.921588174 601.391959269 245.742016752 c 0
 543.220455376 104.305419053 389.512134872 -8 244 -8 c 0
 184.546830945 -8 134.128249408 13.0734950835 99.5706211456 48.592517558 c 1
146.614786438 162.373754544 m 1
 151.900262575 116.843521203 181.317386034 88 244 88 c 1
 342.487865128 88 468.779544624 175.694580947 512.608040731 282.257983248 c 0
 523.719558297 309.274222036 528.548771116 332.603452859 528.548771116 352.394535417 c 0
 528.548771116 393.730868535 507.481846527 419.632408139 478.587762583 431.455480991 c 0
 465.874889702 436.657418609 449.794128902 440 430 440 c 0
 361.093684695 440 275.874553082 397.092274627 216.237973351 330.764718241 c 1
 146.614786438 162.373754544 l 1
EndSplineSet
EndChar

StartChar: q
Encoding: 113 113 81
Width: 735
VWidth: 0
Flags: HW
AnchorPoint: "above" 454 576 basechar 0
LayerCount: 2
Fore
SplineSet
324.61003609 -188.337447236 m 0
 306.308753885 -180.746574503 295.091174475 -162.506357925 295.091174475 -143.605768285 c 0
 295.091174475 -137.56597294 296.23666867 -131.458742948 298.662552764 -125.61003609 c 2
 361.495522203 25.8776710506 l 1
 319.331061772 6.03050086277 224.003701485 -8.28956607039 218.484707318 -8.28956607039 c 0
 218.035329575 -8.28956607039 218.181367204 -8.1946262743 219 -8 c 1
 104.43014936 -8 25.1718915687 70.1291326264 25.1718915687 176.616695365 c 0
 25.1718915687 210.905210038 32.8140563525 246.288295739 47.6080407311 282.257983248 c 0
 105.777345828 423.689234855 259.48284643 536 405 536 c 0
 466.381411956 536 518.132856724 513.537420346 552.741735451 475.906021489 c 1
 563.398871671 495.410981482 570.496486658 505.80746122 571.844381841 507.775075054 c 0
 581.625441493 521.096355829 596.370081957 527.951955731 611.172762736 527.951955731 c 0
 620.549973227 527.951955731 629.950475159 525.200819818 638.127210284 519.599425023 c 0
 651.484120593 510.449400383 658.883080277 495.433038172 658.883080277 479.968340756 c 0
 658.883080277 471.023801513 656.40791756 461.929281376 651.178776988 453.733088179 c 0
 649.663799942 451.481148106 630.788489597 423.565806545 606.281867951 365.476036718 c 2
 387.337447236 -162.38996391 l 2
 379.746124301 -180.692331534 361.50556627 -191.908756014 342.60568694 -191.908756014 c 0
 336.565790661 -191.908756014 330.458559826 -190.763255377 324.61003609 -188.337447236 c 0
432.40600499 196.839930919 m 1
 502.391489383 365.572057677 l 1
 497.123098732 411.133088525 467.707794676 440 405 440 c 0
 306.51715357 440 180.222654172 352.310765145 136.391959269 245.742016752 c 0
 125.646282295 219.615272739 121.17176585 196.394354816 121.17176585 176.527941809 c 0
 121.17176585 122.268651763 150.661854096 88 219 88 c 0
 287.769313307 88 372.786638229 130.737274005 432.40600499 196.839930919 c 1
EndSplineSet
EndChar

StartChar: r
Encoding: 114 114 82
Width: 530
VWidth: 0
Flags: HW
AnchorPoint: "above" 351 576 basechar 0
LayerCount: 2
Fore
SplineSet
244.374038884 524.344049151 m 0
 262.683584198 516.757455144 273.908967105 498.512527261 273.908967105 479.605819073 c 0
 273.908967105 473.571614577 272.765537665 467.470000435 270.344049151 461.625961116 c 2
 268.041480206 456.068923215 l 1
 327.728672328 498.578658907 391.843083676 528 456 528 c 0
 482.146366075 528 504 506.144471708 504 480 c 0
 504 453.855528292 482.146366075 432 456 432 c 0
 385.848521639 432 270.556932764 345.029986674 180.028708593 243.658211837 c 1
 91.3440491507 29.6259611158 l 2
 83.7574551435 11.3164158024 65.5125272608 0.0910328950783 46.605819073 0.0910328950783 c 0
 40.5716145766 0.0910328950783 34.4700004346 1.23446233525 28.6259611158 3.65595084928 c 0
 10.315329531 11.242994955 -0.908897622888 29.4882653476 -0.908897622888 48.3942627739 c 0
 -0.908897622888 54.4285678566 0.234538176795 60.530182602 2.65595084928 66.3740388842 c 2
 181.655950849 498.374038884 l 2
 189.242994955 516.684670469 207.488265348 527.908897623 226.394262774 527.908897623 c 0
 232.428567857 527.908897623 238.530182602 526.765461823 244.374038884 524.344049151 c 0
EndSplineSet
EndChar

StartChar: s
Encoding: 115 115 83
Width: 620
VWidth: 0
Flags: HW
AnchorPoint: "bottom" 174 40 basechar 0
LayerCount: 2
Fore
SplineSet
525.999838674 390.430687477 m 0
 518.653000939 386.18902675 510.691057989 384.276048921 502.84871226 384.276048921 c 0
 485.967940068 384.276048921 469.641300529 393.139494576 461.196203016 406.720433631 c 0
 459.721063643 408.702239391 438.270917775 440 360 440 c 0
 277.172824959 440 207.428443138 393.323262489 197.404988281 369.771182643 c 0
 195.388783842 364.719951198 194.337706989 360.198759652 194.071515659 356.782689095 c 0
 194.051243826 356.522537825 193.435693863 355.175589401 193.435693863 353.150716891 c 0
 193.435693863 345.800558242 201.546450436 329.517774198 275.681431946 323.858615304 c 0
 319.066641173 320.521291517 353.12107725 313.692015884 381.043294206 302.011619982 c 0
 436.369380715 278.867662784 454.657669772 236.744934429 454.657669772 196.895735725 c 0
 454.657669772 176.903651649 450.054573791 157.483806734 443.215965387 141.319823233 c 0
 406.564405344 54.4420512798 302.524604774 -8 174 -8 c 0
 43.6984157209 -8 -9.22308316082 82.0122331675 -13.2699894551 89.243345202 c 0
 -17.0968988116 96.6392624156 -18.8934098445 104.435685758 -18.8934098445 112.048137546 c 0
 -18.8934098445 129.113970397 -9.86449090979 145.255197594 5.5581358008 153.88650144 c 0
 12.9674456604 158.033136503 21.0329179187 160.094095158 29.0466162442 160.094095158 c 0
 45.1632783219 160.094095158 61.0705313833 151.758175874 71.0097274291 135.287401762 c 0
 71.9604707621 133.759483793 100.311839204 88 174 88 c 0
 273.472359325 88 337.443871106 137.577566972 354.774520274 178.657624259 c 0
 359.669366746 190.227261374 362.850630562 196.394543696 362.850630562 200.521364735 c 0
 362.850630562 205.821988205 357.602286184 207.756325785 343.99555956 213.448279047 c 0
 329.984762166 219.30926282 305.305621601 225.296226731 268.318568054 228.141384696 c 0
 159.341183553 236.460269009 98.0032245399 286.930760132 98.0032245399 355.12521082 c 0
 98.0032245399 358.129997668 98.122309959 361.16919494 98.3616526363 364.240712976 c 0
 99.5881487547 379.980509116 103.464010655 393.551206664 108.586207716 406.20604646 c 0
 142.800009832 488.630206105 254.658760166 536 360 536 c 0
 488.191562529 536 536.568658547 468.1254563 543.961895785 455.319879001 c 0
 547.758252715 448.217328437 549.632772716 440.272139562 549.632772716 432.325019958 c 0
 549.632772716 415.889830707 541.615622907 399.446383903 525.999838674 390.430687477 c 0
EndSplineSet
EndChar

StartChar: t
Encoding: 116 116 84
Width: 430
VWidth: 0
Flags: HW
AnchorPoint: "bottom" 82 48 basechar 0
AnchorPoint: "above" 367 736 basechar 0
LayerCount: 2
Fore
SplineSet
103 480 m 0
 103 506.144471708 124.853633925 528 151 528 c 2
 229.480225532 528 l 1
 283.674606455 658.418997993 l 2
 291.273718906 676.706292998 309.505678773 687.908497736 328.394402505 687.908497736 c 0
 334.444495522 687.908497736 340.561968092 686.759226916 346.418997993 684.325393545 c 0
 364.705209133 676.726731484 375.9085673 658.495111144 375.9085673 639.605677924 c 0
 375.9085673 633.555686474 374.759303075 627.438215184 372.325393545 621.581002007 c 2
 333.438693387 528 l 1
 371 528 l 2
 397.144471708 528 419 506.146366075 419 480 c 0
 419 453.853633925 397.144471708 432 371 432 c 2
 293.546801495 432 l 1
 126.325393545 29.5810020066 l 2
 118.726731484 11.2947908668 100.495111144 0.0914326995742 81.6056779244 0.0914326995742 c 0
 75.5556864737 0.0914326995742 69.4382151835 1.2406969254 63.5810020066 3.67460645499 c 0
 45.2937070015 11.2737189064 34.0915022639 29.5056787733 34.0915022639 48.394402505 c 0
 34.0915022639 54.4444955222 35.2407730839 60.5619680922 37.674606455 66.4189979934 c 2
 189.58833364 432 l 1
 151 432 l 2
 124.853633925 432 103 453.855528292 103 480 c 0
EndSplineSet
EndChar

StartChar: u
Encoding: 117 117 85
Width: 725
VWidth: 0
Flags: HW
AnchorPoint: "above" 449 576 basechar 0
LayerCount: 2
Fore
SplineSet
609.374038884 524.344049151 m 0
 627.683584198 516.757455144 638.908967105 498.512527261 638.908967105 479.605819073 c 0
 638.908967105 473.571614577 637.765537665 467.470000435 635.344049151 461.625961116 c 2
 456.344049151 29.6259611158 l 2
 448.757455144 11.3164158024 430.512527261 0.0910328950784 411.605819073 0.0910328950784 c 0
 405.571614577 0.0910328950784 399.470000435 1.23446233525 393.625961116 3.65595084928 c 0
 379.898930413 9.34377144153 370.154552953 21.0216565162 366.13620738 34.4773843669 c 1
 318.267655188 11.1829260859 259.093685167 -8 194 -8 c 0
 114.494456492 -8 41.3354771108 41.6716607591 41.3354771108 126.911278431 c 0
 41.3354771108 149.281148067 46.3426943025 171.796604678 55.6269471473 194.303884302 c 2
 181.657861544 498.378649492 l 2
 189.246144915 516.686888737 207.490051255 527.908856628 226.394277422 527.908856628 c 0
 232.430201145 527.908856628 238.533441754 526.764823242 244.378649492 524.342138456 c 0
 262.685802712 516.754305213 273.908926119 498.510741077 273.908926119 479.60580428 c 0
 273.908926119 473.569981243 272.764899116 467.466741308 270.342138456 461.621350508 c 2
 144.357627159 157.658720077 l 2
 139.118357183 144.95745953 137.335469347 134.696808363 137.335469347 126.905469062 c 0
 137.335469347 106.359978468 148.815238704 88 194 88 c 0
 293.089081922 88 388.919557022 159.689163068 415.166528817 181.036439342 c 1
 546.655950849 498.374038884 l 2
 554.242994955 516.684670469 572.488265348 527.908897623 591.394262774 527.908897623 c 0
 597.428567857 527.908897623 603.530182602 526.765461823 609.374038884 524.344049151 c 0
EndSplineSet
EndChar

StartChar: v
Encoding: 118 118 86
Width: 620
VWidth: 0
Flags: HW
AnchorPoint: "above" 396 576 basechar 0
LayerCount: 2
Fore
SplineSet
166.999783057 527.989586723 m 0
 193.138582897 527.445028393 214.53418451 505.14091074 213.989586723 479.000216943 c 2
 206.855868429 136.581738815 l 1
 508.662073411 510.164204582 l 2
 518.037495743 521.769311881 532.070722021 527.816114095 546.172236647 527.816114095 c 0
 556.782581896 527.816114095 567.431588237 524.392748589 576.164204582 517.337926589 c 0
 587.769798912 507.962110799 593.816079843 493.929070513 593.816079843 479.828059371 c 0
 593.816079843 469.217339534 590.392523293 458.568132885 583.337926589 449.835795418 c 2
 234.337926589 17.835795418 l 2
 225.455839669 6.84134971814 211.44102258 0 197 0 c 2
 171 0 l 1
 157 0 l 2
 134.548106938 0 108.41231371 20.2910038376 109.010413277 48.9997830567 c 2
 118.010413277 480.999783057 l 2
 118.548218774 506.814446925 140.307962657 527.999757744 166.02358755 527.999757744 c 0
 166.348366653 527.999757744 166.673776749 527.996378521 166.999783057 527.989586723 c 0
EndSplineSet
EndChar

StartChar: w
Encoding: 119 119 87
Width: 870
VWidth: 0
Flags: HW
AnchorPoint: "above" 521 576 basechar 0
LayerCount: 2
Fore
SplineSet
170.315782044 527.805585713 m 0
 196.354360859 525.454880681 216.156461071 501.724683467 213.805585713 475.684217956 c 2
 186.779749459 176.321108685 l 1
 417.256719737 469.655434493 l 2
 426.671003576 481.637250288 443.188412087 488 455 488 c 2
 475 488 l 2
 503.260114093 488 524.081567543 462.452677098 522.949475968 437.798238348 c 2
 510.866988349 174.668507964 l 1
 757.386546069 508.513175472 l 2
 766.697215098 521.121981179 781.410701293 527.824982767 796.234635625 527.824982767 c 0
 806.137438524 527.824982767 816.08953016 524.83369202 824.513175472 518.613453931 c 0
 837.122543309 509.302369811 843.824936457 494.589030874 843.824936457 479.765621264 c 0
 843.824936457 469.862479684 840.833500868 459.910210976 834.613453931 451.486824528 c 2
 515.613453931 19.4868245277 l 2
 507.94400639 9.10061343716 492.639574552 0 477 0 c 2
 457 0 l 2
 432.319583038 0 407.754231626 21.9713937024 409.050524032 50.2017616516 c 2
 421.419415803 319.568738013 l 1
 184.743280263 18.3445655073 l 2
 177.445826688 9.05689732074 162.237868944 0 147 0 c 2
 127 0 l 2
 104.001014002 0 76.453020258 21.9495712594 79.1944142871 52.3157820435 c 2
 118.194414287 484.315782044 l 2
 120.418076339 508.94711554 141.771394 527.995131304 166.111978107 527.995131304 c 0
 167.504476662 527.995131304 168.906752124 527.932789803 170.315782044 527.805585713 c 0
EndSplineSet
EndChar

StartChar: x
Encoding: 120 120 88
Width: 620
VWidth: 0
Flags: HW
AnchorPoint: "above" 396 576 basechar 0
LayerCount: 2
Fore
SplineSet
553.178115975 510.360956713 m 0
 560.336845944 501.594826728 563.815193034 490.860857479 563.815193034 480.163907415 c 0
 563.815193034 466.150554331 557.845704685 452.200733031 546.360956713 442.821884025 c 2
 331.722243821 267.540364234 l 1
 411.630717427 65.6663256484 l 2
 413.861289373 60.0311965231 414.915147083 54.1781526599 414.915147083 48.3911610113 c 0
 414.915147083 29.2137324101 403.341852299 10.7616785386 384.666325648 3.36928257258 c 0
 379.03101724 1.13863966087 373.177963626 0.084784911027 367.391057379 0.084784911027 c 0
 348.212897221 0.084784911027 329.761233591 11.6592717792 322.369282573 30.3336743516 c 2
 253.696802392 203.822045335 l 1
 17.3609567132 10.8218840249 l 2
 8.59482672802 3.66315405589 -2.13914252092 0.184806965614 -12.8360925854 0.184806965614 c 0
 -26.8494456686 0.184806965614 -40.7992669694 6.15429531451 -50.1781159751 17.6390432868 c 0
 -57.3370757858 26.4054547216 -60.8152257125 37.1392212704 -60.8152257125 47.8357926225 c 0
 -60.8152257125 61.8496466029 -54.8452262858 75.7996576474 -43.3609567132 85.1781159751 c 2
 216.620613322 297.488207195 l 1
 151.369282573 462.333674352 l 2
 149.138639661 467.96898276 148.084784911 473.822036374 148.084784911 479.608942621 c 0
 148.084784911 498.787102779 159.659271779 517.238766409 178.333674352 524.630717427 c 0
 183.968803477 526.861289373 189.82184734 527.915147083 195.608838989 527.915147083 c 0
 214.78626759 527.915147083 233.238321461 516.341852299 240.630717427 497.666325648 c 2
 294.646054751 361.206526094 l 1
 485.639043287 517.178115975 l 2
 494.405454722 524.337075786 505.13922127 527.815225712 515.835792623 527.815225712 c 0
 529.849646603 527.815225712 543.799657647 521.845226286 553.178115975 510.360956713 c 0
EndSplineSet
EndChar

StartChar: y
Encoding: 121 121 89
Width: 620
VWidth: 0
Flags: HW
AnchorPoint: "above" 396 576 basechar 0
LayerCount: 2
Fore
SplineSet
164.487238322 527.976156079 m 0
 164.980683776 527.99171517 165.472846249 527.999437487 165.963603792 527.999437487 c 0
 191.461986468 527.999437487 213.167690868 507.152658381 213.976156079 481.512761678 c 2
 224.031491435 162.614983231 l 1
 472.431895814 465.130598564 505.629488551 506.322005104 509.152312861 510.769979411 c 0
 517.845110017 521.510902978 532.506964469 526.95471208 547.518881221 526.95471208 c 0
 553.375427963 526.95471208 559.285253731 526.126171431 564.914720882 524.460379883 c 1
 582.241197409 514.614056217 591.33451712 503.40883308 591.33451712 487.523983608 c 0
 591.33451712 427.812241035 462.842619194 301.975685024 160.169931027 -66.3712656699 c 0
 118.826149955 -117.255919297 42.0298393003 -194 -63 -194 c 0
 -84.8957578533 -194 -97.6274595513 -191.7491657 -101.121705397 -191.131885677 c 0
 -124.611146934 -186.184756782 -140.000677908 -166.071322034 -140.000677908 -143.982623475 c 0
 -140.000677908 -141.227216527 -139.761204869 -138.441072942 -139.268108943 -135.649797789 c 0
 -135.204209797 -112.645225839 -114.210373295 -95.9778492052 -91.9029937533 -95.9778492052 c 0
 -89.8169300546 -95.9778492052 -87.7193794695 -96.1236048113 -85.623112789 -96.4235638496 c 0
 -80.8763499266 -97.1609250709 -76.6430985693 -98 -63 -98 c 0
 -8.02983930026 -98 49.1738500446 -50.744080703 85.8300689725 -5.62873433012 c 0
 101.64611315 13.6190930179 116.873738363 32.1526689575 131.534753459 49.9983929893 c 1
 118.023843921 478.487238322 l 2
 117.199818491 504.620616233 138.355753837 527.152190352 164.487238322 527.976156079 c 0
EndSplineSet
EndChar

StartChar: z
Encoding: 122 122 90
Width: 630
VWidth: 0
Flags: HW
AnchorPoint: "above" 401 576 basechar 0
LayerCount: 2
Fore
SplineSet
410 48 m 0
 410 21.8555282921 388.146366075 0 362 0 c 2
 2 0 l 2
 -24.3548479083 0 -45.9966637886 22.1344177733 -45.9966637886 48.0898351674 c 0
 -45.9966637886 63.9261086075 -35.9978791984 78.9415365543 -28.3609567132 85.1781159751 c 2
 396.33528553 432 l 1
 191 432 l 2
 164.855528292 432 143 453.853633925 143 480 c 0
 143 506.146366075 164.855528292 528 191 528 c 2
 531 528 l 2
 542.90491093 528 556.560191198 522.717085898 565.681481958 513.184255441 c 0
 574.472029806 503.997090548 578.781476397 492.040631435 578.781476397 480.110378361 c 0
 578.781476397 466.152854541 572.883012233 452.231199685 561.360956713 442.821884025 c 2
 136.66471447 96 l 1
 362 96 l 2
 388.146366075 96 410 74.1444717079 410 48 c 0
EndSplineSet
EndChar

StartChar: braceleft
Encoding: 123 123 91
Width: 540
VWidth: 0
Flags: HW
LayerCount: 2
Fore
SplineSet
133.187118219 357.390848322 m 0
 132.294599688 361.329086338 131.933140262 365.282766439 132.053940822 369.174461602 c 0
 132.123828564 373.067399149 132.678431659 376.998635034 133.762699512 380.888446129 c 0
 136.152733 389.462691267 140.849361748 396.877889191 146.998880071 402.652342884 c 0
 153.068306761 408.514613886 160.706668771 412.844793416 169.390848322 414.812881781 c 0
 469.317458731 482.784918135 189.303053217 722.781653429 595.390848322 814.812881781 c 0
 598.838931105 815.594316973 602.298851317 815.968658535 605.718642904 815.968658535 c 0
 627.587519952 815.968658535 647.815399354 800.66054289 652.812881781 778.609151678 c 0
 653.594347746 775.160933111 653.968697913 771.700937809 653.968697913 768.28111607 c 0
 653.968697913 746.411209735 638.659059262 726.184264413 616.609151678 721.187118219 c 0
 348.00159987 660.312885514 544.551109632 461.443545111 296.781945316 354.477263141 c 1
 313.778616654 333.016983822 320.473022427 308.76090599 320.473022427 283.602009517 c 0
 320.473022427 194.58400477 236.665197694 94.2635380872 228.861205274 66.4909439344 c 0
 227.216511856 60.6378625423 224.888892951 55.343529756 224.888892951 50.171870742 c 0
 224.888892951 39.0671298509 235.620603976 28.5279881958 286.888446129 14.2373004876 c 0
 307.901789855 8.37992244555 321.953684277 -11.3312881022 321.953684277 -32.3301003266 c 0
 321.953684277 -36.4982428995 321.400040338 -40.7171169143 320.237300488 -44.8884461289 c 0
 314.379539906 -65.9031622156 294.667582717 -79.9536336233 273.669683825 -79.9536336233 c 0
 269.501542653 -79.9536336233 265.282731069 -79.3999979644 261.111553871 -78.2373004876 c 0
 174.840507074 -54.1896219378 131.271839639 -2.98295796981 131.271839639 56.3058461284 c 0
 131.271839639 68.0882101404 132.99249451 80.1897616467 136.440603198 92.4607785869 c 0
 166.230600436 198.476450901 230.741134244 247.695792861 230.741134244 280.060968005 c 0
 230.741134244 296.582379283 213.931084542 308.711959256 167.111553871 321.762699512 c 0
 158.533954634 324.153667941 151.11662381 328.852795756 145.341443566 335.005405748 c 0
 139.482223945 341.073954399 135.154436019 348.710063683 133.187118219 357.390848322 c 0
EndSplineSet
EndChar

StartChar: bar
Encoding: 124 124 92
Width: 360
VWidth: 0
Flags: HW
LayerCount: 2
Fore
SplineSet
364.398560466 812.333880642 m 0
 382.69538116 804.740700054 393.908749082 786.503027789 393.908749082 767.60574123 c 0
 393.908749082 761.562927377 392.762139395 755.452665445 390.333880642 749.601439534 c 2
 58.3338806418 -50.3985604664 l 2
 50.7407000539 -68.6953811602 32.5030277892 -79.9087490823 13.6057412296 -79.9087490823 c 0
 7.56292737744 -79.9087490823 1.45266544489 -78.762139395 -4.39856046637 -76.3338806418 c 0
 -22.6964661193 -68.7402497959 -33.9086795552 -50.5022366489 -33.9086795552 -31.6056601554 c 0
 -33.9086795552 -25.5627451825 -32.7620633807 -19.4524822779 -30.3338806418 -13.6014395336 c 2
 301.666119358 786.398560466 l 2
 309.259750204 804.696466119 327.497763351 815.908679555 346.394339845 815.908679555 c 0
 352.437254818 815.908679555 358.547517722 814.762063381 364.398560466 812.333880642 c 0
EndSplineSet
EndChar

StartChar: braceright
Encoding: 125 125 93
Width: 540
VWidth: 0
Flags: HW
LayerCount: 2
Fore
SplineSet
406.812881781 378.609151678 m 0
 407.705400312 374.670913662 408.066859738 370.717233561 407.946059178 366.825538398 c 0
 407.876171436 362.932600851 407.321568341 359.001364966 406.237300488 355.111553871 c 0
 403.847267 346.537308733 399.150638252 339.122110809 393.001119929 333.347657116 c 0
 386.931693239 327.485386114 379.293331229 323.155206584 370.609151678 321.187118219 c 0
 70.6825412687 253.215081865 350.696946783 13.2183465712 -55.3908483215 -78.8128817812 c 0
 -58.8389311048 -79.5943169729 -62.2988513167 -79.9686585347 -65.7186429042 -79.9686585347 c 0
 -87.5875199521 -79.9686585347 -107.815399354 -64.6605428904 -112.812881781 -42.6091516785 c 0
 -113.594347746 -39.1609331111 -113.968697913 -35.7009378092 -113.968697913 -32.2811160702 c 0
 -113.968697913 -10.4112097345 -98.6590592615 9.81573558677 -76.6091516785 14.8128817812 c 0
 191.99840013 75.6871144858 -4.55110963218 274.556454889 243.218054684 381.522736859 c 1
 226.221383346 402.983016178 219.526977573 427.23909401 219.526977573 452.397990483 c 0
 219.526977573 541.41599523 303.334802306 641.736461913 311.138794726 669.509056066 c 0
 312.783488144 675.362137458 315.111107049 680.656470244 315.111107049 685.828129258 c 0
 315.111107049 696.932870149 304.379396024 707.472011804 253.111553871 721.762699512 c 0
 232.098210145 727.620077554 218.046315723 747.331288102 218.046315723 768.330100327 c 0
 218.046315723 772.4982429 218.599959662 776.717116914 219.762699512 780.888446129 c 0
 225.620460094 801.903162216 245.332417283 815.953633623 266.330316175 815.953633623 c 0
 270.498457347 815.953633623 274.717268931 815.399997964 278.888446129 814.237300488 c 0
 365.159492926 790.189621938 408.728160361 738.98295797 408.728160361 679.694153872 c 0
 408.728160361 667.91178986 407.00750549 655.810238353 403.559396802 643.539221413 c 0
 373.769399564 537.523549099 309.258865756 488.304207139 309.258865756 455.939031995 c 0
 309.258865756 439.417620717 326.068915458 427.288040744 372.888446129 414.237300488 c 0
 381.466045366 411.846332059 388.88337619 407.147204244 394.658556434 400.994594252 c 0
 400.517776055 394.926045601 404.845563981 387.289936317 406.812881781 378.609151678 c 0
EndSplineSet
EndChar

StartChar: asciitilde
Encoding: 126 126 94
Width: 810
VWidth: 0
Flags: HW
LayerCount: 2
Fore
SplineSet
35.3917788223 179.876318654 m 0
 24.6793332837 189.2497085 19.1894588116 202.661083518 19.1894588116 216.110642488 c 0
 19.1894588116 227.36410365 23.0328851347 238.644297156 30.8763186541 247.608221178 c 0
 100.246426464 326.888344389 167.194196252 351.02579117 230.989374005 351.02579117 c 0
 330.31795344 351.02579117 422.003943627 292.511213575 503.291002776 292.511213575 c 0
 541.552525759 292.511213575 577.510112903 305.475414605 610.876318654 343.608221178 c 0
 620.2497085 354.320666716 633.661083518 359.810541188 647.110642488 359.810541188 c 0
 658.36410365 359.810541188 669.644297156 355.967114865 678.608221178 348.123681346 c 0
 689.321092108 338.749919282 694.810519095 325.338753423 694.810519095 311.88967835 c 0
 694.810519095 300.635813167 690.966853524 289.355404168 683.123681346 280.391778822 c 0
 613.75345917 201.111524908 546.805755729 176.974016906 483.010708456 176.974016906 c 0
 383.682106724 176.974016906 291.996284407 235.489008545 210.709162031 235.489008545 c 0
 172.447655923 235.489008545 136.490028838 222.524747385 103.123681346 184.391778822 c 0
 93.7499192821 173.678907892 80.3387534232 168.189480905 66.8896783496 168.189480905 c 0
 55.6358131673 168.189480905 44.3554041684 172.033146476 35.3917788223 179.876318654 c 0
EndSplineSet
EndChar

StartChar: tildecomb
Encoding: 771 771 95
Width: 0
VWidth: 0
Flags: HW
AnchorPoint: "above" 149 728 mark 0
LayerCount: 2
Fore
SplineSet
-19.1198963886 785.099210457 m 0
 -32.1986941292 794.553374284 -38.6150923567 809.304490435 -38.6150923567 824.018934331 c 0
 -38.6150923567 833.695260764 -35.8403374676 843.355728374 -30.3607856836 851.48355778 c 0
 -26.7281876855 856.50885831 28.8820463316 936 135 936 c 0
 260.847110243 936 234.979224397 872 269 872 c 0
 319.676021806 872 352.384859632 911.258443808 357.741498824 918.283947088 c 0
 366.348168552 929.404934787 380.71243615 935.668866581 395.297360442 935.668866581 c 0
 405.020272799 935.668866581 414.841247324 932.885109057 423.119896389 926.900789543 c 0
 435.871074458 917.683449475 442.901941039 903.138941969 442.901941039 888.097011376 c 0
 442.901941039 878.70556857 440.161210545 869.120223261 434.360785684 860.51644222 c 0
 431.604289584 856.703132485 375.713119791 776 269 776 c 0
 143.020775603 776 169.152889757 840 135 840 c 0
 84.6569311524 840 52.1524416452 801.446253997 46.2585011764 793.716052912 c 0
 38.238321025 783.352889503 23.4202935531 776.522565135 8.15554094664 776.522565135 c 0
 -1.26356119483 776.522565135 -10.8527537592 779.123208507 -19.1198963886 785.099210457 c 0
EndSplineSet
EndChar

StartChar: dotlessi
Encoding: 305 305 96
Width: 360
VWidth: 0
Flags: HW
AnchorPoint: "above" 266 576 basechar 0
LayerCount: 2
Fore
SplineSet
28.6259611158 3.65595084928 m 0
 10.3164158024 11.2425448565 -0.908967104922 29.4874727392 -0.908967104922 48.394180927 c 0
 -0.908967104922 54.4283854234 0.234462335255 60.5299995654 2.65595084928 66.3740388842 c 2
 181.655950849 498.374038884 l 2
 189.242544856 516.683584198 207.487472739 527.908967105 226.394180927 527.908967105 c 0
 232.428385423 527.908967105 238.529999565 526.765537665 244.374038884 524.344049151 c 0
 262.684670469 516.757005045 273.908897623 498.511734652 273.908897623 479.605737226 c 0
 273.908897623 473.571432143 272.765461823 467.469817398 270.344049151 461.625961116 c 2
 91.3440491507 29.6259611158 l 2
 83.757005045 11.315329531 65.5117346524 0.0911023771115 46.6057372261 0.0911023771115 c 0
 40.5714321434 0.0911023771115 34.469817398 1.2345381768 28.6259611158 3.65595084928 c 0
EndSplineSet
EndChar

StartChar: uni0237
Encoding: 567 567 97
Width: 360
VWidth: 0
Flags: HW
AnchorPoint: "above" 266 576 basechar 0
LayerCount: 2
Fore
SplineSet
244.345684119 524.355787381 m 0
 262.669936272 516.776822796 273.909219092 498.523512817 273.909219092 479.605911649 c 0
 273.909219092 473.58165885 272.769460577 467.490041296 270.355787381 461.654315881 c 2
 45.2668754641 -82.5606533763 l 2
 20.7211930036 -140.315200342 -42.5858775374 -192 -132 -192 c 0
 -148.464227813 -192 -158.927293915 -189.39390242 -161.877976071 -188.757827225 c 0
 -184.54264151 -183.090069427 -198.999805936 -163.361128787 -198.999805936 -141.965577743 c 0
 -198.999805936 -138.630250044 -198.648477593 -135.254421493 -197.922145265 -131.88504653 c 0
 -193.122427775 -109.619690395 -172.811290715 -94.0305395381 -150.732119332 -94.0305395381 c 0
 -147.465777808 -94.0305395381 -144.160741866 -94.371716818 -140.861508447 -95.0829288124 c 0
 -140.54279937 -95.1446144402 -135.14725461 -96 -132 -96 c 0
 -81.4141224626 -96 -52.7211930036 -67.6847996577 -43.2668754641 -45.4393466237 c 2
 181.644212619 498.345684119 l 2
 189.223627117 516.671024061 207.477281489 527.909149662 226.39417109 527.909149662 c 0
 232.418523858 527.909149662 238.51014159 526.769384934 244.345684119 524.355787381 c 0
EndSplineSet
EndChar

StartChar: gravecomb
Encoding: 768 768 98
Width: 0
VWidth: 0
Flags: HW
AnchorPoint: "above" 146 720 mark 0
LayerCount: 2
Fore
SplineSet
61.6866231705 932.686985948 m 0
 69.8468045752 949.772365764 87.380179745 959.888138945 105.392171225 959.888138945 c 0
 112.251438861 959.888138945 119.180116095 958.421135566 125.686985948 955.313376829 c 2
 326.686985948 859.313376829 l 2
 343.772365764 851.153195425 353.888138945 833.619820255 353.888138945 815.607828775 c 0
 353.888138945 808.748561139 352.421135566 801.819883905 349.313376829 795.313014052 c 0
 341.152735841 778.226671983 323.619163439 768.111932848 305.607824 768.111932848 c 0
 298.748403352 768.111932848 291.819688161 769.578957924 285.313014052 772.686623171 c 2
 84.3130140516 868.686623171 l 2
 67.2266719828 876.847264159 57.1119328478 894.380836561 57.1119328478 912.392176 c 0
 57.1119328478 919.251596648 58.5789579244 926.180311839 61.6866231705 932.686985948 c 0
EndSplineSet
EndChar

StartChar: acutecomb
Encoding: 769 769 99
Width: 0
VWidth: 0
Flags: HW
AnchorPoint: "above" 146 720 mark 0
LayerCount: 2
Fore
SplineSet
20.6117339329 800.382532106 m 0
 18.8851653628 805.400372013 18.0674109101 810.544061822 18.0674109101 815.626927242 c 0
 18.0674109101 835.586351509 30.6770226746 854.607875725 50.3825321059 861.388266067 c 2
 329.382532106 957.388266067 l 2
 334.400372013 959.114834637 339.544061822 959.93258909 344.626927242 959.93258909 c 0
 364.586351509 959.93258909 383.607875725 947.322977325 390.388266067 927.617467894 c 0
 392.114892535 922.599459723 392.932651057 917.455733636 392.932651057 912.37291266 c 0
 392.932651057 892.412688201 380.321744916 873.39170022 360.617467894 866.611733933 c 2
 81.6174678941 770.611733933 l 2
 76.5994597229 768.885107465 71.4557336362 768.067348943 66.3729126603 768.067348943 c 0
 46.4126882005 768.067348943 27.39170022 780.678255084 20.6117339329 800.382532106 c 0
EndSplineSet
EndChar

StartChar: uni0302
Encoding: 770 770 100
Width: 0
VWidth: 0
Flags: HW
AnchorPoint: "above" 152 736 mark 0
LayerCount: 2
Fore
SplineSet
8.43270275547 811.853272951 m 0
 5.49409306898 818.208016398 4.10704059884 824.941376577 4.10704059884 831.605606144 c 0
 4.10704059884 849.827152088 14.4766747085 867.531876092 31.8532729505 875.567297245 c 2
 204.853272951 955.567297245 l 2
 211.072865054 958.4434092 217.81283024 959.753410984 224.471133925 959.753410984 c 0
 235.310468588 959.753410984 245.933384235 956.281649035 253.742482764 950.443070697 c 2
 360.742482764 870.443070697 l 2
 373.213013526 861.119309379 379.823610367 846.498413024 379.823610367 831.773477045 c 0
 379.823610367 821.774046066 376.77512289 811.726637045 370.443070697 803.257517236 c 0
 361.118897095 790.786435045 346.498154145 784.176434397 331.773739959 784.176434397 c 0
 321.773965181 784.176434397 311.726375567 787.225072607 303.257517236 793.556929303 c 2
 219.174758023 856.422543668 l 1
 72.1467270495 788.432702755 l 2
 65.7917909297 785.494003972 59.0584595578 784.106968982 52.3943704367 784.106968982 c 0
 34.1721599196 784.106968982 16.4676655408 794.477665927 8.43270275547 811.853272951 c 0
EndSplineSet
EndChar

StartChar: uni0308
Encoding: 776 776 101
Width: 0
VWidth: 0
Flags: HW
AnchorPoint: "above" 146 720 mark 0
LayerCount: 2
Fore
SplineSet
48.3336743516 771.369282573 m 0
 29.6592717792 778.761233591 18.084784911 797.212897221 18.084784911 816.391057379 c 0
 18.084784911 822.177963626 19.1386396609 828.03101724 21.3692825726 833.666325648 c 2
 40.3692825726 881.666325648 l 2
 47.7612335909 900.340728221 66.2128972208 911.915215089 85.391057379 911.915215089 c 0
 91.1779636265 911.915215089 97.0310172398 910.861360339 102.666325648 908.630717427 c 0
 121.341852299 901.238321461 132.915147083 882.78626759 132.915147083 863.608838989 c 0
 132.915147083 857.82184734 131.861289373 851.968803477 129.630717427 846.333674352 c 2
 110.630717427 798.333674352 l 2
 103.238321461 779.658147701 84.7862675899 768.084852917 65.6088389887 768.084852917 c 0
 59.8218473401 768.084852917 53.9688034769 769.138710627 48.3336743516 771.369282573 c 0
288.333674352 771.369282573 m 0
 269.659271779 778.761233591 258.084784911 797.212897221 258.084784911 816.391057379 c 0
 258.084784911 822.177963626 259.138639661 828.03101724 261.369282573 833.666325648 c 2
 280.369282573 881.666325648 l 2
 287.761233591 900.340728221 306.212897221 911.915215089 325.391057379 911.915215089 c 0
 331.177963626 911.915215089 337.03101724 910.861360339 342.666325648 908.630717427 c 0
 361.341852299 901.238321461 372.915147083 882.78626759 372.915147083 863.608838989 c 0
 372.915147083 857.82184734 371.861289373 851.968803477 369.630717427 846.333674352 c 2
 350.630717427 798.333674352 l 2
 343.238321461 779.658147701 324.78626759 768.084852917 305.608838989 768.084852917 c 0
 299.82184734 768.084852917 293.968803477 769.138710627 288.333674352 771.369282573 c 0
EndSplineSet
EndChar

StartChar: uni030A
Encoding: 778 778 102
Width: 0
VWidth: 0
Flags: HW
HStem: 816 160<-68.9831 68.9831>
VStem: -100 200<840.814 951.186>
AnchorPoint: "above" 146 720 mark 0
LayerCount: 2
Fore
SplineSet
363.426253898 877.825623405 m 0
 335.89655444 810.530802508 258.522571008 768 186 768 c 0
 166.68603421 768 148.171631174 771.178622861 131.201518445 778.053806316 c 0
 106.843966084 787.921898748 85.3678734261 806.097081628 74.0960319985 831.465252989 c 0
 68.482751315 844.09838549 65.8748322621 857.556402882 65.8748322621 871.060417286 c 0
 65.8748322621 885.709012668 68.9435736355 900.411732787 74.5737461021 914.174376595 c 0
 102.10344556 981.469197492 179.477428992 1024 252 1024 c 0
 271.31396579 1024 289.828368826 1020.82137714 306.798481555 1013.94619368 c 0
 331.156033916 1004.07810125 352.632126574 985.902918372 363.903968001 960.534747011 c 0
 369.517248685 947.90161451 372.125167738 934.443597118 372.125167738 920.939582714 c 0
 372.125167738 906.290987332 369.056426365 891.588267213 363.426253898 877.825623405 c 0
274.573746102 914.174376595 m 0
 276.764038923 919.528425711 276.179526673 921.505925888 276.168179902 921.557903041 c 2
 276.168179902 921.557903041 271.558171685 928 252 928 c 0
 214.522571008 928 171.89655444 898.530802508 163.426253898 877.825623405 c 0
 161.235961077 872.471574289 161.820473327 870.494074112 161.831820098 870.442096959 c 2
 161.831820098 870.442096959 166.441828315 864 186 864 c 0
 223.477428992 864 266.10344556 893.469197492 274.573746102 914.174376595 c 0
EndSplineSet
EndChar

StartChar: uni0327
Encoding: 807 807 103
Width: 0
VWidth: 0
Flags: HW
AnchorPoint: "bottom" -136 40 mark 0
LayerCount: 2
Fore
SplineSet
-363 -200 m 0
 -363 -173.855528292 -341.146366075 -152 -315 -152 c 0
 -237.758949097 -152 -193.340665871 -138.647264407 -179.967078145 -126.732526313 c 1
 -196.577184194 -122.620231291 -225.247866403 -120 -262 -120 c 0
 -288.354847908 -120 -309.996663789 -97.8655822267 -309.996663789 -71.9101648326 c 0
 -309.996663789 -57.0875392459 -302.761434097 -44.0105481108 -293.889464264 -36.1243527032 c 2
 -167.889464264 75.8756472968 l 2
 -158.885556 83.8791213093 -147.47966658 87.8097066572 -136.097647343 87.8097066572 c 0
 -122.777978541 87.8097066572 -109.490998915 82.426941252 -100.124352703 71.8894642638 c 0
 -92.1206095563 62.8852532236 -88.1902737706 51.4795815393 -88.1902737706 40.0979718239 c 0
 -88.1902737706 26.7778231473 -93.573472613 13.4906310349 -104.110535736 4.12435270318 c 2
 -148.914934823 -35.7017798181 l 1
 -123.43027922 -43.2555292201 -86.6648748774 -60.7825127194 -78.3450957135 -102.143700563 c 0
 -77.2858855694 -107.409488137 -76.8119963558 -112.587379831 -76.8119963558 -117.641213362 c 0
 -76.8119963558 -131.004970457 -80.1255354951 -143.501285188 -84.6923076923 -154.461538462 c 0
 -119.246547454 -237.391713888 -217.539666996 -248 -315 -248 c 0
 -341.146366075 -248 -363 -226.144471708 -363 -200 c 0
EndSplineSet
EndChar

StartChar: dieresis
Encoding: 168 168 104
Width: 600
VWidth: 0
Flags: HW
AnchorPoint: "above" 373 544 mark 0
LayerCount: 2
Fore
SplineSet
274.538461538 595.692307692 m 0
 256.274346334 603.302355694 245.09181128 621.521365246 245.09181128 640.394449251 c 0
 245.09181128 646.459387 246.246612456 652.591869894 248.692307692 658.461538462 c 2
 268.692307692 706.461538462 l 2
 276.302355694 724.725653666 294.521365246 735.90818872 313.394449251 735.90818872 c 0
 319.459387 735.90818872 325.591869894 734.753387544 331.461538462 732.307692308 c 0
 349.726735254 724.697193644 360.908119079 706.477847382 360.908119079 687.605471664 c 0
 360.908119079 681.540431419 359.753311085 675.407946603 357.307692308 669.538461538 c 2
 337.307692308 621.538461538 l 2
 329.697193644 603.273264746 311.477847382 592.091880921 292.605471664 592.091880921 c 0
 286.540431419 592.091880921 280.407946603 593.246688915 274.538461538 595.692307692 c 0
514.538461538 595.692307692 m 0
 496.274346334 603.302355694 485.09181128 621.521365246 485.09181128 640.394449251 c 0
 485.09181128 646.459387 486.246612456 652.591869894 488.692307692 658.461538462 c 2
 508.692307692 706.461538462 l 2
 516.302355694 724.725653666 534.521365246 735.90818872 553.394449251 735.90818872 c 0
 559.459387 735.90818872 565.591869894 734.753387544 571.461538462 732.307692308 c 0
 589.726735254 724.697193644 600.908119079 706.477847382 600.908119079 687.605471664 c 0
 600.908119079 681.540431419 599.753311085 675.407946603 597.307692308 669.538461538 c 2
 577.307692308 621.538461538 l 2
 569.697193644 603.273264746 551.477847382 592.091880921 532.605471664 592.091880921 c 0
 526.540431419 592.091880921 520.407946603 593.246688915 514.538461538 595.692307692 c 0
EndSplineSet
EndChar

StartChar: cedilla
Encoding: 184 184 106
Width: 400
VWidth: 0
Flags: HW
AnchorPoint: "bottom" 64 40 mark 0
LayerCount: 2
Fore
SplineSet
-163 -200 m 0
 -163 -173.855528292 -141.146366075 -152 -115 -152 c 0
 -37.7589490971 -152 6.6593341291 -138.647264407 20.0329218552 -126.732526313 c 1
 3.42281580594 -122.620231291 -25.2478664035 -120 -62 -120 c 0
 -88.3548479083 -120 -109.996663789 -97.8655822267 -109.996663789 -71.9101648326 c 0
 -109.996663789 -57.0875392459 -102.761434097 -44.0105481108 -93.8894642638 -36.1243527032 c 2
 32.1105357362 75.8756472968 l 2
 41.1144440002 83.8791213093 52.5203334201 87.8097066572 63.9023526567 87.8097066572 c 0
 77.2220214589 87.8097066572 90.5090010851 82.426941252 99.8756472968 71.8894642638 c 0
 107.879390444 62.8852532236 111.809726229 51.4795815393 111.809726229 40.0979718239 c 0
 111.809726229 26.7778231473 106.426527387 13.4906310349 95.8894642638 4.12435270318 c 2
 51.0850651774 -35.7017798181 l 1
 76.5697207802 -43.2555292201 113.335125123 -60.7825127194 121.654904287 -102.143700563 c 0
 122.714114431 -107.409488137 123.188003644 -112.587379831 123.188003644 -117.641213362 c 0
 123.188003644 -131.004970457 119.874464505 -143.501285188 115.307692308 -154.461538462 c 0
 80.7534525465 -237.391713888 -17.5396669957 -248 -115 -248 c 0
 -141.146366075 -248 -163 -226.144471708 -163 -200 c 0
EndSplineSet
EndChar

StartChar: minus
Encoding: 8722 8722 161
Width: 800
VWidth: 0
Flags: HW
LayerCount: 2
Fore
SplineSet
82 368 m 0
 82 394.144471708 103.853633925 416 130 416 c 2
 670 416 l 2
 696.144471708 416 718 394.146366075 718 368 c 0
 718 341.853633925 696.144471708 320 670 320 c 2
 130 320 l 2
 103.853633925 320 82 341.855528292 82 368 c 0
EndSplineSet
EndChar

StartChar: degree
Encoding: 176 176 164
Width: 600
VWidth: 32
Flags: HW
HStem: 432 256<210.562 389.438>
VStem: 140 320<488.45 631.55>
AnchorPoint: "above" 287 336 mark 0
LayerCount: 2
Fore
SplineSet
584.4362167 541.849995996 m 0
 545.891924849 447.482936636 432.284943014 384 327 384 c 0
 299.21382315 384 273.202954349 388.558707747 249.932070908 397.975495573 c 0
 196.636547611 419.542044014 164.115174194 467.326120258 164.115174194 521.77639488 c 0
 164.115174194 540.062603763 167.783062329 559.100652662 175.5637833 578.150004004 c 0
 214.108075151 672.517063364 327.715056986 736 433 736 c 0
 460.78617685 736 486.797045651 731.441292253 510.067929092 722.024504427 c 0
 563.363452389 700.457955986 595.884825806 652.673879742 595.884825806 598.22360512 c 0
 595.884825806 579.937396237 592.216937671 560.899347338 584.4362167 541.849995996 c 0
495.5637833 578.150004004 m 0
 499.325052102 587.358627624 501.16923559 595.113598101 501.16923559 601.740879574 c 0
 501.16923559 616.63382488 491.856130883 625.831954111 474.057242277 633.034446358 c 0
 464.014203673 637.098458964 450.237078964 640 433 640 c 0
 362.284943014 640 283.891924849 589.482936636 264.4362167 541.849995996 c 0
 260.674947898 532.641372376 258.83076441 524.886401899 258.83076441 518.259120426 c 0
 258.83076441 503.36617512 268.143869117 494.168045889 285.942757723 486.965553642 c 0
 295.985796327 482.901541036 309.762921036 480 327 480 c 0
 397.715056986 480 476.108075151 530.517063364 495.5637833 578.150004004 c 0
EndSplineSet
EndChar

StartChar: uni00B2
Encoding: 178 178 165
Width: 660
VWidth: 516
Flags: HW
LayerCount: 2
Fore
SplineSet
334.696115698 849.626947147 m 0
 316.350196581 857.194638783 305.090409667 875.460290332 305.090409667 894.393946869 c 0
 305.090409667 900.403535903 306.224769213 906.480422643 308.626947147 912.303884302 c 0
 352.778376595 1019.33765266 473.604123624 1062 584 1062 c 0
 620.685868775 1062 653.925400999 1056.44008616 682.821133586 1044.57660834 c 0
 735.582553453 1022.91479609 769.514952834 976.823105977 769.514952834 923.318383383 c 0
 769.514952834 905.998927255 765.95946795 887.902723081 758.336226302 869.606943125 c 0
 731.598747471 804.87409964 677.637381833 773.357370585 577.752412587 733.403382886 c 0
 413.116416354 668.185258775 337.066821701 637.56600294 290.104928595 576 c 1
 591 576 l 2
 617.144471708 576 639 554.146366075 639 528 c 0
 639 501.853633925 617.144471708 480 591 480 c 2
 209 480 l 2
 204.869190934 480 198.930309722 480.806878008 194.212711138 482.334519732 c 0
 173.968587466 488.889924443 161.092751789 508.226521121 161.092751789 528.428811077 c 0
 161.092751789 534.421533799 162.2257327 540.490431302 164.635451528 546.324487412 c 0
 229.773253465 704.026534205 339.928205395 742.450774962 542.247587414 822.596617114 c 0
 642.362618167 862.642629415 658.401252529 879.12590036 669.663773698 906.393056875 c 0
 673.116298942 914.679117461 675.0331871 921.482745949 675.0331871 927.312303518 c 0
 675.0331871 939.510648811 666.63998987 947.443972534 646.360527291 955.769940864 c 0
 631.970775595 961.67782015 610.837262898 966 584 966 c 0
 492.395876376 966 419.221623405 928.662347339 397.373052853 875.696115698 c 0
 389.804911582 857.349106556 371.538912857 846.090479018 352.60596908 846.090479018 c 0
 346.596280986 846.090479018 340.519394693 847.224844562 334.696115698 849.626947147 c 0
EndSplineSet
EndChar

StartChar: uni00B3
Encoding: 179 179 166
Width: 660
VWidth: 516
Flags: HW
LayerCount: 2
Fore
SplineSet
229.798098281 653.674590495 m 0
 233.435360259 654.54753337 237.091649471 654.965003144 240.70493797 654.965003144 c 0
 262.346639739 654.965003144 282.445741974 639.988770558 287.674590495 618.201901719 c 0
 292.085542418 599.822935374 320.529584105 570 392 570 c 0
 491.179060462 570 594.144818873 632.98024464 617.582275555 690.195212423 c 0
 622.927242295 703.243219465 624.974738343 714.177995842 624.974738343 723.22616088 c 0
 624.974738343 746.60135756 611.533329185 777 527 777 c 0
 505.720710998 777 465.12946801 769.001423595 438.76459191 761.728354326 c 0
 434.632380923 760.588434054 430.455089073 760.045485152 426.327934853 760.045485152 c 0
 418.019853611 760.045485152 409.914944375 762.24566931 402.789939531 766.205356412 c 0
 392.117605171 772.127864512 383.632893834 782.000537405 379.969622714 794.391018889 c 0
 379.928087555 794.531505455 379.887248583 794.672057422 379.847103656 794.812670936 c 0
 379.806897496 794.953269506 379.767313138 795.094182614 379.728354326 795.23540809 c 0
 378.588392342 799.367770283 378.04543508 803.545125473 378.04543508 807.672282895 c 0
 378.04543508 815.980508981 380.245726421 824.085312584 384.205401995 831.210148689 c 0
 390.127682707 841.882194215 400.000013148 850.366951182 412.391018889 854.030377286 c 0
 511.42584697 883.310239502 579.745470139 925.293038739 623.045868574 960 c 1
 389 960 l 2
 362.855528292 960 341 981.853633925 341 1008 c 0
 341 1034.14636608 362.855528292 1056 389 1056 c 2
 734 1056 l 2
 739.932990384 1056 748.617685809 1054.29766812 755.161416949 1051.08357498 c 0
 772.082074343 1042.77263313 781.845504129 1025.35971107 781.845504129 1007.59209714 c 0
 781.845504129 999.354967544 779.747066877 991.041604633 775.290506411 983.523601566 c 0
 772.516200632 978.843481209 733.139220781 914.646813139 635.687773962 850.884602521 c 1
 687.733022376 826.379445737 720.974755949 782.374956256 720.974755949 723.2318202 c 0
 720.974755949 699.54773363 715.715126492 676.501386691 706.417724445 653.804787577 c 0
 661.855181127 545.01975536 520.820939538 474 392 474 c 0
 299.470415895 474 213.914457582 514.177064626 194.325409505 595.798098281 c 0
 193.452432957 599.435500564 193.034954448 603.091862433 193.034954448 606.705174544 c 0
 193.034954448 628.347873434 208.01268472 648.44609124 229.798098281 653.674590495 c 0
EndSplineSet
EndChar

StartChar: uni00B9
Encoding: 185 185 167
Width: 360
VWidth: 492
Flags: HW
LayerCount: 2
Fore
SplineSet
463.382798529 1052.34041856 m 0
 481.687798963 1044.75147047 492.908889233 1026.50913374 492.908889233 1007.60579103 c 0
 492.908889233 1001.5685114 491.764324334 995.463808358 489.340418562 989.617201471 c 2
 290.340418562 509.617201471 l 2
 282.751470465 491.312201037 264.509133737 480.091110767 245.605791029 480.091110767 c 0
 239.568511402 480.091110767 233.463808358 481.235675666 227.617201471 483.659581438 c 0
 209.311115234 491.248979691 198.091180265 509.491658346 198.091180265 528.394290542 c 0
 198.091180265 534.431670946 199.235751569 540.536374725 201.659581438 546.382798529 c 2
 400.659581438 1026.38279853 l 2
 408.248979691 1044.68888477 426.491658346 1055.90881973 445.394290542 1055.90881973 c 0
 451.431670946 1055.90881973 457.536374725 1054.76424843 463.382798529 1052.34041856 c 0
EndSplineSet
EndChar

StartChar: minute
Encoding: 8242 8242 168
Width: 320
VWidth: 0
Flags: HW
LayerCount: 2
Fore
SplineSet
338.01366488 728.967262165 m 0
 352.684656038 720.009493525 360.850282577 703.955073197 360.850282577 687.665656708 c 0
 360.850282577 679.179617771 358.634186941 670.629802471 353.967262165 662.98633512 c 2
 226.967262165 454.98633512 l 2
 218.009493525 440.315343962 201.955073197 432.149717423 185.665656708 432.149717423 c 0
 177.179617771 432.149717423 168.629802471 434.365813059 160.98633512 439.032737835 c 0
 146.314609617 447.990954849 138.149781776 464.045351037 138.149781776 480.334195186 c 0
 138.149781776 488.820490968 140.365950518 497.37042266 145.032737835 505.01366488 c 2
 272.032737835 713.01366488 l 2
 280.990954849 727.685390383 297.045351037 735.850218224 313.334195186 735.850218224 c 0
 321.820490968 735.850218224 330.37042266 733.634049482 338.01366488 728.967262165 c 0
EndSplineSet
EndChar

StartChar: second
Encoding: 8243 8243 169
Width: 520
VWidth: 0
Flags: HW
LayerCount: 2
Fore
SplineSet
538.01366488 728.967262165 m 0
 552.684656038 720.009493525 560.850282577 703.955073197 560.850282577 687.665656708 c 0
 560.850282577 679.179617771 558.634186941 670.629802471 553.967262165 662.98633512 c 2
 426.967262165 454.98633512 l 2
 418.009493525 440.315343962 401.955073197 432.149717423 385.665656708 432.149717423 c 0
 377.179617771 432.149717423 368.629802471 434.365813059 360.98633512 439.032737835 c 0
 346.314609617 447.990954849 338.149781776 464.045351037 338.149781776 480.334195186 c 0
 338.149781776 488.820490968 340.365950518 497.37042266 345.032737835 505.01366488 c 2
 472.032737835 713.01366488 l 2
 480.990954849 727.685390383 497.045351037 735.850218224 513.334195186 735.850218224 c 0
 521.820490968 735.850218224 530.37042266 733.634049482 538.01366488 728.967262165 c 0
338.01366488 728.967262165 m 0
 352.684656038 720.009493525 360.850282577 703.955073197 360.850282577 687.665656708 c 0
 360.850282577 679.179617771 358.634186941 670.629802471 353.967262165 662.98633512 c 2
 226.967262165 454.98633512 l 2
 218.009493525 440.315343962 201.955073197 432.149717423 185.665656708 432.149717423 c 0
 177.179617771 432.149717423 168.629802471 434.365813059 160.98633512 439.032737835 c 0
 146.314609617 447.990954849 138.149781776 464.045351037 138.149781776 480.334195186 c 0
 138.149781776 488.820490968 140.365950518 497.37042266 145.032737835 505.01366488 c 2
 272.032737835 713.01366488 l 2
 280.990954849 727.685390383 297.045351037 735.850218224 313.334195186 735.850218224 c 0
 321.820490968 735.850218224 330.37042266 733.634049482 338.01366488 728.967262165 c 0
EndSplineSet
EndChar

StartChar: uni2034
Encoding: 8244 8244 170
Width: 720
VWidth: 0
Flags: HW
LayerCount: 2
Fore
SplineSet
738.01366488 728.967262165 m 0
 752.684656038 720.009493525 760.850282577 703.955073197 760.850282577 687.665656708 c 0
 760.850282577 679.179617771 758.634186941 670.629802471 753.967262165 662.98633512 c 2
 626.967262165 454.98633512 l 2
 618.009493525 440.315343962 601.955073197 432.149717423 585.665656708 432.149717423 c 0
 577.179617771 432.149717423 568.629802471 434.365813059 560.98633512 439.032737835 c 0
 546.314609617 447.990954849 538.149781776 464.045351037 538.149781776 480.334195186 c 0
 538.149781776 488.820490968 540.365950518 497.37042266 545.032737835 505.01366488 c 2
 672.032737835 713.01366488 l 2
 680.990954849 727.685390383 697.045351037 735.850218224 713.334195186 735.850218224 c 0
 721.820490968 735.850218224 730.37042266 733.634049482 738.01366488 728.967262165 c 0
538.01366488 728.967262165 m 0
 552.684656038 720.009493525 560.850282577 703.955073197 560.850282577 687.665656708 c 0
 560.850282577 679.179617771 558.634186941 670.629802471 553.967262165 662.98633512 c 2
 426.967262165 454.98633512 l 2
 418.009493525 440.315343962 401.955073197 432.149717423 385.665656708 432.149717423 c 0
 377.179617771 432.149717423 368.629802471 434.365813059 360.98633512 439.032737835 c 0
 346.314609617 447.990954849 338.149781776 464.045351037 338.149781776 480.334195186 c 0
 338.149781776 488.820490968 340.365950518 497.37042266 345.032737835 505.01366488 c 2
 472.032737835 713.01366488 l 2
 480.990954849 727.685390383 497.045351037 735.850218224 513.334195186 735.850218224 c 0
 521.820490968 735.850218224 530.37042266 733.634049482 538.01366488 728.967262165 c 0
338.01366488 728.967262165 m 0
 352.684656038 720.009493525 360.850282577 703.955073197 360.850282577 687.665656708 c 0
 360.850282577 679.179617771 358.634186941 670.629802471 353.967262165 662.98633512 c 2
 226.967262165 454.98633512 l 2
 218.009493525 440.315343962 201.955073197 432.149717423 185.665656708 432.149717423 c 0
 177.179617771 432.149717423 168.629802471 434.365813059 160.98633512 439.032737835 c 0
 146.314609617 447.990954849 138.149781776 464.045351037 138.149781776 480.334195186 c 0
 138.149781776 488.820490968 140.365950518 497.37042266 145.032737835 505.01366488 c 2
 272.032737835 713.01366488 l 2
 280.990954849 727.685390383 297.045351037 735.850218224 313.334195186 735.850218224 c 0
 321.820490968 735.850218224 330.37042266 733.634049482 338.01366488 728.967262165 c 0
EndSplineSet
EndChar

StartChar: uni00AD
Encoding: 173 173 171
Width: 520
VWidth: 32
Flags: HW
LayerCount: 2
Fore
SplineSet
9 264 m 0
 9 290.144471708 30.8536339246 312 57 312 c 2
 377 312 l 2
 403.144471708 312 425 290.146366075 425 264 c 0
 425 237.853633925 403.144471708 216 377 216 c 2
 57 216 l 2
 30.8536339246 216 9 237.855528292 9 264 c 0
EndSplineSet
EndChar

StartChar: endash
Encoding: 8211 8211 173
Width: 640
VWidth: 0
Flags: HW
LayerCount: 2
Fore
SplineSet
-31 264 m 0
 -31 290.144471708 -9.14636607536 312 17 312 c 2
 537 312 l 2
 563.144471708 312 585 290.146366075 585 264 c 0
 585 237.853633925 563.144471708 216 537 216 c 2
 17 216 l 2
 -9.14636607536 216 -31 237.855528292 -31 264 c 0
EndSplineSet
EndChar

StartChar: emdash
Encoding: 8212 8212 174
Width: 1280
VWidth: 0
Flags: HW
LayerCount: 2
Fore
SplineSet
-31 264 m 0
 -31 290.144471708 -9.14636607536 312 17 312 c 2
 1177 312 l 2
 1203.14447171 312 1225 290.146366075 1225 264 c 0
 1225 237.853633925 1203.14447171 216 1177 216 c 2
 17 216 l 2
 -9.14636607536 216 -31 237.855528292 -31 264 c 0
EndSplineSet
EndChar

StartChar: figuredash
Encoding: 8210 8210 190
Width: 840
VWidth: 0
Flags: HW
LayerCount: 2
Fore
SplineSet
12 368 m 0
 12 394.144471708 33.8536339246 416 60 416 c 2
 780 416 l 2
 806.144471708 416 828 394.146366075 828 368 c 0
 828 341.853633925 806.144471708 320 780 320 c 2
 60 320 l 2
 33.8536339246 320 12 341.855528292 12 368 c 0
EndSplineSet
EndChar

StartChar: uni2057
Encoding: 8279 8279 191
Width: 920
VWidth: 0
Flags: HW
LayerCount: 2
Fore
SplineSet
938.01366488 728.967262165 m 0
 952.684656038 720.009493525 960.850282577 703.955073197 960.850282577 687.665656708 c 0
 960.850282577 679.179617771 958.634186941 670.629802471 953.967262165 662.98633512 c 2
 826.967262165 454.98633512 l 2
 818.009493525 440.315343962 801.955073197 432.149717423 785.665656708 432.149717423 c 0
 777.179617771 432.149717423 768.629802471 434.365813059 760.98633512 439.032737835 c 0
 746.314609617 447.990954849 738.149781776 464.045351037 738.149781776 480.334195186 c 0
 738.149781776 488.820490968 740.365950518 497.37042266 745.032737835 505.01366488 c 2
 872.032737835 713.01366488 l 2
 880.990954849 727.685390383 897.045351037 735.850218224 913.334195186 735.850218224 c 0
 921.820490968 735.850218224 930.37042266 733.634049482 938.01366488 728.967262165 c 0
738.01366488 728.967262165 m 0
 752.684656038 720.009493525 760.850282577 703.955073197 760.850282577 687.665656708 c 0
 760.850282577 679.179617771 758.634186941 670.629802471 753.967262165 662.98633512 c 2
 626.967262165 454.98633512 l 2
 618.009493525 440.315343962 601.955073197 432.149717423 585.665656708 432.149717423 c 0
 577.179617771 432.149717423 568.629802471 434.365813059 560.98633512 439.032737835 c 0
 546.314609617 447.990954849 538.149781776 464.045351037 538.149781776 480.334195186 c 0
 538.149781776 488.820490968 540.365950518 497.37042266 545.032737835 505.01366488 c 2
 672.032737835 713.01366488 l 2
 680.990954849 727.685390383 697.045351037 735.850218224 713.334195186 735.850218224 c 0
 721.820490968 735.850218224 730.37042266 733.634049482 738.01366488 728.967262165 c 0
538.01366488 728.967262165 m 0
 552.684656038 720.009493525 560.850282577 703.955073197 560.850282577 687.665656708 c 0
 560.850282577 679.179617771 558.634186941 670.629802471 553.967262165 662.98633512 c 2
 426.967262165 454.98633512 l 2
 418.009493525 440.315343962 401.955073197 432.149717423 385.665656708 432.149717423 c 0
 377.179617771 432.149717423 368.629802471 434.365813059 360.98633512 439.032737835 c 0
 346.314609617 447.990954849 338.149781776 464.045351037 338.149781776 480.334195186 c 0
 338.149781776 488.820490968 340.365950518 497.37042266 345.032737835 505.01366488 c 2
 472.032737835 713.01366488 l 2
 480.990954849 727.685390383 497.045351037 735.850218224 513.334195186 735.850218224 c 0
 521.820490968 735.850218224 530.37042266 733.634049482 538.01366488 728.967262165 c 0
338.01366488 728.967262165 m 0
 352.684656038 720.009493525 360.850282577 703.955073197 360.850282577 687.665656708 c 0
 360.850282577 679.179617771 358.634186941 670.629802471 353.967262165 662.98633512 c 2
 226.967262165 454.98633512 l 2
 218.009493525 440.315343962 201.955073197 432.149717423 185.665656708 432.149717423 c 0
 177.179617771 432.149717423 168.629802471 434.365813059 160.98633512 439.032737835 c 0
 146.314609617 447.990954849 138.149781776 464.045351037 138.149781776 480.334195186 c 0
 138.149781776 488.820490968 140.365950518 497.37042266 145.032737835 505.01366488 c 2
 272.032737835 713.01366488 l 2
 280.990954849 727.685390383 297.045351037 735.850218224 313.334195186 735.850218224 c 0
 321.820490968 735.850218224 330.37042266 733.634049482 338.01366488 728.967262165 c 0
EndSplineSet
EndChar

StartChar: copyright
Encoding: 169 169 192
Width: 920
VWidth: 0
Flags: HW
HStem: 48 640<313.377 606.622>
VStem: 60 800<250.702 485.298>
LayerCount: 2
Fore
SplineSet
904.374157479 349.698793808 m 0
 821.846414115 149.597279078 565.435152474 0 327 0 c 0
 264.365845538 0 207.701305876 10.4589422072 158.950223563 30.5601032806 c 0
 53.5448066337 74.0211130306 -8.87306509841 163.31266732 -8.87306509841 268.914423717 c 0
 -8.87306509841 306.426358298 -0.997067084445 345.996343175 15.6258425215 386.301206192 c 0
 98.1535858847 586.402720922 354.564847526 736 593 736 c 0
 655.634154462 736 712.298694124 725.541057793 761.049776437 705.439896719 c 0
 866.455193366 661.978886969 928.873065098 572.68733268 928.873065098 467.085576283 c 0
 928.873065098 429.573641702 920.997067084 390.003656825 904.374157479 349.698793808 c 0
815.625842521 386.301206192 m 0
 828.143510954 416.652265268 834.130598998 444.918883212 834.130598998 470.769502405 c 0
 834.130598998 537.290601318 794.485219935 587.813407644 724.455481908 616.688234155 c 0
 689.174556905 631.235348243 644.95843813 640 593 640 c 0
 389.435152474 640 167.846414115 503.597279078 104.374157479 349.698793808 c 0
 91.8564890459 319.347734732 85.8694010023 291.081116788 85.8694010023 265.230497595 c 0
 85.8694010023 198.709398682 125.514780065 148.186592356 195.544518092 119.311765845 c 0
 230.825443095 104.764651757 275.04156187 96 327 96 c 0
 530.564847526 96 752.153585885 232.402720922 815.625842521 386.301206192 c 0
566.461538462 328.307692308 m 0
 584.725653666 320.697644306 595.90818872 302.478634754 595.90818872 283.605550749 c 0
 595.90818872 277.540613 594.753387544 271.408130106 592.307692308 265.538461538 c 0
 577.074063066 228.977751357 499.908760958 156 392 156 c 0
 369.442660319 156 347.841025421 159.904342387 328.210970131 168.008398442 c 0
 270.663306531 191.766329064 243.272535026 244.358844535 243.272535026 303.060953381 c 0
 243.272535026 330.313818648 249.176193105 358.883512479 260.706721743 386.496094217 c 0
 305.437479264 493.614487227 417.416923032 580 528 580 c 0
 647.296295257 580 663.983320228 484.588590596 663.983320228 472.69257594 c 0
 663.983320228 446.26047047 643.799462365 425.465635936 618.653511816 424.073401174 c 0
 617.729463438 424.022240162 616.809205071 423.996877228 615.893552905 423.996877228 c 0
 592.08597707 423.996877228 571.392354882 441.1431128 568.159132796 467.786889868 c 1
 568.159132796 467.786889868 572.287658188 484 528 484 c 0
 466.583076968 484 380.562520736 424.385512773 349.293278257 349.503905783 c 0
 341.182508566 330.080746787 337.907463208 314.25681636 337.907463208 301.473587498 c 0
 337.907463208 275.831404408 351.085362497 262.424184383 364.844458441 256.743890407 c 0
 371.54863706 253.976142761 380.439692622 252 392 252 c 0
 443.843596519 252 494.395282831 293.231284763 506.025589904 307.301776877 c 0
 514.690840224 322.238180255 531.211140532 331.889839482 548.577381587 331.889839482 c 0
 554.533517254 331.889839482 560.589160797 330.754516335 566.461538462 328.307692308 c 0
EndSplineSet
EndChar

StartChar: registered
Encoding: 174 174 193
Width: 920
VWidth: 0
Flags: HW
HStem: 48 640<313.377 606.622>
VStem: 60 800<250.702 485.298>
LayerCount: 2
Fore
SplineSet
405.023405127 424 m 1
 498 424 l 2
 550.068603416 424 583.507345777 440.79543696 595.599048718 470.236104991 c 0
 596.450455803 472.309096155 596.767389787 473.178596022 597.453807437 475.417935103 c 0
 590.963324379 477.689950517 577.708240081 480 561 480 c 2
 428.123405127 480 l 1
 405.023405127 424 l 1
365.423405127 328 m 1
 308.373052853 189.696115698 l 2
 300.804911582 171.349106556 282.538912857 160.090479018 263.60596908 160.090479018 c 0
 257.596280986 160.090479018 251.519394693 161.224844562 245.696115698 163.626947147 c 0
 227.350196581 171.194638783 216.090409667 189.460290332 216.090409667 208.393946869 c 0
 216.090409667 214.403535903 217.224769213 220.480422643 219.626947147 226.303884302 c 2
 296.309028072 412.199838059 l 1
 351.626947147 546.303884302 l 2
 359.182140884 564.619505481 378.319260871 576 396 576 c 2
 561 576 l 2
 586.256607224 576 610.894762913 573.474489538 634.349200305 564.079063107 c 0
 652.207859472 556.925204945 671.233128112 544.477441179 683.22019926 523.431615332 c 0
 691.030364721 509.719226367 694.271748354 495.027619621 694.271748354 480.367822381 c 0
 694.271748354 464.356126735 690.404971055 448.382377933 684.400951282 433.763895009 c 0
 661.029069886 376.858444653 613.592501159 348.151818996 564.123922714 335.806140068 c 1
 578.663437161 213.67421871 l 2
 578.883949444 211.821915534 578.991415338 209.978158519 578.991415338 208.150034043 c 0
 578.991415338 184.354027293 560.783203579 163.206680085 536.67421871 160.336562839 c 0
 534.822002866 160.116060952 532.978315605 160.008599322 531.150245648 160.008599322 c 0
 507.355596984 160.008599322 486.206882467 178.215096416 483.336562839 202.32578129 c 2
 468.375346326 328 l 1
 365.423405127 328 l 1
904.374157479 349.698793808 m 0
 821.846414115 149.597279078 565.435152474 0 327 0 c 0
 264.365845538 0 207.701305876 10.4589422072 158.950223563 30.5601032806 c 0
 53.5448066337 74.0211130306 -8.87306509841 163.31266732 -8.87306509841 268.914423717 c 0
 -8.87306509841 306.426358298 -0.997067084445 345.996343175 15.6258425215 386.301206192 c 0
 98.1535858847 586.402720922 354.564847526 736 593 736 c 0
 655.634154462 736 712.298694124 725.541057793 761.049776437 705.439896719 c 0
 866.455193366 661.978886969 928.873065098 572.68733268 928.873065098 467.085576283 c 0
 928.873065098 429.573641702 920.997067084 390.003656825 904.374157479 349.698793808 c 0
815.625842521 386.301206192 m 0
 828.143510954 416.652265268 834.130598998 444.918883212 834.130598998 470.769502405 c 0
 834.130598998 537.290601318 794.485219935 587.813407644 724.455481908 616.688234155 c 0
 689.174556905 631.235348243 644.95843813 640 593 640 c 0
 389.435152474 640 167.846414115 503.597279078 104.374157479 349.698793808 c 0
 91.8564890459 319.347734732 85.8694010023 291.081116788 85.8694010023 265.230497595 c 0
 85.8694010023 198.709398682 125.514780065 148.186592356 195.544518092 119.311765845 c 0
 230.825443095 104.764651757 275.04156187 96 327 96 c 0
 530.564847526 96 752.153585885 232.402720922 815.625842521 386.301206192 c 0
EndSplineSet
EndChar

StartChar: brokenbar
Encoding: 166 166 194
Width: 360
VWidth: 0
Flags: HW
LayerCount: 2
Fore
SplineSet
158.378649492 316.342138456 m 0
 176.685802712 308.754305213 187.908926119 290.510741077 187.908926119 271.60580428 c 0
 187.908926119 265.569981243 186.764899116 259.466741308 184.342138456 253.621350508 c 2
 58.3421384561 -50.3786494917 l 2
 50.7543052134 -68.6858027122 32.5107410775 -79.9089261189 13.6058042796 -79.9089261189 c 0
 7.56998124338 -79.9089261189 1.46674130751 -78.7648991163 -4.37864949168 -76.3421384561 c 0
 -22.6868887368 -68.7538550848 -33.9088566283 -50.5099487451 -33.9088566283 -31.6057225779 c 0
 -33.9088566283 -25.5697988549 -32.7648232423 -19.4665582464 -30.3421384561 -13.6213505083 c 2
 95.6578615439 290.378649492 l 2
 103.246144915 308.686888737 121.490051255 319.908856628 140.394277422 319.908856628 c 0
 146.430201145 319.908856628 152.533441754 318.764823242 158.378649492 316.342138456 c 0
364.378649492 812.342138456 m 0
 382.685802712 804.754305213 393.908926119 786.510741077 393.908926119 767.60580428 c 0
 393.908926119 761.569981243 392.764899116 755.466741308 390.342138456 749.621350508 c 2
 264.342138456 445.621350508 l 2
 256.754305213 427.314197288 238.510741077 416.091073881 219.60580428 416.091073881 c 0
 213.569981243 416.091073881 207.466741308 417.235100884 201.621350508 419.657861544 c 0
 183.313111263 427.246144915 172.091143372 445.490051255 172.091143372 464.394277422 c 0
 172.091143372 470.430201145 173.235176758 476.533441754 175.657861544 482.378649492 c 2
 301.657861544 786.378649492 l 2
 309.246144915 804.686888737 327.490051255 815.908856628 346.394277422 815.908856628 c 0
 352.430201145 815.908856628 358.533441754 814.764823242 364.378649492 812.342138456 c 0
EndSplineSet
EndChar

StartChar: plusminus
Encoding: 177 177 195
Width: 800
VWidth: 0
Flags: HW
LayerCount: 2
Fore
SplineSet
589 56 m 0
 589 29.8555282921 567.146366075 8 541 8 c 2
 1 8 l 2
 -25.1444717079 8 -47 29.8536339246 -47 56 c 0
 -47 82.1463660754 -25.1444717079 104 1 104 c 2
 541 104 l 2
 567.146366075 104 589 82.1444717079 589 56 c 0
758 464 m 0
 758 437.855528292 736.146366075 416 710 416 c 2
 471.5684773 416 l 1
 394.344049151 229.625961116 l 2
 386.757455144 211.316415802 368.512527261 200.091032895 349.605819073 200.091032895 c 0
 343.571614577 200.091032895 337.470000435 201.234462335 331.625961116 203.655950849 c 0
 313.315329531 211.242994955 302.091102377 229.488265348 302.091102377 248.394262774 c 0
 302.091102377 254.428567857 303.234538177 260.530182602 305.655950849 266.374038884 c 2
 367.653744923 416 l 1
 170 416 l 2
 143.855528292 416 122 437.853633925 122 464 c 0
 122 490.146366075 143.855528292 512 170 512 c 2
 407.4315227 512 l 1
 484.655950849 698.374038884 l 2
 492.242994955 716.684670469 510.488265348 727.908897623 529.394262774 727.908897623 c 0
 535.428567857 727.908897623 541.530182602 726.765461823 547.374038884 724.344049151 c 0
 565.683584198 716.757455144 576.908967105 698.512527261 576.908967105 679.605819073 c 0
 576.908967105 673.571614577 575.765537665 667.470000435 573.344049151 661.625961116 c 2
 511.346255077 512 l 1
 710 512 l 2
 736.146366075 512 758 490.144471708 758 464 c 0
EndSplineSet
EndChar

StartChar: divide
Encoding: 247 247 196
Width: 800
VWidth: 0
Flags: HW
HStem: 128 48<372.382 427.618> 560 48<372.382 427.618>
VStem: 370 60<129.906 174.094 561.906 606.094>
LayerCount: 2
Fore
SplineSet
387.975552075 140.760695967 m 0
 370.959303384 101.866413245 330.586833929 80 291 80 c 0
 263.744036226 80 227.863741682 102.934469978 227.863741682 138.963256561 c 0
 227.863741682 145.809801242 229.159427251 153.12919926 232.056199477 160.853925196 c 0
 232.34335048 161.619661205 232.781626511 162.68428366 233.024447925 163.239304033 c 0
 250.040696616 202.133586755 290.413166071 224 330 224 c 0
 357.255963774 224 393.136258318 201.065530022 393.136258318 165.036743439 c 0
 393.136258318 158.190198758 391.840572749 150.87080074 388.943800523 143.146074804 c 0
 388.65664952 142.380338795 388.218373489 141.31571634 387.975552075 140.760695967 c 0
566.975552075 572.760695967 m 0
 549.959303384 533.866413245 509.586833929 512 470 512 c 0
 442.744036226 512 406.863741682 534.934469978 406.863741682 570.963256561 c 0
 406.863741682 577.809801242 408.159427251 585.12919926 411.056199477 592.853925196 c 0
 411.34335048 593.619661205 411.781626511 594.68428366 412.024447925 595.239304033 c 0
 429.040696616 634.133586755 469.413166071 656 509 656 c 0
 536.255963774 656 572.136258318 633.065530022 572.136258318 597.036743439 c 0
 572.136258318 590.190198758 570.840572749 582.87080074 567.943800523 575.146074804 c 0
 567.65664952 574.380338795 567.218373489 573.31571634 566.975552075 572.760695967 c 0
82 368 m 0
 82 394.144471708 103.853633925 416 130 416 c 2
 670 416 l 2
 696.144471708 416 718 394.146366075 718 368 c 0
 718 341.853633925 696.144471708 320 670 320 c 2
 130 320 l 2
 103.853633925 320 82 341.855528292 82 368 c 0
EndSplineSet
EndChar

